<svg xmlns="http://www.w3.org/2000/svg" xmlns:xlink="http://www.w3.org/1999/xlink" width="430" height="277" viewBox="0 0 430 277"><defs><clipPath id="a"><rect width="430" height="277" transform="translate(1222 162)" fill="#fff" stroke="#707070" stroke-width="1"/></clipPath><radialGradient id="b" cx="0.5" cy="0.5" r="0.556" gradientTransform="translate(0.088) scale(0.824 1)" gradientUnits="objectBoundingBox"><stop offset="0" stop-color="#6598c2"/><stop offset="0.502" stop-color="#292d71"/><stop offset="1" stop-color="#161424"/></radialGradient><radialGradient id="c" cx="0.5" cy="0.5" r="0.5" gradientTransform="translate(0)" gradientUnits="objectBoundingBox"><stop offset="0" stop-color="#deffde"/><stop offset="0.998" stop-color="lime" stop-opacity="0"/></radialGradient><radialGradient id="d" cx="0.5" cy="0.5" r="0.5" gradientTransform="translate(0)" gradientUnits="objectBoundingBox"><stop offset="0" stop-color="#feeeff"/><stop offset="0.998" stop-color="#f0f" stop-opacity="0"/></radialGradient><radialGradient id="e" cx="0.5" cy="0.5" r="0.5" xlink:href="#d"/><radialGradient id="f" cx="0.5" cy="0.5" r="0.5" xlink:href="#d"/><radialGradient id="i" cx="0.5" cy="0.5" r="0.5" gradientTransform="translate(0)" gradientUnits="objectBoundingBox"><stop offset="0" stop-color="#fff"/><stop offset="0.998" stop-color="#ff0" stop-opacity="0"/></radialGradient><radialGradient id="j" cx="0.5" cy="0.5" r="0.5" gradientTransform="translate(0)" gradientUnits="objectBoundingBox"><stop offset="0" stop-color="#fff0e1"/><stop offset="1" stop-color="#ff9406" stop-opacity="0"/></radialGradient><radialGradient id="k" cx="0.5" cy="0.5" r="0.5" xlink:href="#j"/></defs><g transform="translate(-1222 -162)" clip-path="url(#a)"><g transform="translate(1222.179 114)"><rect width="429.641" height="354" fill="url(#b)"/><circle cx="63.738" cy="63.738" r="63.738" transform="translate(151.164 65.784)" opacity="0.5" fill="url(#c)"/><circle cx="63.738" cy="63.738" r="63.738" transform="translate(151.164 86.817)" opacity="0.5" fill="url(#d)"/><circle cx="63.738" cy="63.738" r="63.738" transform="translate(57.484 147.762)" opacity="0.5" fill="url(#e)"/><circle cx="63.738" cy="63.738" r="63.738" transform="translate(125.079 175.182)" opacity="0.5" fill="url(#f)"/><circle cx="63.738" cy="63.738" r="63.738" transform="translate(191.465 171.827)" opacity="0.5" fill="url(#f)"/><circle cx="63.738" cy="63.738" r="63.738" transform="translate(240.017 147.762)" opacity="0.5" fill="url(#e)"/><circle cx="63.738" cy="63.738" r="63.738" transform="translate(151.164 115.08)" opacity="0.5" fill="url(#i)"/><circle cx="63.738" cy="63.738" r="63.738" transform="translate(151.164 51.342)" opacity="0.5" fill="url(#j)"/><circle cx="63.738" cy="63.738" r="63.738" transform="translate(151.164 137.884)" opacity="0.5" fill="url(#k)"/><g opacity="0.5"><path d="M205.078,141.695H182.353a3.782,3.782,0,0,0,0,7.564h65.1a4.416,4.416,0,1,1,0,8.833h-65.1a4.421,4.421,0,0,1-4.416-4.416,3.782,3.782,0,0,0-7.564,0,11.994,11.994,0,0,0,11.98,11.98,11.994,11.994,0,0,0-11.98,11.98c0,2.109,1.3,3.814,3.877,5.067a29.905,29.905,0,0,0,5.3,1.832,145.812,145.812,0,0,0,14.4,2.8c10.171,1.563,20.476,2.58,20.579,2.59q.184.018.369.018t.369-.018c.758-.074,18.7-1.849,30.836-4.416a3.782,3.782,0,1,0-1.564-7.4c-10.794,2.282-27,3.982-29.641,4.251-1.742-.177-9.383-.975-17.451-2.15-12.486-1.818-17.406-3.283-19.268-4.027a4.424,4.424,0,0,1,4.17-2.961h65.1a4.421,4.421,0,0,1,4.416,4.416,3.782,3.782,0,1,0,7.564,0,11.994,11.994,0,0,0-11.98-11.98,11.98,11.98,0,1,0,0-23.961H205.078Z" fill="#1c1b29"/><path d="M181.027,195.792a3.782,3.782,0,0,0-1.8-7.348,12.045,12.045,0,0,0,2.866,23.743h65.61a12.045,12.045,0,0,0,2.866-23.743,3.775,3.775,0,0,0-1.893.025c-10.121,2.761-30.763,4.928-33.778,5.235-2.277-.232-14.614-1.524-24.884-3.336a3.782,3.782,0,1,0-1.315,7.449c11.589,2.045,25.253,3.4,25.829,3.452a3.794,3.794,0,0,0,.738,0c.94-.092,22.486-2.227,34.284-5.21a4.482,4.482,0,0,1-1.848,8.564H182.1a4.481,4.481,0,0,1-1.07-8.832Z" fill="#1c1b29"/><path d="M173.671,123.636h20.788a8.655,8.655,0,0,0-7.744,8.6,3.658,3.658,0,0,1,0,.82,1.078,1.078,0,1,1-2.157,0,3.782,3.782,0,0,0-7.564,0,8.642,8.642,0,1,0,17.285,0,3.658,3.658,0,0,1,0-.82,1.078,1.078,0,0,1,2.157,0,3.658,3.658,0,0,1,0,.82,8.642,8.642,0,1,0,17.285,0,3.66,3.66,0,0,1,0-.82,1.078,1.078,0,0,1,2.157,0,3.66,3.66,0,0,1,0,.82,8.642,8.642,0,1,0,17.285,0,3.66,3.66,0,0,1,0-.82,1.078,1.078,0,0,1,2.157,0,3.658,3.658,0,0,1,0,.82,8.642,8.642,0,1,0,17.285,0,3.782,3.782,0,0,0-7.564,0,1.078,1.078,0,1,1-2.157,0,3.66,3.66,0,0,1,0-.82,8.655,8.655,0,0,0-7.744-8.6h20.788a3.782,3.782,0,0,0,0-7.564H177.643a37.354,37.354,0,0,1,72.869-7.176,3.782,3.782,0,1,0,7.232-2.216,45.277,45.277,0,0,0-16-22.757,44.912,44.912,0,0,0-71.856,35.931A3.782,3.782,0,0,0,173.671,123.636Zm40.229,0a8.655,8.655,0,0,0-7.744,8.6,3.658,3.658,0,0,1,0,.82,1.078,1.078,0,1,1-2.157,0,3.658,3.658,0,0,1,0-.82,8.655,8.655,0,0,0-7.744-8.6Zm11.7,8.6a3.66,3.66,0,0,1,0,.82,1.078,1.078,0,1,1-2.157,0,3.66,3.66,0,0,1,0-.82,8.655,8.655,0,0,0-7.744-8.6h17.645A8.654,8.654,0,0,0,225.6,132.232Z" fill="#1c1b29"/><path d="M118.594,213.437c2.244,1.741,4.563,3.442,6.894,5.056a4.424,4.424,0,0,0,2.529.79,4.479,4.479,0,0,0,.8-.072,4.415,4.415,0,0,0,2.859-1.847l2.434-3.525a4.45,4.45,0,0,0-1.127-6.179c-2.136-1.479-4.261-3.037-6.316-4.632a4.464,4.464,0,0,0-2.724-.933,4.448,4.448,0,0,0-3.515,1.724l-2.621,3.386A4.45,4.45,0,0,0,118.594,213.437Z" fill="#1c1b29"/><path d="M111.756,215.02l-2.622,3.387a4.45,4.45,0,0,0,.789,6.231c2.448,1.9,4.976,3.754,7.516,5.512a4.425,4.425,0,0,0,2.529.79,4.47,4.47,0,0,0,.8-.072,4.415,4.415,0,0,0,2.859-1.847l2.434-3.525a4.45,4.45,0,0,0-1.127-6.179c-2.346-1.624-4.68-3.336-6.937-5.087a4.441,4.441,0,0,0-3.283-.9A4.417,4.417,0,0,0,111.756,215.02Z" fill="#1c1b29"/><path d="M201.935,232.569c-2.479-.221-4.984-.51-7.444-.859a4.442,4.442,0,0,0-5.023,3.773l-.6,4.24a4.444,4.444,0,0,0,3.776,5.027c2.684.38,5.417.7,8.122.938.132.012.266.018.4.018a4.42,4.42,0,0,0,4.423-4.047l.383-4.266a4.444,4.444,0,0,0-4.031-4.824Z" fill="#1c1b29"/><path d="M305.7,202.1a4.464,4.464,0,0,0-2.724.933c-2.056,1.6-4.181,3.154-6.316,4.632a4.45,4.45,0,0,0-1.127,6.179l2.434,3.525a4.414,4.414,0,0,0,2.859,1.847,4.444,4.444,0,0,0,3.327-.718c2.332-1.614,4.652-3.315,6.895-5.056a4.45,4.45,0,0,0,.789-6.23l-2.621-3.387A4.45,4.45,0,0,0,305.7,202.1Z" fill="#1c1b29"/><path d="M339.641,214.4l-6.8-7.172a4.416,4.416,0,0,0-3.107-1.386l-.12,0a4.431,4.431,0,0,0-1.45.243l-.933-1.016a4.449,4.449,0,0,0-3.793-1.409l-.251.029q.034-.193.068-.386a4.471,4.471,0,0,0-1.1-3.769l-6.777-7.386a4.443,4.443,0,0,0-7.456,1.5,4.446,4.446,0,0,0-6.961-1.69,134.015,134.015,0,0,1-20.982,14.457,4.165,4.165,0,0,1-2.552,1.383,4.449,4.449,0,0,0-2.368,4.038,4.434,4.434,0,0,0-4.641-.6,133.907,133.907,0,0,1-21.455,7.629,4.456,4.456,0,0,0-3.263,3.593q-1-.574-1.939-1.138a4.442,4.442,0,0,0-3.137-.551,135.23,135.23,0,0,1-16.675,2.182,4.436,4.436,0,0,0-2.889,1.34c-1.673,1.725-3.425,3.43-5.213,5.073a4.426,4.426,0,0,0-2.488-.8H213.3a4.4,4.4,0,0,0-1.577.291,4.448,4.448,0,0,0-4-5.781,134.926,134.926,0,0,1-24.259-3.51,4.44,4.44,0,0,0-1.031-.122q-.206,0-.412.019a4.45,4.45,0,0,0-1.318-.589,134.234,134.234,0,0,1-14.011-4.507,4.435,4.435,0,0,0-1.527-.3,4.446,4.446,0,0,0-1.311-.831,133.652,133.652,0,0,1-13.429-6.407,4.453,4.453,0,0,0-4.949.455c-.267-.835-.52-1.656-.757-2.454a4.442,4.442,0,0,0-1.873-2.484A134.77,134.77,0,0,1,122.564,186.5a4.43,4.43,0,0,0-3.061-1.22l-.116,0a4.415,4.415,0,0,0-3.107,1.386l-6.8,7.172a4.451,4.451,0,0,0-.242,5.836,4.457,4.457,0,0,0-3.208,1.439l-4.56,4.969a4.424,4.424,0,0,0-1.449-.243l-.121,0a4.416,4.416,0,0,0-3.107,1.386L90,214.4a4.45,4.45,0,0,0,.167,6.281,182.1,182.1,0,0,0,27.4,21.419,4.436,4.436,0,0,0,2.388.7l.138,0c3.193-.1,6.412-.3,9.57-.591a4.449,4.449,0,0,0,.846-.162,4.421,4.421,0,0,0,.31.795c1.416,2.8,2.938,5.615,4.523,8.362a4.424,4.424,0,0,0,1.948,1.794,180.836,180.836,0,0,0,21.359,8.483,4.444,4.444,0,0,0,2.748-8.452,172.114,172.114,0,0,1-19.047-7.475c-.875-1.546-1.732-3.119-2.553-4.689l9.662-18.314a4.418,4.418,0,0,0-.149-4.414l.779-1.424c2.073,1.052,4.185,2.06,6.306,3.009l-.616,1.5a4.44,4.44,0,0,0-3.531,2.66l-7.267,16.959a4.444,4.444,0,0,0,2.335,5.835c2.766,1.185,5.6,2.31,8.428,3.346a4.441,4.441,0,0,0,5.7-2.641l6.36-17.319a4.44,4.44,0,0,0-.716-4.325l.591-1.537c2.14.745,4.312,1.443,6.485,2.086l-.415,1.576a4.422,4.422,0,0,0-3.126,3.1l-6.188,22.172a4.443,4.443,0,0,0,5.055,5.571L169.177,260a4.444,4.444,0,0,0,3.286,5.36,182.286,182.286,0,0,0,19.472,3.551,4.519,4.519,0,0,0,.56.035,4.431,4.431,0,0,0,2.93-1.108q.081.11.17.216a4.415,4.415,0,0,0,3.015,1.577c5.367.479,10.825.722,16.224.722l.786,0a4.444,4.444,0,0,0,4.424-4.463l0-.982a4.446,4.446,0,0,0,3.6-4.477l-.652-25.568c1.105-1.039,2.2-2.1,3.261-3.17a144.434,144.434,0,0,0,14.408-1.885c1.3.76,2.637,1.506,3.976,2.227l.159.659c-1.026.213-2.059.416-3.089.607a4.435,4.435,0,0,0-3.692-1.972,4.5,4.5,0,0,0-.694.054c-2.455.386-4.956.713-7.433.973a4.444,4.444,0,0,0-3.957,4.884l1.929,18.345a4.437,4.437,0,0,0,4.881,3.955c2.943-.308,5.919-.7,8.842-1.156a4.444,4.444,0,0,0,3.7-5.084l-.669-4.23a4.421,4.421,0,0,0-4.194-3.747l-.145-1.075c2.334-.382,4.675-.818,6.989-1.3l2.824,11.738c-1.138,1.294-2.311,2.585-3.5,3.847a173.87,173.87,0,0,1-20.034,2.538,4.444,4.444,0,0,0,.3,8.878c.1,0,.2,0,.3-.01a182.591,182.591,0,0,0,22.525-2.947,4.42,4.42,0,0,0,2.361-1.291c1.215-1.27,2.436-2.591,3.647-3.944a4.441,4.441,0,0,0,5.259,2.663,180.536,180.536,0,0,0,38.468-14.962,4.449,4.449,0,0,0,1.517-1.316,4.456,4.456,0,0,0,1.935-.555,180.856,180.856,0,0,0,17.27-10.934,4.438,4.438,0,0,0,1.85-3.4,4.5,4.5,0,0,0,1.062.128,4.465,4.465,0,0,0,2.724-.933c4.731-3.672,9.343-7.633,13.707-11.773A4.448,4.448,0,0,0,339.641,214.4ZM280.155,230.32c2.453-1.135,4.889-2.341,7.261-3.593a4.427,4.427,0,0,0,1.065-.787l2.374,4.122a4.463,4.463,0,0,0-1.436.468c-2.471,1.3-5.012,2.561-7.571,3.743Zm-71.3,2.644-.083,7.9c-.98.764-1.977,1.519-2.971,2.251a4.444,4.444,0,0,0-.259,6.949c1.014.871,2.056,1.742,3.106,2.6l-.035,3.317a4.447,4.447,0,0,0,2.514,4.05l.006,1.4c-2.43-.052-4.876-.156-7.3-.309l.864-9.621a4.444,4.444,0,0,0-4.031-4.824c-2.722-.243-5.472-.56-8.176-.944a4.441,4.441,0,0,0-5.024,3.773l-.6,4.24a4.449,4.449,0,0,0,1.967,4.347l-.177,1.391c-3.269-.5-6.548-1.1-9.781-1.784l.325-1.353a4.413,4.413,0,0,0,3.391-3.373l4.042-18a4.441,4.441,0,0,0-1.284-4.2l.383-1.594a144.225,144.225,0,0,0,21.528,2.776q.117.006.232.006a4.437,4.437,0,0,0,1.579-.289A4.4,4.4,0,0,0,208.859,232.963Zm-95.111-29.037a4.482,4.482,0,0,0-.171-1.052,4.446,4.446,0,0,0,5.078-5.794l1.066-1.125a143.889,143.889,0,0,0,16.959,12.995c.461,1.489.953,2.988,1.467,4.47l-2.9,5.033c-1.255.165-2.523.314-3.778.442a4.444,4.444,0,0,0-3.695,6.015c.492,1.281,1.009,2.574,1.539,3.852l-2.753,4.782c-1.783.137-3.586.242-5.374.314a173.284,173.284,0,0,1-21.643-16.613l.911-.962a4.425,4.425,0,0,0,1.518.266c.063,0,.127,0,.19,0a4.415,4.415,0,0,0,3.085-1.435l7.332-7.99A4.415,4.415,0,0,0,113.748,203.926ZM308,196.863a4.427,4.427,0,0,0,.826,1.291l5.284,5.758c-.241,1.273-.5,2.552-.774,3.81a4.444,4.444,0,0,0,4.346,5.384c.1,0,.207,0,.313-.011,1.392-.1,2.8-.221,4.208-.363l2.184,2.38a4.415,4.415,0,0,0,3.086,1.435q.094,0,.187,0a4.433,4.433,0,0,0,1.52-.266l.911.962c-2.054,1.851-4.165,3.664-6.3,5.41l-5.912-7.637a4.416,4.416,0,0,0-2.956-1.688,4.444,4.444,0,0,0-3.283.9c-2.256,1.751-4.59,3.463-6.937,5.087a4.45,4.45,0,0,0-1.127,6.179l2.434,3.524a4.414,4.414,0,0,0,2.86,1.847,4.437,4.437,0,0,0,1.65-.012l.789,1.106c-2.908,1.969-5.9,3.862-8.917,5.647l-.664-1.195a4.425,4.425,0,0,0,.253-4.832l-9.208-15.988a4.445,4.445,0,0,0-3.85-2.226l-.781-1.406a143.306,143.306,0,0,0,18.53-13.2A4.412,4.412,0,0,0,308,196.863ZM276.42,216.842a4.482,4.482,0,0,0,.244-.967l2.641,5.005c-1,.49-2.012.971-3.023,1.438a4.446,4.446,0,0,0-4.723-.78c-2.316.991-4.69,1.934-7.056,2.8a4.444,4.444,0,0,0-2.641,5.7l1.477,4.021a4.44,4.44,0,0,0,5.7,2.639c1.194-.438,2.4-.9,3.594-1.369l.392.915c-1.21.478-2.429.942-3.638,1.386a4.444,4.444,0,0,0-2.641,5.7l1.477,4.021a4.44,4.44,0,0,0,5.7,2.64c2.816-1.033,5.641-2.155,8.4-3.335a4.415,4.415,0,0,0,2.377-2.434,4.466,4.466,0,0,0,.317-1.637c1.539-.7,3.076-1.435,4.593-2.185l1.694,3.21a172,172,0,0,1-28.336,11.02l-.359-1.367a4.448,4.448,0,0,0,1.368-4.552l-4.96-17.77a4.43,4.43,0,0,0-3.095-3.091l-.419-1.593a142.943,142.943,0,0,0,18.6-6.942A4.415,4.415,0,0,0,276.42,216.842Z" fill="#1c1b29"/></g><path d="M247.451,162.535h-65.1a11.994,11.994,0,0,1-11.98-11.98,3.782,3.782,0,1,1,7.564,0,4.421,4.421,0,0,0,4.416,4.416h65.1a4.416,4.416,0,1,0,0-8.833h-65.1a3.782,3.782,0,0,1,0-7.564h65.1a11.98,11.98,0,1,1,0,23.961Z" fill="#f0f"/><path d="M182.353,161.211A10.669,10.669,0,0,1,171.7,150.555a2.458,2.458,0,1,1,4.917,0,5.747,5.747,0,0,0,5.74,5.74h65.1a5.74,5.74,0,1,0,0-11.48h-65.1a2.458,2.458,0,0,1,0-4.917h65.1a10.657,10.657,0,0,1,0,21.313Z" fill="#fb7dff"/><path d="M182.353,159.888a9.344,9.344,0,0,1-9.333-9.333,1.135,1.135,0,1,1,2.269,0,7.072,7.072,0,0,0,7.064,7.064h65.1a7.064,7.064,0,0,0,0-14.127h-65.1a1.135,1.135,0,0,1,0-2.269h65.1a9.333,9.333,0,1,1,0,18.666Z" fill="#feeeff"/><path d="M248.822,126.15a3.782,3.782,0,0,0-3.782,3.782,1.078,1.078,0,1,1-2.157,0,3.66,3.66,0,0,1,0-.82,8.642,8.642,0,1,0-17.285,0,3.66,3.66,0,0,1,0,.82,1.078,1.078,0,1,1-2.157,0,3.66,3.66,0,0,1,0-.82,8.642,8.642,0,0,0-17.285,0,3.66,3.66,0,0,1,0,.82,1.078,1.078,0,1,1-2.157,0,3.66,3.66,0,0,1,0-.82,8.642,8.642,0,1,0-17.285,0,3.658,3.658,0,0,1,0,.82,1.078,1.078,0,1,1-2.157,0,3.782,3.782,0,1,0-7.564,0,8.642,8.642,0,1,0,17.285,0,3.658,3.658,0,0,1,0-.82,1.078,1.078,0,1,1,2.157,0,3.658,3.658,0,0,1,0,.82,8.642,8.642,0,1,0,17.285,0,3.66,3.66,0,0,1,0-.82,1.078,1.078,0,0,1,2.157,0,3.66,3.66,0,0,1,0,.82,8.642,8.642,0,1,0,17.285,0,3.658,3.658,0,0,1,0-.82,1.078,1.078,0,1,1,2.157,0,3.658,3.658,0,0,1,0,.82,8.642,8.642,0,1,0,17.285,0A3.782,3.782,0,0,0,248.822,126.15Z" fill="lime"/><path d="M243.961,137.251a7.327,7.327,0,0,1-7.319-7.319,2.5,2.5,0,0,1,.016-.268l.016-.142-.016-.142a2.5,2.5,0,0,1-.016-.268,2.4,2.4,0,1,0-4.8,0,2.467,2.467,0,0,1-.015.268l-.016.142.016.142a2.466,2.466,0,0,1,.015.268,7.319,7.319,0,1,1-14.637,0,2.5,2.5,0,0,1,.016-.268l.016-.142-.016-.142a2.492,2.492,0,0,1-.016-.268,2.4,2.4,0,1,0-4.8,0,2.473,2.473,0,0,1-.016.268l-.016.142.016.142a2.478,2.478,0,0,1,.016.268,7.319,7.319,0,1,1-14.637,0,2.485,2.485,0,0,1,.016-.268l.016-.142-.016-.142a2.476,2.476,0,0,1-.016-.268,2.4,2.4,0,0,0-4.8,0,2.48,2.48,0,0,1-.015.268l-.016.142.016.142a2.486,2.486,0,0,1,.015.268,7.319,7.319,0,1,1-14.637,0,2.458,2.458,0,0,1,4.917,0,2.4,2.4,0,1,0,4.8,0,2.506,2.506,0,0,1,.016-.269l.015-.142-.015-.141a2.506,2.506,0,0,1-.016-.269,7.319,7.319,0,1,1,14.637,0,2.485,2.485,0,0,1-.016.268l-.015.142.015.142a2.485,2.485,0,0,1,.016.268,2.4,2.4,0,0,0,4.8,0,2.485,2.485,0,0,1,.016-.268l.015-.142-.015-.142a2.482,2.482,0,0,1-.016-.268,7.319,7.319,0,1,1,14.637,0,2.458,2.458,0,0,1-.015.268l-.016.142.016.142a2.464,2.464,0,0,1,.015.268,2.4,2.4,0,0,0,4.8,0,2.5,2.5,0,0,1,.016-.268l.016-.142-.016-.142a2.5,2.5,0,0,1-.016-.268,7.319,7.319,0,1,1,14.637,0,2.458,2.458,0,0,1-.015.268l-.016.142.016.142a2.464,2.464,0,0,1,.015.268,2.4,2.4,0,0,0,4.8,0,2.458,2.458,0,1,1,4.917,0A7.327,7.327,0,0,1,243.961,137.251Z" fill="#94ff94"/><path d="M243.961,135.927a6,6,0,0,1-6-5.995,1.224,1.224,0,0,1,.008-.128l.031-.283-.031-.286a1.2,1.2,0,0,1-.008-.124,3.726,3.726,0,1,0-7.451,0,1.2,1.2,0,0,1-.008.126l-.031.284.031.286a1.2,1.2,0,0,1,.008.125,5.995,5.995,0,1,1-11.99,0,1.211,1.211,0,0,1,.008-.127l.031-.283-.031-.286a1.2,1.2,0,0,1-.008-.124,3.726,3.726,0,0,0-7.451,0,1.212,1.212,0,0,1-.008.125l-.031.285.031.285a1.174,1.174,0,0,1,.008.125,5.995,5.995,0,1,1-11.99,0,1.177,1.177,0,0,1,.008-.126l.031-.285-.031-.285a1.164,1.164,0,0,1-.008-.125,3.726,3.726,0,1,0-7.451,0,1.2,1.2,0,0,1-.008.125l-.031.285.031.285a1.166,1.166,0,0,1,.008.125,5.995,5.995,0,0,1-11.99,0,1.135,1.135,0,1,1,2.269,0,3.726,3.726,0,1,0,7.451,0,1.221,1.221,0,0,1,.008-.127l.03-.283-.03-.283a1.2,1.2,0,0,1-.008-.127,5.995,5.995,0,0,1,11.99,0,1.176,1.176,0,0,1-.008.126l-.031.285.031.284a1.2,1.2,0,0,1,.008.126,3.726,3.726,0,1,0,7.451,0,1.186,1.186,0,0,1,.008-.126l.031-.285-.031-.284a1.2,1.2,0,0,1-.008-.126,5.995,5.995,0,0,1,11.99,0,1.2,1.2,0,0,1-.008.126l-.031.284.031.286a1.2,1.2,0,0,1,.008.125,3.726,3.726,0,1,0,7.451,0,1.2,1.2,0,0,1,.008-.127l.031-.283-.031-.286a1.2,1.2,0,0,1-.008-.124,5.995,5.995,0,1,1,11.99,0,1.228,1.228,0,0,1-.008.125l-.031.285.031.286a1.205,1.205,0,0,1,.008.125,3.726,3.726,0,1,0,7.451,0,1.135,1.135,0,1,1,2.269,0A6,6,0,0,1,243.961,135.927Z" fill="#deffde"/><path d="M214.9,186.821q-.185,0-.369-.018c-.1-.01-10.408-1.027-20.579-2.59a145.786,145.786,0,0,1-14.4-2.8,29.9,29.9,0,0,1-5.3-1.832c-2.573-1.253-3.877-2.958-3.877-5.067a11.994,11.994,0,0,1,11.98-11.98h65.1a11.994,11.994,0,0,1,11.98,11.98,3.782,3.782,0,0,1-7.564,0,4.421,4.421,0,0,0-4.416-4.416h-65.1a4.424,4.424,0,0,0-4.17,2.961c1.862.744,6.782,2.21,19.268,4.027,8.069,1.175,15.709,1.973,17.451,2.15,2.643-.269,18.846-1.969,29.641-4.251a3.782,3.782,0,1,1,1.564,7.4c-12.137,2.566-30.078,4.341-30.836,4.416Q215.087,186.821,214.9,186.821Z" fill="#ff0"/><path d="M214.9,185.5c-.079,0-.16,0-.24-.012-.1-.01-10.369-1.023-20.507-2.58a144.625,144.625,0,0,1-14.263-2.771,28.651,28.651,0,0,1-5.063-1.742c-2.108-1.027-3.133-2.295-3.133-3.876a10.669,10.669,0,0,1,10.657-10.657h65.1a10.669,10.669,0,0,1,10.657,10.657,2.458,2.458,0,1,1-4.917,0,5.746,5.746,0,0,0-5.74-5.74h-65.1a5.75,5.75,0,0,0-5.42,3.848l-.418,1.2,1.177.47c2.26.9,7.489,2.35,19.569,4.108,7.966,1.16,15.415,1.944,17.508,2.157l.134.014.134-.014c3.082-.314,19-1.994,29.78-4.273a2.455,2.455,0,0,1,2.914,1.9,2.458,2.458,0,0,1-1.9,2.914c-12.086,2.555-29.937,4.319-30.691,4.393A2.366,2.366,0,0,1,214.9,185.5Z" fill="#fffcbd"/><path d="M214.9,184.174c-.037,0-.075,0-.112-.006-.1-.01-10.264-1.009-20.434-2.571a143.392,143.392,0,0,1-14.125-2.742,27.437,27.437,0,0,1-4.822-1.653c-2.141-1.043-2.389-2.032-2.389-2.686a9.344,9.344,0,0,1,9.333-9.333h65.1a9.344,9.344,0,0,1,9.333,9.333,1.135,1.135,0,0,1-2.269,0,7.072,7.072,0,0,0-7.064-7.064h-65.1a7.075,7.075,0,0,0-6.669,4.734l-.837,2.392,2.353.941c2.327.93,7.662,2.412,19.869,4.189,8,1.164,15.466,1.951,17.565,2.164l.268.027.268-.027c3.093-.315,19.076-2,29.92-4.295a1.151,1.151,0,0,1,.238-.025,1.138,1.138,0,0,1,1.107.9,1.135,1.135,0,0,1-.875,1.345c-12.011,2.539-29.8,4.3-30.546,4.371C214.977,184.172,214.939,184.174,214.9,184.174Z" fill="#fff"/><path d="M247.707,209.068H182.1a12.045,12.045,0,0,1-2.866-23.743,3.782,3.782,0,0,1,1.8,7.348,4.481,4.481,0,0,0,1.07,8.832h65.61a4.482,4.482,0,0,0,1.848-8.564c-11.8,2.983-33.344,5.118-34.284,5.21a3.791,3.791,0,0,1-.738,0c-.576-.057-14.241-1.407-25.83-3.452a3.782,3.782,0,1,1,1.315-7.449c10.27,1.813,22.607,3.1,24.884,3.336,3.015-.307,23.657-2.474,33.778-5.235a3.777,3.777,0,0,1,1.893-.025,12.045,12.045,0,0,1-2.866,23.743Z" fill="#ff9406"/><path d="M182.1,207.744a10.721,10.721,0,0,1-2.552-21.134,2.477,2.477,0,0,1,.586-.071,2.459,2.459,0,0,1,.581,4.847,5.8,5.8,0,0,0,1.384,11.441h65.61a5.806,5.806,0,0,0,2.391-11.1l-.421-.189-.447.113c-11.718,2.963-33.181,5.087-34.089,5.176-.079.008-.16.012-.24.012s-.161,0-.24-.012c-.574-.056-14.2-1.4-25.728-3.439a2.459,2.459,0,0,1,.422-4.88,2.487,2.487,0,0,1,.432.038c10.294,1.817,22.615,3.109,24.98,3.35l.134.014.134-.014c3.905-.4,23.9-2.522,33.992-5.275a2.454,2.454,0,0,1,1.23-.016,10.721,10.721,0,0,1-2.551,21.134H182.1Z" fill="#ffc07b"/><path d="M182.1,206.42a9.4,9.4,0,0,1-2.238-18.524,1.154,1.154,0,0,1,.272-.033,1.131,1.131,0,0,1,1.1.866,1.135,1.135,0,0,1-.833,1.372,7.128,7.128,0,0,0,1.7,14.051h65.61a7.129,7.129,0,0,0,2.934-13.626l-.841-.378-.894.226c-11.615,2.937-32.99,5.053-33.894,5.142-.036,0-.074.005-.111.005s-.075,0-.112-.005c-.572-.056-14.157-1.4-25.627-3.425a1.135,1.135,0,0,1,.192-2.253,1.158,1.158,0,0,1,.2.018c10.339,1.825,22.7,3.122,25.077,3.363l.268.027.268-.027c3.923-.4,24.01-2.534,34.206-5.315a1.131,1.131,0,0,1,.568-.008,9.4,9.4,0,0,1-2.237,18.524H182.1Z" fill="#fff0e1"/><path d="M255.927,120.516H173.671a3.782,3.782,0,0,1-3.782-3.782A44.913,44.913,0,0,1,241.745,80.8a45.278,45.278,0,0,1,16,22.757,3.782,3.782,0,1,1-7.232,2.216,37.354,37.354,0,0,0-72.869,7.176h78.284a3.782,3.782,0,0,1,0,7.564Z" fill="#ff9406"/><path d="M173.671,119.192a2.461,2.461,0,0,1-2.458-2.458A43.589,43.589,0,0,1,240.95,81.861a43.943,43.943,0,0,1,15.529,22.086,2.458,2.458,0,1,1-4.7,1.44,38.678,38.678,0,0,0-75.452,7.43l-.147,1.457h79.748a2.458,2.458,0,0,1,0,4.917H173.671Z" fill="#ffc07b"/><path d="M173.671,117.868a1.136,1.136,0,0,1-1.135-1.135A42.265,42.265,0,0,1,240.155,82.92a42.611,42.611,0,0,1,15.059,21.416,1.134,1.134,0,0,1-.753,1.417,1.13,1.13,0,0,1-1.417-.752,40,40,0,0,0-78.035,7.685l-.295,2.914h81.212a1.135,1.135,0,0,1,0,2.269Z" fill="#fff0e1"/><path d="M128.018,216.163a4.423,4.423,0,0,1-2.529-.79c-2.331-1.613-4.651-3.315-6.894-5.056a4.45,4.45,0,0,1-.789-6.231l2.621-3.386a4.448,4.448,0,0,1,3.515-1.724,4.464,4.464,0,0,1,2.724.933c2.055,1.6,4.18,3.153,6.316,4.632a4.45,4.45,0,0,1,1.127,6.179l-2.434,3.525a4.414,4.414,0,0,1-2.859,1.847A4.488,4.488,0,0,1,128.018,216.163Z" fill="#f0f"/><path d="M126.242,214.284a3.12,3.12,0,0,0,4.344-.793l2.434-3.525a3.12,3.12,0,0,0-.792-4.338c-2.156-1.492-4.3-3.065-6.374-4.675a3.12,3.12,0,0,0-4.381.555l-2.621,3.386a3.12,3.12,0,0,0,.554,4.375C121.63,211,123.93,212.684,126.242,214.284Z" fill="#fb7dff"/><path d="M128.018,213.515A1.789,1.789,0,0,1,127,213.2c-2.292-1.587-4.573-3.259-6.778-4.971a1.8,1.8,0,0,1-.319-2.519l2.621-3.386a1.8,1.8,0,0,1,1.422-.7,1.8,1.8,0,0,1,1.1.377c2.093,1.624,4.257,3.211,6.433,4.717a1.8,1.8,0,0,1,.456,2.5L129.5,212.74a1.783,1.783,0,0,1-1.156.747A1.809,1.809,0,0,1,128.018,213.515Z" fill="#feeeff"/><path d="M119.969,227.819a4.424,4.424,0,0,1-2.529-.79c-2.539-1.758-5.068-3.612-7.516-5.512a4.45,4.45,0,0,1-.789-6.231l2.622-3.387a4.445,4.445,0,0,1,3.514-1.724,4.464,4.464,0,0,1,2.724.933c2.257,1.752,4.591,3.463,6.937,5.087a4.45,4.45,0,0,1,1.127,6.179l-2.434,3.525a4.415,4.415,0,0,1-2.859,1.847A4.486,4.486,0,0,1,119.969,227.819Z" fill="#f0f"/><path d="M114.878,211.524a3.12,3.12,0,0,0-2.075,1.186l-2.622,3.387a3.12,3.12,0,0,0,.554,4.375c2.429,1.885,4.938,3.725,7.458,5.469a3.12,3.12,0,0,0,4.343-.793l2.434-3.525a3.12,3.12,0,0,0-.792-4.338c-2.364-1.637-4.718-3.362-7-5.13A3.118,3.118,0,0,0,114.878,211.524Z" fill="#fb7dff"/><path d="M119.969,225.172a1.79,1.79,0,0,1-1.022-.319c-2.5-1.73-4.989-3.556-7.4-5.426a1.8,1.8,0,0,1-.319-2.519l2.622-3.387a1.784,1.784,0,0,1,1.195-.683,1.8,1.8,0,0,1,1.327.363c2.3,1.781,4.668,3.522,7.054,5.173a1.8,1.8,0,0,1,.456,2.5l-2.434,3.525a1.786,1.786,0,0,1-1.156.747A1.844,1.844,0,0,1,119.969,225.172Z" fill="#feeeff"/><path d="M201.16,242.585c-.134,0-.268-.006-.4-.018-2.705-.242-5.438-.557-8.122-.938a4.444,4.444,0,0,1-3.776-5.027l.6-4.24a4.442,4.442,0,0,1,5.024-3.773c2.461.349,4.965.638,7.444.859a4.444,4.444,0,0,1,4.031,4.824l-.383,4.266A4.42,4.42,0,0,1,201.16,242.585Z" fill="#f0f"/><path d="M201.817,230.768c-2.5-.223-5.028-.515-7.512-.867a3.12,3.12,0,0,0-3.527,2.649l-.6,4.24a3.12,3.12,0,0,0,2.651,3.53c2.663.377,5.373.69,8.055.93.095.009.188.012.281.012a3.121,3.121,0,0,0,3.1-2.841l.383-4.266a3.12,3.12,0,0,0-2.83-3.387Z" fill="#fb7dff"/><path d="M201.16,239.938c-.055,0-.109,0-.163-.007-2.661-.238-5.349-.548-7.988-.922a1.8,1.8,0,0,1-1.526-2.032l.6-4.24a1.8,1.8,0,0,1,1.775-1.543,1.826,1.826,0,0,1,.256.018c2.506.355,5.056.65,7.581.875a1.8,1.8,0,0,1,1.63,1.95l-.383,4.266A1.808,1.808,0,0,1,201.16,239.938Z" fill="#feeeff"/><path d="M301.623,216.162a4.469,4.469,0,0,1-.8-.072,4.414,4.414,0,0,1-2.859-1.847l-2.434-3.524a4.45,4.45,0,0,1,1.127-6.179c2.135-1.477,4.26-3.036,6.316-4.632a4.44,4.44,0,0,1,3.284-.9,4.415,4.415,0,0,1,2.955,1.689l2.621,3.387a4.45,4.45,0,0,1-.789,6.23c-2.243,1.741-4.563,3.442-6.895,5.056A4.422,4.422,0,0,1,301.623,216.162Z" fill="#f0f"/><path d="M303.788,200.954c-2.074,1.61-4.219,3.183-6.374,4.674a3.12,3.12,0,0,0-.792,4.338l2.434,3.525a3.12,3.12,0,0,0,4.343.793c2.313-1.6,4.613-3.287,6.836-5.014a3.12,3.12,0,0,0,.554-4.375l-2.621-3.387a3.12,3.12,0,0,0-4.381-.555Z" fill="#fb7dff"/><path d="M301.623,213.515a1.812,1.812,0,0,1-.322-.029,1.784,1.784,0,0,1-1.156-.746l-2.434-3.525a1.8,1.8,0,0,1,.456-2.5c2.174-1.5,4.338-3.092,6.432-4.717a1.8,1.8,0,0,1,1.1-.377,1.765,1.765,0,0,1,.226.014,1.785,1.785,0,0,1,1.2.683l2.621,3.386a1.8,1.8,0,0,1-.319,2.519c-2.2,1.712-4.486,3.384-6.778,4.971A1.788,1.788,0,0,1,301.623,213.515Z" fill="#feeeff"/><path d="M214.834,267.237c-5.4,0-10.857-.243-16.224-.722a4.415,4.415,0,0,1-3.015-1.577q-.089-.106-.17-.216a4.431,4.431,0,0,1-2.93,1.108,4.483,4.483,0,0,1-.56-.035,182.286,182.286,0,0,1-19.472-3.551,4.444,4.444,0,0,1-3.286-5.36l.314-1.307A4.444,4.444,0,0,1,164.437,250l6.188-22.172a4.422,4.422,0,0,1,3.126-3.1l.415-1.576c-2.173-.643-4.345-1.341-6.485-2.086l-.591,1.537a4.44,4.44,0,0,1,.716,4.325l-6.36,17.319a4.441,4.441,0,0,1-5.7,2.641c-2.827-1.036-5.662-2.162-8.428-3.346a4.444,4.444,0,0,1-2.335-5.835l7.267-16.959a4.44,4.44,0,0,1,3.531-2.66l.616-1.5c-2.121-.949-4.234-1.957-6.306-3.009l-.779,1.424a4.418,4.418,0,0,1,.149,4.414L139.8,237.736c.821,1.569,1.678,3.142,2.553,4.689A172.121,172.121,0,0,0,161.4,249.9a4.444,4.444,0,1,1-2.748,8.452,180.87,180.87,0,0,1-21.359-8.483,4.425,4.425,0,0,1-1.948-1.794c-1.586-2.746-3.108-5.559-4.523-8.362a4.422,4.422,0,0,1-.31-.795,4.421,4.421,0,0,1-.846.162c-3.157.293-6.377.491-9.57.591l-.138,0a4.433,4.433,0,0,1-2.388-.7,182.079,182.079,0,0,1-27.4-21.419A4.45,4.45,0,0,1,90,211.278l6.8-7.172a4.415,4.415,0,0,1,3.107-1.386l.121,0a4.43,4.43,0,0,1,1.449.243l4.56-4.969a4.456,4.456,0,0,1,3.208-1.439,4.452,4.452,0,0,1,.242-5.836l6.8-7.172a4.415,4.415,0,0,1,3.107-1.386l.116,0a4.431,4.431,0,0,1,3.061,1.22,134.778,134.778,0,0,0,20.283,15.855,4.443,4.443,0,0,1,1.873,2.484c.237.8.49,1.619.757,2.454a4.451,4.451,0,0,1,4.949-.455,133.647,133.647,0,0,0,13.429,6.407,4.449,4.449,0,0,1,1.311.831,4.426,4.426,0,0,1,1.527.3,134.23,134.23,0,0,0,14.011,4.507,4.451,4.451,0,0,1,1.318.589c.137-.013.274-.019.412-.019a4.438,4.438,0,0,1,1.031.122,134.95,134.95,0,0,0,24.259,3.51,4.448,4.448,0,0,1,4,5.781,4.4,4.4,0,0,1,1.577-.291h.056a4.429,4.429,0,0,1,2.488.8c1.788-1.644,3.54-3.349,5.213-5.073a4.436,4.436,0,0,1,2.889-1.34,135.236,135.236,0,0,0,16.675-2.182,4.442,4.442,0,0,1,3.137.551q.938.563,1.939,1.138a4.456,4.456,0,0,1,3.263-3.593,133.907,133.907,0,0,0,21.455-7.629,4.434,4.434,0,0,1,4.641.6,18.505,18.505,0,0,1,4.92-5.421,134.017,134.017,0,0,0,20.982-14.457,4.45,4.45,0,0,1,6.961,1.69,4.443,4.443,0,0,1,7.456-1.5l6.777,7.386a4.471,4.471,0,0,1,1.1,3.769q-.034.193-.068.386l.251-.029a4.449,4.449,0,0,1,3.793,1.409l.933,1.016a4.427,4.427,0,0,1,1.45-.243l.12,0a4.417,4.417,0,0,1,3.107,1.386l6.8,7.172a4.449,4.449,0,0,1-.168,6.28c-4.364,4.14-8.976,8.1-13.707,11.773a4.455,4.455,0,0,1-3.786.805,4.44,4.44,0,0,1-1.85,3.4,180.858,180.858,0,0,1-17.27,10.934,4.459,4.459,0,0,1-1.935.555,4.449,4.449,0,0,1-1.517,1.316A180.538,180.538,0,0,1,260.942,261.3a4.441,4.441,0,0,1-5.259-2.663c-1.212,1.353-2.433,2.674-3.647,3.944a4.42,4.42,0,0,1-2.361,1.291,182.6,182.6,0,0,1-22.525,2.947c-.1.007-.2.01-.3.01a4.444,4.444,0,0,1-.3-8.878,173.835,173.835,0,0,0,20.034-2.538c1.186-1.262,2.358-2.553,3.5-3.847l-2.824-11.738c-2.313.485-4.654.922-6.989,1.3l.145,1.075a4.42,4.42,0,0,1,4.194,3.747l.669,4.23a4.444,4.444,0,0,1-3.7,5.084c-2.924.46-5.9.849-8.842,1.156a4.437,4.437,0,0,1-4.881-3.955l-1.929-18.345a4.444,4.444,0,0,1,3.957-4.884c2.478-.259,4.979-.586,7.433-.973a4.5,4.5,0,0,1,.694-.054,4.435,4.435,0,0,1,3.692,1.972c1.03-.191,2.063-.394,3.089-.607l-.159-.659c-1.339-.721-2.672-1.467-3.976-2.227a144.437,144.437,0,0,1-14.408,1.885c-1.062,1.068-2.156,2.131-3.261,3.17l.652,25.568a4.446,4.446,0,0,1-3.6,4.477l0,.982a4.444,4.444,0,0,1-4.424,4.463Zm-11-9.237c2.426.154,4.873.257,7.3.309l-.006-1.4a4.447,4.447,0,0,1-2.514-4.05l.035-3.317c-1.05-.854-2.092-1.725-3.106-2.6a4.444,4.444,0,0,1,.259-6.949c.994-.732,1.991-1.487,2.971-2.251l.083-7.9a4.4,4.4,0,0,1,.208-1.294,4.437,4.437,0,0,1-1.579.289q-.116,0-.232-.006a144.2,144.2,0,0,1-21.528-2.776l-.383,1.594a4.441,4.441,0,0,1,1.284,4.2l-4.041,18a4.413,4.413,0,0,1-3.391,3.373l-.325,1.353c3.233.686,6.512,1.283,9.781,1.784l.177-1.391a4.449,4.449,0,0,1-1.967-4.347l.6-4.24a4.441,4.441,0,0,1,5.024-3.773c2.7.383,5.455.7,8.176.944a4.444,4.444,0,0,1,4.031,4.824Zm59.133-6.479A172.01,172.01,0,0,0,291.3,240.5l-1.694-3.21c-1.517.75-3.054,1.481-4.593,2.185a4.464,4.464,0,0,1-.317,1.637,4.415,4.415,0,0,1-2.377,2.434c-2.756,1.18-5.582,2.3-8.4,3.335a4.44,4.44,0,0,1-5.7-2.64l-1.477-4.021a4.444,4.444,0,0,1,2.641-5.7c1.209-.443,2.428-.908,3.638-1.386l-.392-.915c-1.2.472-2.4.931-3.594,1.369a4.44,4.44,0,0,1-5.7-2.639l-1.477-4.021a4.444,4.444,0,0,1,2.641-5.7c2.366-.868,4.74-1.81,7.056-2.8a4.446,4.446,0,0,1,4.723.78c1.011-.467,2.022-.948,3.023-1.438l-2.641-5.005a4.479,4.479,0,0,1-.244.967,4.415,4.415,0,0,1-2.321,2.486,142.939,142.939,0,0,1-18.6,6.942l.419,1.593a4.43,4.43,0,0,1,3.095,3.091l4.96,17.77a4.448,4.448,0,0,1-1.368,4.552ZM302.4,234.488c3.019-1.785,6.009-3.678,8.917-5.647l-.789-1.106a4.439,4.439,0,0,1-4.51-1.836l-2.434-3.524a4.45,4.45,0,0,1,1.127-6.179c2.347-1.624,4.681-3.336,6.937-5.087a4.444,4.444,0,0,1,3.283-.9,4.416,4.416,0,0,1,2.956,1.688l5.912,7.637c2.134-1.747,4.244-3.56,6.3-5.41l-.911-.962a4.433,4.433,0,0,1-1.52.266q-.094,0-.187,0a4.415,4.415,0,0,1-3.086-1.435l-2.184-2.38c-1.4.142-2.816.264-4.208.363-.106.007-.21.011-.313.011a4.444,4.444,0,0,1-4.346-5.384c.272-1.259.532-2.538.774-3.81l-5.284-5.758a4.42,4.42,0,0,1-.826-1.291,4.416,4.416,0,0,1-1.326,1.9,143.308,143.308,0,0,1-18.53,13.2l.781,1.406a4.445,4.445,0,0,1,3.85,2.226l9.208,15.988a4.425,4.425,0,0,1-.253,4.832Zm-20.548-3.336c2.559-1.182,5.1-2.438,7.571-3.743a4.461,4.461,0,0,1,1.436-.468l-2.374-4.122a4.423,4.423,0,0,1-1.065.787c-2.372,1.252-4.808,2.458-7.261,3.593Zm-182.3-17.025a173.3,173.3,0,0,0,21.643,16.613c1.788-.072,3.591-.178,5.374-.314l2.753-4.782c-.53-1.278-1.046-2.571-1.539-3.852a4.444,4.444,0,0,1,3.695-6.015c1.255-.129,2.523-.277,3.778-.443l2.9-5.033c-.514-1.482-1.006-2.982-1.467-4.47a143.889,143.889,0,0,1-16.959-12.995l-1.066,1.125a4.447,4.447,0,0,1-5.078,5.794,4.47,4.47,0,0,1,.171,1.052,4.415,4.415,0,0,1-1.166,3.2l-7.332,7.99a4.416,4.416,0,0,1-3.085,1.435q-.095,0-.19,0a4.425,4.425,0,0,1-1.518-.266Z" fill="#f0f"/><path d="M338.68,212.189l-6.8-7.172a3.12,3.12,0,0,0-4.023-.432l-1.6-1.745a3.124,3.124,0,0,0-2.663-.989q-1.011.119-2.027.223.2-1.063.386-2.122a3.119,3.119,0,0,0-.775-2.646l-6.778-7.386a3.12,3.12,0,0,0-4.6,4.219l5.732,6.246c-.278,1.5-.58,3.007-.9,4.5a3.12,3.12,0,0,0,3.271,3.772c1.6-.114,3.216-.257,4.828-.428l2.633,2.87a3.12,3.12,0,0,0,4.1.439l2.521,2.661c-2.725,2.494-5.538,4.91-8.407,7.221l-6.741-8.708a3.12,3.12,0,0,0-4.38-.555c-2.277,1.767-4.631,3.493-7,5.13a3.12,3.12,0,0,0-.792,4.338l2.434,3.525a3.12,3.12,0,0,0,3.936,1.031l2.136,2.993c-3.662,2.521-7.438,4.913-11.28,7.142l-1.788-3.219a3.122,3.122,0,0,0,.73-3.974l-9.208-15.988a3.121,3.121,0,0,0-3.434-1.476l-1.833-3.3a141.742,141.742,0,0,0,19.462-13.728,3.12,3.12,0,0,0-4.013-4.779,135.342,135.342,0,0,1-21.19,14.6,2.986,2.986,0,0,1-2.578,1.4,3.12,3.12,0,0,0-1.3,4.216l4.369,8.281q-2.562,1.284-5.178,2.47a3.121,3.121,0,0,0-3.852-1.179c-2.336,1-4.732,1.952-7.121,2.828a3.121,3.121,0,0,0-1.855,4.005l1.477,4.021a3.12,3.12,0,0,0,4,1.853c1.588-.582,3.179-1.2,4.758-1.834l1.435,3.349c-1.636.663-3.287,1.3-4.933,1.9a3.12,3.12,0,0,0-1.855,4.006l1.477,4.021a3.12,3.12,0,0,0,4,1.854c2.794-1.025,5.6-2.138,8.332-3.309a3.12,3.12,0,0,0,1.79-3.661c2.215-1,4.415-2.047,6.584-3.14l2.929,5.551a173.033,173.033,0,0,1-31.074,12.085l-.941-3.577a3.12,3.12,0,0,0,1.61-3.63l-4.96-17.77a3.122,3.122,0,0,0-2.882-2.28l-.966-3.67A141.468,141.468,0,0,0,273.551,215a3.12,3.12,0,1,0-2.585-5.68,135.216,135.216,0,0,1-21.667,7.7,3.12,3.12,0,0,0-2.226,3.812l.243.924c-1.433-.786-2.852-1.6-4.236-2.426a3.121,3.121,0,0,0-2.2-.387,136.521,136.521,0,0,1-16.839,2.2,3.119,3.119,0,0,0-2.029.941c-1.8,1.856-3.692,3.69-5.622,5.451a3.1,3.1,0,0,0-.5.595,3.115,3.115,0,0,0-2.549-1.371H213.3a3.12,3.12,0,0,0-3.119,3.087l-.09,8.538c-1.151.905-2.325,1.8-3.5,2.667a3.12,3.12,0,0,0-.182,4.879c1.167,1,2.364,2,3.574,2.974l-.042,3.956a3.12,3.12,0,0,0,2.51,3.093l.016,3.694c-3.355-.046-6.725-.189-10.072-.427l.985-10.969a3.12,3.12,0,0,0-2.83-3.387c-2.743-.245-5.517-.565-8.245-.952a3.12,3.12,0,0,0-3.527,2.649l-.6,4.24a3.121,3.121,0,0,0,2.088,3.4l-.467,3.664c-4.2-.609-8.39-1.373-12.527-2.284l.863-3.589a3.116,3.116,0,0,0,3.165-2.435l4.042-18a3.12,3.12,0,0,0-1.481-3.384l.886-3.684a142.655,142.655,0,0,0,22.582,3.015,3.12,3.12,0,0,0,.328-6.232,136.275,136.275,0,0,1-24.5-3.544,3.105,3.105,0,0,0-1.484.009,3.118,3.118,0,0,0-1.3-.708,135.548,135.548,0,0,1-14.149-4.551,3.1,3.1,0,0,0-1.591-.171,3.119,3.119,0,0,0-1.275-.966,134.966,134.966,0,0,1-13.563-6.471,3.12,3.12,0,0,0-4.236,1.239l-.517.946c-.562-1.653-1.095-3.315-1.585-4.968a3.12,3.12,0,0,0-1.315-1.744,136.111,136.111,0,0,1-20.483-16.011,3.12,3.12,0,0,0-4.412.118l-6.8,7.172a3.12,3.12,0,0,0,.117,4.41c.578.548,1.175,1.105,1.774,1.656a3.121,3.121,0,0,0,4.736-3.987l2.575-2.718A142.361,142.361,0,0,0,137.8,204.983c.557,1.82,1.157,3.646,1.792,5.454l-3.525,6.123c-1.481.2-2.978.382-4.465.534a3.12,3.12,0,0,0-2.594,4.223c.565,1.471,1.161,2.952,1.776,4.42l-3.427,5.953c-2.167.177-4.357.307-6.54.389A174.414,174.414,0,0,1,97.656,214.2l2.521-2.661a3.12,3.12,0,0,0,4.1-.439l7.332-7.99a3.12,3.12,0,1,0-4.6-4.219l-5.228,5.7a3.12,3.12,0,0,0-4.023.432l-6.8,7.172a3.12,3.12,0,0,0,.118,4.41,180.776,180.776,0,0,0,27.2,21.262,3.121,3.121,0,0,0,1.676.489l.1,0c3.167-.1,6.36-.3,9.488-.585a3.12,3.12,0,0,0,2.416-1.55l1.073-1.864-1,1.9a3.12,3.12,0,0,0-.025,2.863c1.406,2.782,2.916,5.573,4.488,8.3a3.121,3.121,0,0,0,1.368,1.26,179.515,179.515,0,0,0,21.2,8.42,3.12,3.12,0,0,0,1.929-5.935,173.34,173.34,0,0,1-19.579-7.712c-1.073-1.885-2.114-3.8-3.106-5.715l9.986-18.927a3.122,3.122,0,0,0-.557-3.667l1.816-3.319c2.8,1.455,5.668,2.821,8.563,4.085l-1.436,3.5a3.122,3.122,0,0,0-3.208,1.873L146.2,238.235a3.12,3.12,0,0,0,1.64,4.1c2.747,1.176,5.561,2.293,8.363,3.32a3.12,3.12,0,0,0,4-1.854l6.36-17.319a3.12,3.12,0,0,0-1.018-3.542l1.361-3.541c2.918,1.045,5.883,2,8.867,2.852l-.963,3.662a3.122,3.122,0,0,0-2.911,2.281l-6.188,22.172a3.118,3.118,0,0,0,5.941,1.886l-1.189,4.946a3.12,3.12,0,0,0,2.307,3.764,180.986,180.986,0,0,0,19.329,3.525,3.121,3.121,0,0,0,3.487-2.7l1.059-8.317-.75,8.346a3.12,3.12,0,0,0,2.83,3.387c5.332.476,10.747.717,16.106.717l.78,0a3.12,3.12,0,0,0,3.106-3.134l-.01-2.271a3.108,3.108,0,0,0,3.6-3.16l-.667-26.162c1.364-1.272,2.705-2.574,4.006-3.891A142.935,142.935,0,0,0,240.9,225.3c1.6.939,3.232,1.853,4.881,2.731l.616,2.559c-1.8.391-3.615.75-5.43,1.075a3.122,3.122,0,0,0-3.444-2.09c-2.476.39-5,.72-7.5.981a3.12,3.12,0,0,0-2.778,3.429l1.929,18.345a3.119,3.119,0,0,0,3.427,2.777c2.919-.305,5.871-.691,8.774-1.147a3.12,3.12,0,0,0,2.6-3.57l-.669-4.23a3.12,3.12,0,0,0-3.566-2.6l-.463.072-.488-3.609c3.167-.491,6.331-1.081,9.459-1.764l3.286,13.659c-1.387,1.592-2.819,3.17-4.275,4.712a175.057,175.057,0,0,1-20.613,2.638,3.12,3.12,0,0,0,.208,6.233c.071,0,.142,0,.214-.007a181.283,181.283,0,0,0,22.361-2.926,3.12,3.12,0,0,0,1.658-.907c1.786-1.868,3.537-3.793,5.228-5.736l.491,1.865a3.117,3.117,0,0,0,3.809,2.224,179.2,179.2,0,0,0,38.185-14.852,3.1,3.1,0,0,0,1.4-1.507,3.09,3.09,0,0,0,2.027-.35,179.523,179.523,0,0,0,17.143-10.854,3.12,3.12,0,0,0,.724-4.35l-5.741-8.043a3.12,3.12,0,0,0-.885-.833l.341-.254,6.776,8.754a3.12,3.12,0,0,0,4.38.555c4.7-3.645,9.275-7.577,13.608-11.687A3.123,3.123,0,0,0,338.68,212.189ZM137.384,226.1a3.117,3.117,0,0,0-.25-1.39q-.405-.94-.8-1.889,1.076-.142,2.141-.3a3.114,3.114,0,0,0,.96-.31Zm18.047,12.591q-1.13-.439-2.256-.9l4.852-11.322a3.116,3.116,0,0,0,.99-.035,3.124,3.124,0,0,0,.664.679Zm17.835,7.817,3.845-13.776a3.1,3.1,0,0,0,.825-.127,3.118,3.118,0,0,0,.661.5l-2.715,12.093A3.131,3.131,0,0,0,173.267,246.507Zm23.578,4.757a3.1,3.1,0,0,0-.092-.5l.135.015Zm18.207-6.287q-.8-.635-1.6-1.284.859-.669,1.7-1.346a3.118,3.118,0,0,0,.523-.539l.1,3.987A3.118,3.118,0,0,0,215.052,244.977Zm77.363-16.619a3.119,3.119,0,0,0-2.378.222c-2.9,1.53-5.871,2.984-8.872,4.339l-2.736-6.386c2.831-1.281,5.635-2.654,8.369-4.1a3.114,3.114,0,0,0,1.634-2.353l5.15,8.943A3.114,3.114,0,0,0,292.415,228.358Z" fill="#fb7dff"/><path d="M214.834,264.59c-5.32,0-10.7-.24-15.988-.712a1.8,1.8,0,0,1-1.63-1.95l.75-8.346-2.632-.286-1.059,8.317a1.8,1.8,0,0,1-1.779,1.57,1.819,1.819,0,0,1-.229-.015,179.594,179.594,0,0,1-19.187-3.5,1.8,1.8,0,0,1-1.328-2.167l1.189-4.946-2.534-.753a1.795,1.795,0,0,1-3.419-1.086l6.188-22.172a1.789,1.789,0,0,1,1.676-1.314l.989-.03,1.544-5.871-1.246-.356c-2.945-.842-5.9-1.792-8.784-2.825l-1.218-.436-2.178,5.668.778.6a1.8,1.8,0,0,1,.585,2.039l-6.36,17.319a1.793,1.793,0,0,1-2.3,1.067c-2.783-1.02-5.575-2.128-8.3-3.294a1.8,1.8,0,0,1-.944-2.359l7.267-16.959a1.8,1.8,0,0,1,1.848-1.079l.99.108,2.306-5.617-1.187-.518c-2.859-1.248-5.713-2.61-8.483-4.047l-1.149-.6-2.915,5.327.7.7a1.787,1.787,0,0,1,.32,2.111l-10.309,19.539.318.615c1,1.927,2.052,3.865,3.131,5.761l.209.366.382.178a174.772,174.772,0,0,0,19.729,7.771,1.8,1.8,0,1,1-1.111,3.417,178.243,178.243,0,0,1-21.045-8.358,1.79,1.79,0,0,1-.788-.726c-1.561-2.7-3.059-5.472-4.453-8.231a1.8,1.8,0,0,1,.015-1.648l1-1.9-2.318-1.278-1.073,1.864a1.8,1.8,0,0,1-1.391.893c-3.1.288-6.268.483-9.407.58h-.056a1.8,1.8,0,0,1-.965-.281,179.465,179.465,0,0,1-27-21.106,1.8,1.8,0,0,1-.068-2.539l6.8-7.172a1.785,1.785,0,0,1,1.256-.56h.05a1.786,1.786,0,0,1,1.01.313l.946.645,6-6.542a1.8,1.8,0,1,1,2.647,2.429L103.3,210.2a1.785,1.785,0,0,1-1.247.58l-.077,0a1.786,1.786,0,0,1-1.035-.329l-.936-.661-4.236,4.471.994.909A175.953,175.953,0,0,0,120.1,233.19l.351.226.417-.016c2.194-.082,4.414-.214,6.6-.392l.693-.056,4.1-7.123-.254-.6c-.608-1.45-1.2-2.924-1.761-4.383a1.8,1.8,0,0,1,1.494-2.431c1.5-.154,3.016-.335,4.509-.54l.644-.088,4.152-7.212-.2-.573c-.628-1.787-1.225-3.6-1.775-5.4l-.141-.461-.4-.262a141.2,141.2,0,0,1-17.988-13.864l-.959-.871L115.4,193.55l.563.873a1.8,1.8,0,0,1-2.727,2.295c-.6-.549-1.189-1.1-1.758-1.642a1.8,1.8,0,0,1-.068-2.539l6.8-7.172a1.785,1.785,0,0,1,1.256-.56h.045a1.792,1.792,0,0,1,1.239.493,137.444,137.444,0,0,0,20.683,16.167,1.8,1.8,0,0,1,.757,1c.477,1.605,1.015,3.294,1.6,5.018l.969,2.852,1.963-3.588a1.8,1.8,0,0,1,2.439-.713,136.329,136.329,0,0,0,13.7,6.534,1.8,1.8,0,0,1,.734.556l.478.612.768-.119a1.779,1.779,0,0,1,.914.1,136.881,136.881,0,0,0,14.288,4.6,1.805,1.805,0,0,1,.75.408l.525.475.687-.172a1.782,1.782,0,0,1,.854-.005,137.6,137.6,0,0,0,24.735,3.579,1.8,1.8,0,0,1-.095,3.59l-.1,0a141.512,141.512,0,0,1-22.371-2.987l-1.264-.273-1.419,5.9.855.495a1.805,1.805,0,0,1,.617.593,1.784,1.784,0,0,1,.236,1.355l-4.042,18a1.781,1.781,0,0,1-1.744,1.4l-.074,0-1.088-.045-1.433,5.96,1.318.29c4.158.916,8.4,1.69,12.622,2.3l1.333.193.773-6.074-1.025-.347a1.8,1.8,0,0,1-1.2-1.955l.6-4.24a1.792,1.792,0,0,1,2.031-1.525c2.749.39,5.546.713,8.313.96a1.8,1.8,0,0,1,1.629,1.95l-1.106,12.312,1.345.1c3.363.239,6.777.384,10.147.43L213.8,261l-.027-6.122-1.06-.211a1.8,1.8,0,0,1-1.445-1.781l.049-4.6-.5-.4c-1.2-.965-2.389-1.957-3.542-2.948a1.8,1.8,0,0,1,.1-2.809c1.185-.873,2.374-1.779,3.536-2.692l.5-.392.1-9.173a1.8,1.8,0,0,1,1.8-1.778h.02a1.8,1.8,0,0,1,1.468.791l1.114,1.641,1.088-1.659a1.8,1.8,0,0,1,.287-.343c1.949-1.779,3.86-3.632,5.68-5.507a1.792,1.792,0,0,1,1.168-.541,137.84,137.84,0,0,0,17-2.225,1.8,1.8,0,0,1,1.268.223c1.34.8,2.78,1.629,4.281,2.452l2.7,1.481-1.027-3.9a1.8,1.8,0,0,1,1.282-2.195,136.538,136.538,0,0,0,21.88-7.78,1.778,1.778,0,0,1,.742-.162,1.8,1.8,0,0,1,1.637,1.053A1.8,1.8,0,0,1,273,213.8a140.277,140.277,0,0,1-19.473,7.168l-1.246.356,1.545,5.871.979.038a1.791,1.791,0,0,1,1.659,1.313l4.96,17.77a1.8,1.8,0,0,1-.927,2.09l-.962.481,1.557,5.919,1.3-.365A174.573,174.573,0,0,0,293.7,242.261l1.2-.607-4.164-7.892-1.16.585c-2.143,1.08-4.34,2.129-6.532,3.116l-1.021.46.284,1.083a1.808,1.808,0,0,1-.07,1.124,1.785,1.785,0,0,1-.961.984c-2.714,1.162-5.495,2.266-8.267,3.283a1.793,1.793,0,0,1-2.3-1.067l-1.477-4.021a1.809,1.809,0,0,1,.056-1.375A1.784,1.784,0,0,1,270.3,237c1.655-.607,3.329-1.253,4.975-1.919l1.252-.507-2.478-5.782-1.2.486c-1.562.632-3.149,1.244-4.717,1.819a1.792,1.792,0,0,1-2.3-1.067l-1.477-4.021a1.8,1.8,0,0,1,1.068-2.306c2.409-.884,4.827-1.844,7.186-2.854a1.783,1.783,0,0,1,.705-.146,1.811,1.811,0,0,1,1.512.823l.618.963,1.042-.472c1.75-.793,3.508-1.632,5.225-2.492l1.209-.606-5-9.477a1.8,1.8,0,0,1,.751-2.427,1.77,1.77,0,0,1,.835-.207h.722l.41-.607a1.775,1.775,0,0,1,.636-.6,136.65,136.65,0,0,0,21.4-14.743,1.775,1.775,0,0,1,1.154-.421,1.8,1.8,0,0,1,1.157,3.173,140.555,140.555,0,0,1-19.28,13.6l-1.116.654,2.95,5.309.978-.235a1.8,1.8,0,0,1,1.977.85l9.208,15.988a1.788,1.788,0,0,1-.419,2.288l-.859.7,2.982,5.367,1.167-.677c3.86-2.24,7.684-4.662,11.366-7.2l1.109-.763-3.569-5-1.007.491a1.8,1.8,0,0,1-1.112.153,1.782,1.782,0,0,1-1.154-.746l-2.434-3.525a1.8,1.8,0,0,1,.456-2.5c2.386-1.652,4.759-3.392,7.053-5.173a1.8,1.8,0,0,1,1.328-.363,1.784,1.784,0,0,1,1.194.683l7.567,9.775,1.051-.847c2.881-2.321,5.731-4.769,8.47-7.275l.994-.909-4.236-4.47-.936.661a1.813,1.813,0,0,1-1.037.329l-.076,0a1.784,1.784,0,0,1-1.247-.58l-3.085-3.362-.664.07c-1.591.169-3.2.311-4.782.424-.04,0-.083,0-.125,0a1.8,1.8,0,0,1-1.758-2.176c.324-1.5.631-3.025.91-4.536l.12-.65-6.179-6.733a1.8,1.8,0,0,1,1.323-3.011,1.777,1.777,0,0,1,1.324.582l6.778,7.386a1.808,1.808,0,0,1,.446,1.524c-.122.7-.251,1.408-.382,2.1l-.329,1.743,1.764-.18c.681-.069,1.37-.145,2.047-.225a1.8,1.8,0,0,1,1.533.57l2.376,2.589.947-.646a1.788,1.788,0,0,1,1.011-.312h.048a1.785,1.785,0,0,1,1.257.561l6.8,7.172a1.8,1.8,0,0,1-.068,2.539c-4.3,4.08-8.846,7.984-13.509,11.6a1.8,1.8,0,0,1-1.1.377,1.8,1.8,0,0,1-1.421-.7l-7.572-9.782-1.379,1.028-1.562,1.155,1.647,1.031a1.789,1.789,0,0,1,.51.48l5.741,8.043a1.8,1.8,0,0,1-.417,2.5,178.248,178.248,0,0,1-17.016,10.774,1.766,1.766,0,0,1-1.167.2l-1.016-.169-.413.944a1.775,1.775,0,0,1-.8.867,177.877,177.877,0,0,1-37.9,14.742,1.794,1.794,0,0,1-2.193-1.281l-1.127-4.284-1.642,1.887c-1.711,1.966-3.455,3.88-5.186,5.691a1.788,1.788,0,0,1-.955.522,179.963,179.963,0,0,1-22.2,2.9c-.043,0-.084,0-.124,0a1.8,1.8,0,0,1-.118-3.589,176.462,176.462,0,0,0,20.77-2.658l.422-.08.295-.312c1.466-1.553,2.917-3.152,4.311-4.752l.449-.515-3.749-15.584-1.266.276c-3.093.675-6.248,1.264-9.379,1.749l-1.283.2.842,6.232,1.8-.278a1.793,1.793,0,0,1,2.053,1.494l.669,4.23a1.8,1.8,0,0,1-1.5,2.055c-2.879.453-5.808.836-8.706,1.139a1.831,1.831,0,0,1-.194.01,1.789,1.789,0,0,1-1.779-1.609l-1.929-18.345a1.8,1.8,0,0,1,1.6-1.974c2.523-.264,5.07-.6,7.57-.99a1.816,1.816,0,0,1,.282-.022,1.791,1.791,0,0,1,1.7,1.224l.363,1.085,1.126-.2c1.826-.326,3.669-.691,5.479-1.084L248,231.6l-1.071-4.454-.526-.28c-1.629-.867-3.255-1.777-4.832-2.7l-.426-.251-.486.091a141.769,141.769,0,0,1-15.1,1.976l-.493.038-.348.352c-1.284,1.3-2.619,2.6-3.967,3.853l-.436.406.682,26.757a1.8,1.8,0,0,1-1.75,1.841H219.2a1.861,1.861,0,0,1-.288-.024l-1.535-.24.017,3.824a1.8,1.8,0,0,1-1.789,1.8Zm-19.359-13.476a1.79,1.79,0,0,1,.053.285l2.635-.017.16-1.778-1.425-.152-1.931-.213ZM214.622,241a1.793,1.793,0,0,1-.3.311c-.552.443-1.119.892-1.687,1.334l-1.312,1.022,1.29,1.049c.535.435,1.079.871,1.617,1.3a1.8,1.8,0,0,1,.416.471l2.577,4.2-.323-12.665Zm-37.057-9.67a1.793,1.793,0,0,1-.473.074l-.989.015-4.111,14.729,2.353,1.124a1.8,1.8,0,0,1,1.463-.759l1.128.027,3.17-14.117-.862-.482a1.79,1.79,0,0,1-.38-.285l-.554-.543Zm-26.138,7.181,1.251.507c.754.306,1.519.609,2.274.9l1.257.488,5.054-13.763-.787-.591a1.794,1.794,0,0,1-.382-.391l-.5-.694-.837.166a1.8,1.8,0,0,1-.348.034,1.824,1.824,0,0,1-.223-.014l-.988-.123ZM287.12,219.909a1.8,1.8,0,0,1-.94,1.356c-2.7,1.428-5.5,2.794-8.3,4.062l-1.182.535,3.779,8.818,1.23-.555c3.022-1.365,6.031-2.837,8.945-4.375a1.782,1.782,0,0,1,2.04.258l2.034-1.643-7.1-12.325Zm-148.286,1.123a1.785,1.785,0,0,1-.552.179c-.7.1-1.416.2-2.121.3l-1.711.226.662,1.594c.267.643.538,1.284.807,1.906a1.8,1.8,0,0,1,.143.8l2.493.683,4-7.589Z" fill="#feeeff"/></g></g></svg>