<svg xmlns="http://www.w3.org/2000/svg" xmlns:xlink="http://www.w3.org/1999/xlink" width="574" height="370" viewBox="0 0 574 370"><defs><clipPath id="a"><rect width="574" height="370" transform="translate(1222 162)" fill="#fff" stroke="#707070" stroke-width="1"/></clipPath><radialGradient id="b" cx="0.5" cy="0.5" r="0.556" gradientTransform="translate(0.088) scale(0.824 1)" gradientUnits="objectBoundingBox"><stop offset="0" stop-color="#6598c2"/><stop offset="0.502" stop-color="#292d71"/><stop offset="1" stop-color="#161424"/></radialGradient><radialGradient id="c" cx="0.5" cy="0.5" r="0.5" gradientTransform="translate(0)" gradientUnits="objectBoundingBox"><stop offset="0" stop-color="#deffde"/><stop offset="0.998" stop-color="lime" stop-opacity="0"/></radialGradient><radialGradient id="d" cx="0.5" cy="0.5" r="0.5" gradientTransform="translate(0)" gradientUnits="objectBoundingBox"><stop offset="0" stop-color="#feeeff"/><stop offset="0.998" stop-color="#f0f" stop-opacity="0"/></radialGradient><radialGradient id="e" cx="0.5" cy="0.5" r="0.5" xlink:href="#d"/><radialGradient id="f" cx="0.5" cy="0.5" r="0.5" xlink:href="#d"/><radialGradient id="i" cx="0.5" cy="0.5" r="0.5" gradientTransform="translate(0)" gradientUnits="objectBoundingBox"><stop offset="0" stop-color="#fff"/><stop offset="0.998" stop-color="#ff0" stop-opacity="0"/></radialGradient><radialGradient id="j" cx="0.5" cy="0.5" r="0.5" gradientTransform="translate(0)" gradientUnits="objectBoundingBox"><stop offset="0" stop-color="#fff0e1"/><stop offset="1" stop-color="#ff9406" stop-opacity="0"/></radialGradient><radialGradient id="k" cx="0.5" cy="0.5" r="0.5" xlink:href="#j"/></defs><g transform="translate(-1222 -162)" clip-path="url(#a)"><g transform="translate(1222.239 97.967)"><rect width="573.152" height="472.245" fill="url(#b)"/><g transform="translate(76.685 68.491)"><circle cx="85.028" cy="85.028" r="85.028" transform="translate(124.972 19.266)" opacity="0.5" fill="url(#c)"/><circle cx="85.028" cy="85.028" r="85.028" transform="translate(124.972 47.324)" opacity="0.5" fill="url(#d)"/><circle cx="85.028" cy="85.028" r="85.028" transform="translate(0 128.627)" opacity="0.5" fill="url(#e)"/><circle cx="85.028" cy="85.028" r="85.028" transform="translate(90.173 165.206)" opacity="0.5" fill="url(#f)"/><circle cx="85.028" cy="85.028" r="85.028" transform="translate(178.734 160.731)" opacity="0.5" fill="url(#f)"/><circle cx="85.028" cy="85.028" r="85.028" transform="translate(243.504 128.627)" opacity="0.5" fill="url(#e)"/><circle cx="85.028" cy="85.028" r="85.028" transform="translate(124.972 85.029)" opacity="0.5" fill="url(#i)"/><circle cx="85.028" cy="85.028" r="85.028" transform="translate(124.972)" opacity="0.5" fill="url(#j)"/><circle cx="85.028" cy="85.028" r="85.028" transform="translate(124.972 115.45)" opacity="0.5" fill="url(#k)"/><g transform="translate(41.756 31.487)" opacity="0.5"><path d="M216.671,141.695H186.355a5.045,5.045,0,1,0,0,10.091H273.2a5.891,5.891,0,1,1,0,11.783H186.355a5.9,5.9,0,0,1-5.891-5.891,5.045,5.045,0,0,0-10.091,0,16,16,0,0,0,15.982,15.982,16,16,0,0,0-15.982,15.982c0,2.814,1.74,5.087,5.172,6.759a39.894,39.894,0,0,0,7.076,2.443,194.519,194.519,0,0,0,19.211,3.735c13.569,2.084,27.316,3.441,27.453,3.455q.246.024.492.024t.493-.024c1.011-.1,24.944-2.467,41.136-5.89a5.045,5.045,0,1,0-2.087-9.872c-14.4,3.044-36.015,5.312-39.541,5.671-2.324-.236-12.517-1.3-23.281-2.868-16.657-2.425-23.22-4.38-25.7-5.373a5.9,5.9,0,0,1,5.563-3.951H273.2a5.9,5.9,0,0,1,5.891,5.891,5.045,5.045,0,1,0,10.091,0A16,16,0,0,0,273.2,173.659a15.982,15.982,0,1,0,0-31.964H216.671Z" transform="translate(-61.532 -52.648)" fill="#1c1b29"/><path d="M184.693,198.283a5.045,5.045,0,0,0-2.4-9.8,16.068,16.068,0,0,0,3.824,31.674h87.526a16.068,16.068,0,0,0,3.823-31.674,5.036,5.036,0,0,0-2.526.034c-13.5,3.683-41.039,6.574-45.061,6.984-3.037-.309-19.5-2.033-33.2-4.451a5.045,5.045,0,1,0-1.754,9.937c15.459,2.729,33.689,4.53,34.457,4.606a5.062,5.062,0,0,0,.985,0c1.254-.123,30-2.97,45.736-6.95a5.979,5.979,0,0,1-2.466,11.425H186.12a5.977,5.977,0,0,1-1.428-11.782Z" transform="translate(-61.639 -37.069)" fill="#1c1b29"/><path d="M174.935,139.9h27.732a11.545,11.545,0,0,0-10.331,11.467,4.879,4.879,0,0,1,0,1.094,1.438,1.438,0,1,1-2.877,0,5.045,5.045,0,1,0-10.091,0,11.529,11.529,0,1,0,23.058,0,4.877,4.877,0,0,1,0-1.094,1.438,1.438,0,1,1,2.877,0,4.882,4.882,0,0,1,0,1.094,11.529,11.529,0,1,0,23.058,0,4.882,4.882,0,0,1,0-1.094,1.438,1.438,0,0,1,2.877,0,4.882,4.882,0,0,1,0,1.094,11.529,11.529,0,1,0,23.058,0,4.882,4.882,0,0,1,0-1.094,1.438,1.438,0,0,1,2.877,0,4.882,4.882,0,0,1,0,1.094,11.529,11.529,0,1,0,23.058,0,5.045,5.045,0,1,0-10.091,0,1.438,1.438,0,0,1-2.877,0,4.882,4.882,0,0,1,0-1.094A11.545,11.545,0,0,0,256.933,139.9h27.732a5.045,5.045,0,1,0,0-10.091H180.233a49.831,49.831,0,0,1,97.209-9.573,5.045,5.045,0,1,0,9.648-2.956,60.4,60.4,0,0,0-21.344-30.358,59.913,59.913,0,0,0-95.857,47.933A5.045,5.045,0,0,0,174.935,139.9Zm53.667,0a11.545,11.545,0,0,0-10.331,11.467,4.877,4.877,0,0,1,0,1.094,1.438,1.438,0,1,1-2.877,0,4.877,4.877,0,0,1,0-1.094A11.545,11.545,0,0,0,205.063,139.9Zm15.6,11.467a4.882,4.882,0,0,1,0,1.094,1.438,1.438,0,1,1-2.877,0,4.882,4.882,0,0,1,0-1.094A11.545,11.545,0,0,0,231,139.9h23.539A11.545,11.545,0,0,0,244.206,151.367Z" transform="translate(-61.694 -74.945)" fill="#1c1b29"/><path d="M119.168,217.225c2.993,2.323,6.088,4.592,9.2,6.745a5.9,5.9,0,0,0,3.374,1.054,5.976,5.976,0,0,0,1.064-.1,5.889,5.889,0,0,0,3.814-2.464l3.247-4.7a5.937,5.937,0,0,0-1.5-8.243c-2.849-1.972-5.684-4.052-8.426-6.179a5.955,5.955,0,0,0-3.633-1.245,5.934,5.934,0,0,0-4.689,2.3l-3.5,4.518A5.937,5.937,0,0,0,119.168,217.225Z" transform="translate(-79.401 -32.473)" fill="#1c1b29"/><path d="M112.942,215.6l-3.5,4.518a5.936,5.936,0,0,0,1.053,8.313c3.265,2.534,6.639,5.008,10.026,7.353a5.928,5.928,0,0,0,8.252-1.506l3.247-4.7a5.936,5.936,0,0,0-1.5-8.243c-3.13-2.166-6.243-4.45-9.254-6.786a5.925,5.925,0,0,0-4.38-1.2A5.892,5.892,0,0,0,112.942,215.6Z" transform="translate(-82.297 -28.732)" fill="#1c1b29"/><path d="M206.316,232.871c-3.307-.3-6.648-.681-9.931-1.147a5.926,5.926,0,0,0-6.7,5.033l-.806,5.656a5.928,5.928,0,0,0,5.037,6.706c3.581.508,7.226.929,10.835,1.251.176.016.355.024.533.024a5.9,5.9,0,0,0,5.9-5.4l.511-5.691a5.929,5.929,0,0,0-5.378-6.435Z" transform="translate(-55.371 -22.596)" fill="#1c1b29"/><path d="M309.358,202.1a5.955,5.955,0,0,0-3.634,1.245c-2.743,2.129-5.578,4.208-8.425,6.179a5.936,5.936,0,0,0-1.5,8.243l3.246,4.7a5.888,5.888,0,0,0,3.814,2.464,5.962,5.962,0,0,0,1.064.1,5.9,5.9,0,0,0,3.374-1.054c3.111-2.153,6.206-4.423,9.2-6.745a5.936,5.936,0,0,0,1.053-8.311l-3.5-4.518a5.937,5.937,0,0,0-4.689-2.3Z" transform="translate(-19.988 -32.473)" fill="#1c1b29"/><path d="M423.433,224.126l-9.066-9.568a5.891,5.891,0,0,0-4.144-1.848l-.161,0a5.912,5.912,0,0,0-1.935.324l-1.244-1.356a5.936,5.936,0,0,0-5.06-1.879l-.334.039q.046-.258.091-.515a5.964,5.964,0,0,0-1.472-5.028l-9.041-9.853a5.928,5.928,0,0,0-9.947,2,5.931,5.931,0,0,0-9.286-2.255,178.781,178.781,0,0,1-27.991,19.286,5.942,5.942,0,0,0-1.537,1.229,5.925,5.925,0,0,0-5.027,6,5.915,5.915,0,0,0-6.191-.795,178.633,178.633,0,0,1-28.621,10.177,5.944,5.944,0,0,0-4.353,4.793q-1.333-.765-2.587-1.518a5.926,5.926,0,0,0-4.185-.735,180.4,180.4,0,0,1-22.245,2.911,5.918,5.918,0,0,0-3.854,1.787c-2.232,2.3-4.569,4.575-6.954,6.768a5.9,5.9,0,0,0-3.319-1.068h-.074a5.872,5.872,0,0,0-2.1.388,5.933,5.933,0,0,0-5.34-7.712,179.994,179.994,0,0,1-32.362-4.683,5.923,5.923,0,0,0-1.375-.162q-.275,0-.549.026a5.936,5.936,0,0,0-1.758-.786,179.064,179.064,0,0,1-18.691-6.012,5.916,5.916,0,0,0-2.037-.394,5.931,5.931,0,0,0-1.749-1.108,178.3,178.3,0,0,1-17.915-8.547,5.94,5.94,0,0,0-6.6.607c-.356-1.115-.694-2.209-1.01-3.274a5.926,5.926,0,0,0-2.5-3.313A179.79,179.79,0,0,1,133.848,186.9a5.91,5.91,0,0,0-4.083-1.627l-.155,0a5.89,5.89,0,0,0-4.145,1.849L116.4,196.7a5.938,5.938,0,0,0-.322,7.786,5.945,5.945,0,0,0-4.28,1.92l-6.083,6.629a5.9,5.9,0,0,0-1.933-.324l-.162,0a5.891,5.891,0,0,0-4.145,1.848l-9.066,9.568a5.936,5.936,0,0,0,.223,8.379,242.933,242.933,0,0,0,36.554,28.573,5.918,5.918,0,0,0,3.185.929l.184,0c4.259-.132,8.554-.4,12.766-.788a5.936,5.936,0,0,0,1.128-.216,5.9,5.9,0,0,0,.413,1.06c1.888,3.738,3.919,7.491,6.034,11.155a5.9,5.9,0,0,0,2.6,2.393,241.238,241.238,0,0,0,28.493,11.316,5.928,5.928,0,0,0,3.665-11.276,229.606,229.606,0,0,1-25.409-9.972c-1.168-2.063-2.31-4.161-3.406-6.255l12.89-24.431a5.893,5.893,0,0,0-.2-5.888l1.04-1.9c2.765,1.4,5.583,2.747,8.413,4.014l-.822,2a5.923,5.923,0,0,0-4.71,3.548l-9.695,22.624a5.928,5.928,0,0,0,3.116,7.785c3.69,1.58,7.473,3.082,11.244,4.464a5.924,5.924,0,0,0,7.6-3.523l8.484-23.1a5.923,5.923,0,0,0-.955-5.77l.788-2.05c2.855.993,5.752,1.926,8.651,2.783l-.553,2.1a5.9,5.9,0,0,0-4.17,4.135l-8.255,29.578a5.927,5.927,0,0,0,6.743,7.432l-.419,1.744a5.928,5.928,0,0,0,4.384,7.151,243.175,243.175,0,0,0,25.977,4.738,6.025,6.025,0,0,0,.747.047,5.911,5.911,0,0,0,3.908-1.478q.108.147.226.288a5.89,5.89,0,0,0,4.022,2.1c7.159.639,14.441.963,21.643.963l1.048,0a5.928,5.928,0,0,0,5.9-5.954l-.006-1.31a5.931,5.931,0,0,0,4.8-5.972l-.87-34.108c1.474-1.386,2.933-2.8,4.351-4.229a192.672,192.672,0,0,0,19.221-2.515c1.739,1.013,3.518,2.009,5.3,2.97l.212.88c-1.369.284-2.746.555-4.121.81a5.916,5.916,0,0,0-4.926-2.631,6,6,0,0,0-.925.072c-3.274.515-6.611.951-9.916,1.3a5.928,5.928,0,0,0-5.279,6.516l2.573,24.472a5.919,5.919,0,0,0,6.512,5.276c3.927-.41,7.9-.929,11.8-1.542a5.928,5.928,0,0,0,4.935-6.782l-.892-5.643a5.9,5.9,0,0,0-5.6-5l-.194-1.434c3.114-.509,6.237-1.091,9.323-1.738l3.768,15.659c-1.518,1.727-3.083,3.448-4.664,5.133a231.94,231.94,0,0,1-26.726,3.386,5.928,5.928,0,0,0,.4,11.843c.135,0,.271,0,.4-.014a243.58,243.58,0,0,0,30.049-3.932,5.9,5.9,0,0,0,3.15-1.722c1.62-1.695,3.249-3.456,4.866-5.262a5.925,5.925,0,0,0,7.016,3.552,240.841,240.841,0,0,0,51.317-19.96,5.935,5.935,0,0,0,2.023-1.756,5.944,5.944,0,0,0,2.581-.74,241.267,241.267,0,0,0,23.038-14.587,5.921,5.921,0,0,0,2.468-4.53,5.932,5.932,0,0,0,5.05-1.074c6.312-4.9,12.464-10.183,18.286-15.705A5.934,5.934,0,0,0,423.433,224.126Zm-79.356,21.239c3.272-1.514,6.523-3.123,9.686-4.793a5.905,5.905,0,0,0,1.421-1.05l3.167,5.5a5.954,5.954,0,0,0-1.915.624c-3.3,1.74-6.686,3.416-10.1,4.993Zm-95.11,3.527-.111,10.541c-1.308,1.019-2.638,2.026-3.963,3a5.928,5.928,0,0,0-.346,9.27c1.352,1.161,2.743,2.323,4.143,3.462l-.047,4.424A5.932,5.932,0,0,0,252,285l.008,1.871c-3.242-.07-6.505-.208-9.742-.413l1.153-12.834a5.929,5.929,0,0,0-5.377-6.436c-3.631-.324-7.3-.748-10.908-1.259a5.924,5.924,0,0,0-6.7,5.033l-.806,5.657a5.935,5.935,0,0,0,2.624,5.8l-.236,1.855c-4.361-.668-8.735-1.465-13.048-2.379l.434-1.805a5.887,5.887,0,0,0,4.523-4.5l5.391-24.012a5.924,5.924,0,0,0-1.713-5.607l.511-2.126a192.4,192.4,0,0,0,28.718,3.7q.156.008.31.008a5.918,5.918,0,0,0,2.106-.385A5.872,5.872,0,0,0,248.968,248.892ZM122.087,210.155a5.979,5.979,0,0,0-.229-1.4,5.931,5.931,0,0,0,6.774-7.729l1.422-1.5a191.953,191.953,0,0,0,22.624,17.335c.615,1.986,1.272,3.986,1.957,5.964l-3.865,6.715c-1.675.22-3.366.419-5.04.59a5.928,5.928,0,0,0-4.929,8.024c.657,1.709,1.346,3.433,2.053,5.138l-3.672,6.379c-2.379.182-4.783.323-7.169.419a231.163,231.163,0,0,1-28.872-22.162l1.215-1.283a5.9,5.9,0,0,0,2.025.355c.085,0,.169,0,.253-.005a5.89,5.89,0,0,0,4.115-1.915l9.781-10.659A5.89,5.89,0,0,0,122.087,210.155Zm259.141-9.422a5.906,5.906,0,0,0,1.1,1.722l7.049,7.681c-.322,1.7-.669,3.4-1.032,5.083a5.928,5.928,0,0,0,5.8,7.182c.138,0,.276,0,.417-.015,1.857-.132,3.741-.295,5.614-.484l2.913,3.175a5.89,5.89,0,0,0,4.117,1.915q.125.005.25.005a5.913,5.913,0,0,0,2.027-.355l1.216,1.283c-2.74,2.469-5.556,4.887-8.4,7.217l-7.886-10.188a5.89,5.89,0,0,0-3.943-2.253,5.928,5.928,0,0,0-4.379,1.2c-3.01,2.336-6.123,4.62-9.254,6.786a5.936,5.936,0,0,0-1.5,8.243l3.246,4.7a5.889,5.889,0,0,0,3.816,2.464,5.919,5.919,0,0,0,2.2-.015l1.053,1.475c-3.88,2.626-7.868,5.152-11.9,7.533l-.886-1.594a5.9,5.9,0,0,0,.338-6.446l-12.284-21.329a5.93,5.93,0,0,0-5.136-2.97l-1.042-1.876a191.171,191.171,0,0,0,24.72-17.605A5.886,5.886,0,0,0,381.228,200.733ZM339.1,227.385a5.98,5.98,0,0,0,.326-1.289l3.523,6.677c-1.335.654-2.684,1.295-4.033,1.918a5.931,5.931,0,0,0-6.3-1.041c-3.09,1.323-6.257,2.58-9.413,3.738a5.929,5.929,0,0,0-3.523,7.61l1.971,5.365a5.924,5.924,0,0,0,7.606,3.521c1.593-.584,3.2-1.2,4.8-1.826l.523,1.221c-1.614.638-3.24,1.257-4.853,1.848a5.928,5.928,0,0,0-3.524,7.61l1.971,5.363a5.924,5.924,0,0,0,7.606,3.522c3.756-1.378,7.525-2.874,11.2-4.449a5.89,5.89,0,0,0,3.171-3.247,5.957,5.957,0,0,0,.423-2.184c2.053-.939,4.1-1.915,6.127-2.915l2.259,4.282a229.46,229.46,0,0,1-37.8,14.7l-.48-1.823a5.933,5.933,0,0,0,1.824-6.072l-6.616-23.705a5.91,5.91,0,0,0-4.129-4.123l-.559-2.125A190.69,190.69,0,0,0,336,230.7,5.89,5.89,0,0,0,339.1,227.385Z" transform="translate(-88.785 -38.091)" fill="#1c1b29"/></g><g transform="translate(41.756 27.324)"><g transform="translate(108.84 89.046)"><path d="M273.2,170.539H186.354a16,16,0,0,1-15.982-15.982,5.045,5.045,0,1,1,10.091,0,5.9,5.9,0,0,0,5.891,5.891H273.2a5.891,5.891,0,1,0,0-11.783H186.354a5.045,5.045,0,0,1,0-10.091H273.2a15.982,15.982,0,1,1,0,31.964Z" transform="translate(-170.372 -138.574)" fill="#f0f"/><path d="M185.912,168.33A14.232,14.232,0,0,1,171.7,154.114a3.279,3.279,0,1,1,6.559,0,7.666,7.666,0,0,0,7.657,7.657h86.843a7.657,7.657,0,1,0,0-15.315H185.912a3.279,3.279,0,0,1,0-6.559h86.843a14.216,14.216,0,0,1,0,28.433Z" transform="translate(-169.93 -138.132)" fill="#fb7dff"/><path d="M185.47,166.122a12.464,12.464,0,0,1-12.45-12.45,1.514,1.514,0,1,1,3.027,0,9.434,9.434,0,0,0,9.423,9.423h86.843a9.423,9.423,0,1,0,0-18.846H185.47a1.514,1.514,0,1,1,0-3.027h86.843a12.45,12.45,0,1,1,0,24.9Z" transform="translate(-169.488 -137.69)" fill="#feeeff"/></g><path d="M272.813,128.047a5.045,5.045,0,0,0-5.045,5.045,1.438,1.438,0,1,1-2.877,0,4.882,4.882,0,0,1,0-1.094,11.529,11.529,0,1,0-23.058,0,4.887,4.887,0,0,1,0,1.094,1.438,1.438,0,1,1-2.877,0,4.882,4.882,0,0,1,0-1.094,11.529,11.529,0,0,0-23.058,0,4.882,4.882,0,0,1,0,1.094,1.438,1.438,0,1,1-2.877,0,4.882,4.882,0,0,1,0-1.094,11.529,11.529,0,0,0-23.058,0,4.879,4.879,0,0,1,0,1.094,1.438,1.438,0,1,1-2.877,0,5.045,5.045,0,1,0-10.091,0,11.529,11.529,0,1,0,23.058,0,4.877,4.877,0,0,1,0-1.094,1.438,1.438,0,1,1,2.877,0,4.882,4.882,0,0,1,0,1.094,11.529,11.529,0,1,0,23.058,0,4.882,4.882,0,0,1,0-1.094,1.438,1.438,0,0,1,2.877,0,4.882,4.882,0,0,1,0,1.094,11.529,11.529,0,1,0,23.058,0,4.877,4.877,0,0,1,0-1.094,1.438,1.438,0,1,1,2.877,0,4.882,4.882,0,0,1,0,1.094,11.529,11.529,0,1,0,23.058,0A5.046,5.046,0,0,0,272.813,128.047Z" transform="translate(-59.321 -55.575)" fill="lime"/><path d="M265.888,142.414a9.775,9.775,0,0,1-9.764-9.763,3.339,3.339,0,0,1,.021-.357l.021-.19-.021-.19a3.333,3.333,0,0,1-.021-.357,3.2,3.2,0,1,0-6.409,0,3.29,3.29,0,0,1-.02.357l-.021.19.021.19a3.289,3.289,0,0,1,.02.357,9.763,9.763,0,1,1-19.527,0,3.328,3.328,0,0,1,.021-.357l.021-.19-.021-.19a3.321,3.321,0,0,1-.021-.357,3.2,3.2,0,1,0-6.409,0,3.3,3.3,0,0,1-.021.357l-.021.19.021.19a3.311,3.311,0,0,1,.021.357,9.763,9.763,0,1,1-19.527,0,3.314,3.314,0,0,1,.021-.357l.021-.19-.021-.19a3.3,3.3,0,0,1-.021-.357,3.2,3.2,0,0,0-6.409,0,3.31,3.31,0,0,1-.021.357l-.021.19.021.19a3.318,3.318,0,0,1,.021.357,9.763,9.763,0,1,1-19.527,0,3.279,3.279,0,0,1,6.559,0,3.2,3.2,0,1,0,6.409,0,3.343,3.343,0,0,1,.021-.358l.02-.189-.02-.189a3.343,3.343,0,0,1-.021-.358,9.763,9.763,0,1,1,19.527,0,3.314,3.314,0,0,1-.021.357l-.02.19.02.19a3.314,3.314,0,0,1,.021.357,3.2,3.2,0,0,0,6.409,0,3.314,3.314,0,0,1,.021-.357l.02-.19-.02-.19a3.31,3.31,0,0,1-.021-.357,9.763,9.763,0,1,1,19.527,0,3.286,3.286,0,0,1-.02.357l-.021.19.021.19a3.294,3.294,0,0,1,.02.357,3.2,3.2,0,0,0,6.409,0,3.336,3.336,0,0,1,.021-.357l.021-.19-.021-.19a3.327,3.327,0,0,1-.021-.357,9.763,9.763,0,1,1,19.527,0,3.278,3.278,0,0,1-.02.357l-.021.19.021.19a3.286,3.286,0,0,1,.02.357,3.2,3.2,0,0,0,6.409,0,3.279,3.279,0,0,1,6.559,0A9.774,9.774,0,0,1,265.888,142.414Z" transform="translate(-58.879 -55.133)" fill="#94ff94"/><path d="M265.445,140.206a8.007,8.007,0,0,1-8-8,1.639,1.639,0,0,1,.011-.171l.041-.377-.041-.381a1.61,1.61,0,0,1-.01-.166,4.97,4.97,0,1,0-9.94,0,1.606,1.606,0,0,1-.01.168l-.041.379.042.381a1.605,1.605,0,0,1,.01.166,8,8,0,1,1-15.995,0,1.613,1.613,0,0,1,.011-.17l.041-.377-.041-.381a1.6,1.6,0,0,1-.01-.166,4.97,4.97,0,1,0-9.94,0,1.614,1.614,0,0,1-.01.167l-.041.38.041.38a1.565,1.565,0,0,1,.011.167,8,8,0,0,1-15.995,0,1.566,1.566,0,0,1,.011-.168l.041-.38-.041-.38a1.549,1.549,0,0,1-.011-.167,4.97,4.97,0,1,0-9.94,0,1.606,1.606,0,0,1-.01.167l-.041.38.041.38a1.557,1.557,0,0,1,.011.167,8,8,0,0,1-15.995,0,1.514,1.514,0,0,1,3.027,0,4.97,4.97,0,1,0,9.94,0,1.628,1.628,0,0,1,.011-.17l.041-.378-.041-.378a1.607,1.607,0,0,1-.011-.169,8,8,0,0,1,15.995,0,1.572,1.572,0,0,1-.011.168l-.041.38.041.379a1.605,1.605,0,0,1,.011.169,4.97,4.97,0,1,0,9.94,0,1.58,1.58,0,0,1,.011-.168l.041-.38-.041-.379a1.6,1.6,0,0,1-.011-.168,8,8,0,0,1,15.995,0,1.6,1.6,0,0,1-.01.168l-.041.379.041.381a1.611,1.611,0,0,1,.01.166,4.97,4.97,0,1,0,9.94,0,1.6,1.6,0,0,1,.011-.17l.041-.378-.041-.381a1.594,1.594,0,0,1-.01-.166,8,8,0,1,1,15.995,0,1.637,1.637,0,0,1-.01.167l-.041.38.041.381a1.606,1.606,0,0,1,.01.166,4.97,4.97,0,1,0,9.94,0,1.514,1.514,0,0,1,3.027,0A8.006,8.006,0,0,1,265.445,140.206Z" transform="translate(-58.436 -54.691)" fill="#deffde"/><g transform="translate(108.84 121.01)"><path d="M229.776,194.933q-.246,0-.492-.024c-.137-.013-13.884-1.37-27.453-3.455a194.475,194.475,0,0,1-19.211-3.735,39.892,39.892,0,0,1-7.076-2.443c-3.432-1.672-5.172-3.945-5.172-6.759a16,16,0,0,1,15.982-15.982H273.2a16,16,0,0,1,15.982,15.982,5.045,5.045,0,0,1-10.091,0,5.9,5.9,0,0,0-5.891-5.891H186.355a5.9,5.9,0,0,0-5.563,3.951c2.484.993,9.047,2.948,25.7,5.373,10.764,1.567,20.956,2.632,23.281,2.868,3.526-.359,25.142-2.627,39.541-5.671a5.045,5.045,0,1,1,2.087,9.872c-16.191,3.423-40.125,5.791-41.135,5.89Q230.023,194.933,229.776,194.933Z" transform="translate(-170.373 -162.535)" fill="#ff0"/><path d="M229.334,192.725c-.106,0-.213-.005-.32-.016-.136-.013-13.833-1.365-27.357-3.442a192.935,192.935,0,0,1-19.027-3.7,38.22,38.22,0,0,1-6.754-2.324c-2.812-1.37-4.179-3.061-4.179-5.171a14.232,14.232,0,0,1,14.216-14.216h86.843a14.232,14.232,0,0,1,14.216,14.216,3.279,3.279,0,1,1-6.559,0,7.666,7.666,0,0,0-7.657-7.657H185.912a7.671,7.671,0,0,0-7.23,5.133l-.558,1.6,1.57.627c3.015,1.205,9.991,3.134,26.1,5.481,10.627,1.547,20.564,2.594,23.356,2.877l.179.018.179-.018c4.112-.419,25.351-2.661,39.727-5.7a3.274,3.274,0,0,1,3.887,2.53,3.28,3.28,0,0,1-2.53,3.887c-16.123,3.409-39.937,5.762-40.943,5.86A3.159,3.159,0,0,1,229.334,192.725Z" transform="translate(-169.93 -162.093)" fill="#fffcbd"/><path d="M228.892,190.517c-.049,0-.1,0-.15-.008-.134-.013-13.692-1.346-27.259-3.43a191.285,191.285,0,0,1-18.843-3.658,36.6,36.6,0,0,1-6.433-2.2c-2.856-1.391-3.186-2.711-3.186-3.583a12.464,12.464,0,0,1,12.45-12.45h86.843a12.465,12.465,0,0,1,12.45,12.45,1.514,1.514,0,1,1-3.027,0,9.434,9.434,0,0,0-9.423-9.423H185.47a9.438,9.438,0,0,0-8.9,6.316l-1.117,3.191,3.139,1.255c3.1,1.241,10.222,3.217,26.506,5.588,10.668,1.553,20.632,2.6,23.432,2.887l.357.037.358-.037c4.127-.42,25.448-2.671,39.914-5.729a1.535,1.535,0,0,1,.318-.034,1.518,1.518,0,0,1,1.476,1.2,1.514,1.514,0,0,1-1.168,1.794c-16.023,3.388-39.748,5.733-40.75,5.831C228.992,190.514,228.941,190.517,228.892,190.517Z" transform="translate(-169.488 -161.65)" fill="#fff"/></g><g transform="translate(108.413 151.267)"><path d="M273.646,217.035H186.12a16.068,16.068,0,0,1-3.824-31.674,5.045,5.045,0,0,1,2.4,9.8,5.977,5.977,0,0,0,1.428,11.782h87.526a5.979,5.979,0,0,0,2.466-11.425c-15.74,3.979-44.482,6.827-45.736,6.95a5.057,5.057,0,0,1-.985,0c-.768-.075-19-1.877-34.457-4.606a5.045,5.045,0,1,1,1.754-9.937c13.7,2.418,30.159,4.142,33.2,4.451,4.022-.41,31.559-3.3,45.061-6.984a5.039,5.039,0,0,1,2.526-.034,16.068,16.068,0,0,1-3.824,31.674Z" transform="translate(-170.052 -185.215)" fill="#ff9406"/><path d="M185.678,214.827a14.3,14.3,0,0,1-3.4-28.193,3.3,3.3,0,0,1,.782-.095,3.28,3.28,0,0,1,.775,6.466,7.743,7.743,0,0,0,1.847,15.263H273.2a7.745,7.745,0,0,0,3.19-14.8l-.561-.252-.6.151c-15.633,3.953-44.265,6.786-45.476,6.9-.106.01-.214.016-.32.016s-.214-.005-.321-.016c-.765-.075-18.937-1.872-34.322-4.587a3.28,3.28,0,0,1,.562-6.51,3.319,3.319,0,0,1,.577.051c13.732,2.424,30.169,4.148,33.325,4.469l.179.018.179-.018c5.21-.531,31.881-3.364,45.347-7.037a3.273,3.273,0,0,1,1.641-.022,14.3,14.3,0,0,1-3.4,28.193H185.678Z" transform="translate(-169.61 -184.773)" fill="#ffc07b"/><path d="M185.236,212.619a12.536,12.536,0,0,1-2.985-24.712,1.539,1.539,0,0,1,.363-.044,1.508,1.508,0,0,1,1.467,1.155,1.514,1.514,0,0,1-1.111,1.83,9.509,9.509,0,0,0,2.266,18.744h87.525a9.51,9.51,0,0,0,3.914-18.177l-1.122-.5-1.193.3c-15.494,3.917-44.009,6.741-45.215,6.859-.048,0-.1.007-.148.007s-.1,0-.149-.007c-.763-.075-18.885-1.868-34.187-4.569a1.514,1.514,0,0,1,.256-3.005,1.547,1.547,0,0,1,.269.024c13.792,2.434,30.286,4.164,33.453,4.486l.358.037.358-.037c5.233-.533,32.03-3.38,45.632-7.09a1.509,1.509,0,0,1,.757-.01,12.536,12.536,0,0,1-2.984,24.712H185.236Z" transform="translate(-169.168 -184.331)" fill="#fff0e1"/></g><g transform="translate(108.195)"><path d="M284.666,136.78H174.935a5.045,5.045,0,0,1-5.045-5.045A59.915,59.915,0,0,1,265.746,83.8,60.4,60.4,0,0,1,287.09,114.16a5.045,5.045,0,0,1-9.648,2.956,49.831,49.831,0,0,0-97.209,9.573H284.666a5.045,5.045,0,0,1,0,10.091Z" transform="translate(-169.889 -71.824)" fill="#ff9406"/><path d="M174.492,134.572a3.283,3.283,0,0,1-3.279-3.279,58.149,58.149,0,0,1,93.031-46.521,58.621,58.621,0,0,1,20.716,29.464,3.279,3.279,0,1,1-6.271,1.922,51.6,51.6,0,0,0-100.655,9.912l-.2,1.943H284.223a3.279,3.279,0,0,1,0,6.559H174.492Z" transform="translate(-169.447 -71.382)" fill="#ffc07b"/><path d="M174.05,132.364a1.515,1.515,0,0,1-1.514-1.514,56.383,56.383,0,0,1,90.2-45.108,56.844,56.844,0,0,1,20.089,28.569,1.513,1.513,0,0,1-1,1.89,1.508,1.508,0,0,1-1.89-1,53.363,53.363,0,0,0-104.1,10.252l-.393,3.887H283.78a1.514,1.514,0,1,1,0,3.027Z" transform="translate(-169.005 -70.94)" fill="#fff0e1"/></g><g transform="translate(0 147.188)"><path d="M131.739,221.9a5.9,5.9,0,0,1-3.374-1.054c-3.11-2.152-6.2-4.422-9.2-6.745a5.937,5.937,0,0,1-1.053-8.312l3.5-4.518a5.934,5.934,0,0,1,4.689-2.3,5.955,5.955,0,0,1,3.633,1.245c2.742,2.128,5.577,4.207,8.426,6.179a5.937,5.937,0,0,1,1.5,8.243l-3.247,4.7a5.888,5.888,0,0,1-3.814,2.464A5.99,5.99,0,0,1,131.739,221.9Z" transform="translate(-79.401 -176.54)" fill="#f0f"/><path d="M128.929,218.956a4.162,4.162,0,0,0,5.794-1.057l3.247-4.7a4.162,4.162,0,0,0-1.056-5.787c-2.876-1.991-5.737-4.089-8.5-6.236a4.162,4.162,0,0,0-5.844.741l-3.5,4.518a4.163,4.163,0,0,0,.739,5.836C122.776,214.571,125.845,216.821,128.929,218.956Z" transform="translate(-78.96 -176.098)" fill="#fb7dff"/><path d="M130.856,217.488a2.386,2.386,0,0,1-1.364-.426c-3.057-2.117-6.1-4.347-9.043-6.631a2.4,2.4,0,0,1-.426-3.36l3.5-4.518a2.4,2.4,0,0,1,1.9-.93,2.407,2.407,0,0,1,1.468.5c2.792,2.167,5.679,4.284,8.581,6.293a2.4,2.4,0,0,1,.608,3.332l-3.247,4.7a2.379,2.379,0,0,1-1.542,1A2.412,2.412,0,0,1,130.856,217.488Z" transform="translate(-78.518 -175.656)" fill="#feeeff"/><path d="M123.9,233.712a5.9,5.9,0,0,1-3.374-1.054c-3.387-2.345-6.761-4.819-10.026-7.353a5.936,5.936,0,0,1-1.053-8.312l3.5-4.518a5.93,5.93,0,0,1,4.688-2.3,5.956,5.956,0,0,1,3.634,1.245c3.011,2.337,6.125,4.62,9.254,6.786a5.936,5.936,0,0,1,1.5,8.243l-3.247,4.7a5.89,5.89,0,0,1-3.814,2.464A5.986,5.986,0,0,1,123.9,233.712Z" transform="translate(-82.298 -172.799)" fill="#f0f"/><path d="M116.665,211.533a4.162,4.162,0,0,0-2.768,1.582l-3.5,4.518a4.162,4.162,0,0,0,.739,5.836c3.241,2.515,6.588,4.969,9.949,7.3a4.162,4.162,0,0,0,5.794-1.057l3.247-4.7a4.162,4.162,0,0,0-1.056-5.787c-3.154-2.183-6.294-4.486-9.332-6.844A4.16,4.16,0,0,0,116.665,211.533Z" transform="translate(-81.856 -172.357)" fill="#fb7dff"/><path d="M123.014,229.3a2.387,2.387,0,0,1-1.364-.426c-3.335-2.308-6.656-4.744-9.871-7.239a2.4,2.4,0,0,1-.426-3.36l3.5-4.518a2.38,2.38,0,0,1,1.594-.911,2.4,2.4,0,0,1,1.77.484c3.062,2.376,6.228,4.7,9.41,6.9a2.4,2.4,0,0,1,.608,3.332l-3.247,4.7a2.382,2.382,0,0,1-1.542,1A2.46,2.46,0,0,1,123.014,229.3Z" transform="translate(-81.414 -171.914)" fill="#feeeff"/><path d="M205.283,247.275c-.178,0-.357-.008-.533-.024-3.609-.322-7.254-.743-10.835-1.251a5.928,5.928,0,0,1-5.037-6.706l.806-5.656a5.926,5.926,0,0,1,6.7-5.033c3.283.466,6.624.851,9.931,1.147a5.928,5.928,0,0,1,5.378,6.435l-.511,5.691A5.9,5.9,0,0,1,205.283,247.275Z" transform="translate(-55.372 -166.663)" fill="#f0f"/><path d="M205.717,231.068c-3.336-.3-6.708-.687-10.022-1.157a4.162,4.162,0,0,0-4.705,3.534l-.806,5.656a4.163,4.163,0,0,0,3.537,4.709c3.552.5,7.168.921,10.745,1.241.126.011.251.017.375.017a4.163,4.163,0,0,0,4.141-3.79l.511-5.691a4.162,4.162,0,0,0-3.776-4.518Z" transform="translate(-54.929 -166.221)" fill="#fb7dff"/><path d="M204.4,242.859c-.073,0-.146,0-.217-.01-3.55-.317-7.135-.731-10.656-1.23a2.4,2.4,0,0,1-2.036-2.711l.806-5.656a2.406,2.406,0,0,1,2.368-2.059,2.436,2.436,0,0,1,.342.024c3.343.474,6.745.867,10.113,1.168a2.4,2.4,0,0,1,2.174,2.6l-.511,5.691A2.411,2.411,0,0,1,204.4,242.859Z" transform="translate(-54.487 -165.778)" fill="#feeeff"/><path d="M303.92,221.9a5.961,5.961,0,0,1-1.064-.1,5.889,5.889,0,0,1-3.814-2.464l-3.246-4.7a5.936,5.936,0,0,1,1.5-8.243c2.848-1.971,5.682-4.05,8.426-6.179a5.923,5.923,0,0,1,4.381-1.2,5.89,5.89,0,0,1,3.942,2.253l3.5,4.518a5.936,5.936,0,0,1-1.053,8.311c-2.992,2.323-6.087,4.592-9.2,6.745A5.9,5.9,0,0,1,303.92,221.9Z" transform="translate(-19.988 -176.54)" fill="#f0f"/><path d="M306.366,201.173c-2.767,2.148-5.628,4.246-8.5,6.236a4.162,4.162,0,0,0-1.056,5.788l3.247,4.7a4.162,4.162,0,0,0,5.794,1.058c3.085-2.135,6.153-4.385,9.12-6.688a4.163,4.163,0,0,0,.739-5.836l-3.5-4.518a4.162,4.162,0,0,0-5.844-.741Z" transform="translate(-19.547 -176.098)" fill="#fb7dff"/><path d="M303.036,217.487a2.419,2.419,0,0,1-.43-.039,2.38,2.38,0,0,1-1.542-1l-3.247-4.7a2.4,2.4,0,0,1,.608-3.332c2.9-2.007,5.787-4.125,8.581-6.293a2.406,2.406,0,0,1,1.468-.5,2.355,2.355,0,0,1,.3.019,2.381,2.381,0,0,1,1.6.911l3.5,4.518a2.4,2.4,0,0,1-.426,3.36c-2.941,2.283-5.984,4.514-9.042,6.631A2.385,2.385,0,0,1,303.036,217.487Z" transform="translate(-19.104 -175.656)" fill="#feeeff"/><path d="M256.938,295.656c-7.2,0-14.484-.324-21.643-.963a5.89,5.89,0,0,1-4.022-2.1q-.118-.141-.226-.288a5.91,5.91,0,0,1-3.908,1.478,5.984,5.984,0,0,1-.747-.047,243.165,243.165,0,0,1-25.977-4.738,5.928,5.928,0,0,1-4.384-7.151l.419-1.744a5.929,5.929,0,0,1-6.743-7.432l8.255-29.578a5.9,5.9,0,0,1,4.17-4.135l.553-2.1c-2.9-.857-5.8-1.79-8.651-2.783l-.788,2.05a5.923,5.923,0,0,1,.955,5.77l-8.484,23.1a5.924,5.924,0,0,1-7.6,3.523c-3.771-1.382-7.554-2.884-11.244-4.464a5.928,5.928,0,0,1-3.116-7.784l9.695-22.624a5.923,5.923,0,0,1,4.71-3.548l.822-2c-2.829-1.266-5.648-2.611-8.413-4.014l-1.04,1.9a5.894,5.894,0,0,1,.2,5.888L156.837,256.3c1.1,2.094,2.239,4.192,3.406,6.255a229.618,229.618,0,0,0,25.409,9.972,5.928,5.928,0,1,1-3.665,11.276,241.285,241.285,0,0,1-28.493-11.316,5.9,5.9,0,0,1-2.6-2.393c-2.115-3.663-4.146-7.416-6.034-11.155a5.9,5.9,0,0,1-.413-1.06,5.894,5.894,0,0,1-1.128.216c-4.212.391-8.507.655-12.766.788l-.184,0a5.914,5.914,0,0,1-3.185-.929A242.9,242.9,0,0,1,90.63,229.384a5.936,5.936,0,0,1-.223-8.379l9.066-9.568a5.89,5.89,0,0,1,4.145-1.848l.162,0a5.91,5.91,0,0,1,1.933.324l6.083-6.629a5.944,5.944,0,0,1,4.28-1.92,5.939,5.939,0,0,1,.322-7.786l9.066-9.568a5.889,5.889,0,0,1,4.145-1.849l.155,0a5.91,5.91,0,0,1,4.083,1.627,179.8,179.8,0,0,0,27.058,21.151,5.927,5.927,0,0,1,2.5,3.313c.316,1.066.654,2.16,1.01,3.274a5.938,5.938,0,0,1,6.6-.607,178.292,178.292,0,0,0,17.915,8.547,5.935,5.935,0,0,1,1.748,1.108,5.9,5.9,0,0,1,2.037.394,179.062,179.062,0,0,0,18.691,6.012,5.937,5.937,0,0,1,1.758.786c.183-.017.366-.026.549-.026a5.921,5.921,0,0,1,1.375.162,180.029,180.029,0,0,0,32.362,4.683,5.933,5.933,0,0,1,5.34,7.712,5.87,5.87,0,0,1,2.1-.388h.074a5.909,5.909,0,0,1,3.319,1.068c2.385-2.193,4.723-4.467,6.955-6.768a5.918,5.918,0,0,1,3.854-1.787,180.4,180.4,0,0,0,22.245-2.911,5.926,5.926,0,0,1,4.185.735q1.251.75,2.587,1.518a5.944,5.944,0,0,1,4.353-4.793,178.638,178.638,0,0,0,28.621-10.177,5.915,5.915,0,0,1,6.191.795,5.925,5.925,0,0,1,5.027-6,5.942,5.942,0,0,1,1.537-1.229,178.781,178.781,0,0,0,27.991-19.286,5.936,5.936,0,0,1,9.286,2.255,5.928,5.928,0,0,1,9.947-2l9.041,9.853a5.964,5.964,0,0,1,1.472,5.028q-.045.257-.091.515l.335-.039a5.936,5.936,0,0,1,5.06,1.879l1.244,1.356a5.906,5.906,0,0,1,1.935-.324l.161,0a5.893,5.893,0,0,1,4.144,1.848l9.066,9.568a5.936,5.936,0,0,1-.223,8.378c-5.822,5.523-11.974,10.807-18.286,15.705a5.922,5.922,0,0,1-4.38,1.2,6.021,6.021,0,0,1-.67-.124,5.922,5.922,0,0,1-2.468,4.53,241.27,241.27,0,0,1-23.038,14.587,5.948,5.948,0,0,1-2.581.74,5.934,5.934,0,0,1-2.023,1.755,240.84,240.84,0,0,1-51.317,19.96,5.925,5.925,0,0,1-7.016-3.552c-1.616,1.805-3.245,3.567-4.865,5.262a5.9,5.9,0,0,1-3.15,1.722,243.6,243.6,0,0,1-30.049,3.932c-.133.009-.269.014-.4.014a5.928,5.928,0,0,1-.4-11.843,231.911,231.911,0,0,0,26.726-3.386c1.581-1.684,3.146-3.406,4.664-5.133l-3.768-15.659c-3.086.647-6.209,1.229-9.323,1.738l.194,1.434a5.9,5.9,0,0,1,5.6,5l.892,5.643a5.928,5.928,0,0,1-4.935,6.782c-3.9.613-7.869,1.132-11.8,1.542a5.918,5.918,0,0,1-6.512-5.276l-2.573-24.472a5.928,5.928,0,0,1,5.279-6.516c3.305-.346,6.642-.782,9.916-1.3a6,6,0,0,1,.925-.072,5.916,5.916,0,0,1,4.926,2.631c1.374-.255,2.752-.526,4.121-.81l-.212-.88c-1.786-.961-3.565-1.957-5.3-2.97a192.683,192.683,0,0,1-19.221,2.515c-1.417,1.424-2.876,2.843-4.351,4.229l.87,34.108a5.932,5.932,0,0,1-4.8,5.972l.006,1.31a5.928,5.928,0,0,1-5.9,5.954Zm-14.674-12.322c3.237.2,6.5.343,9.742.413L252,281.876a5.932,5.932,0,0,1-3.353-5.4l.047-4.424c-1.4-1.139-2.791-2.3-4.143-3.462a5.928,5.928,0,0,1,.346-9.27c1.325-.977,2.656-1.984,3.963-3l.111-10.541a5.873,5.873,0,0,1,.277-1.726,5.919,5.919,0,0,1-2.106.385q-.154,0-.31-.008a192.364,192.364,0,0,1-28.718-3.7l-.511,2.126a5.924,5.924,0,0,1,1.713,5.607l-5.391,24.012a5.888,5.888,0,0,1-4.523,4.5l-.434,1.805c4.313.914,8.687,1.712,13.048,2.379l.236-1.855a5.935,5.935,0,0,1-2.624-5.8l.806-5.657a5.924,5.924,0,0,1,6.7-5.033c3.607.512,7.277.935,10.908,1.259a5.929,5.929,0,0,1,5.377,6.436Zm78.885-8.644a229.465,229.465,0,0,0,37.8-14.7l-2.259-4.282c-2.023,1-4.074,1.976-6.127,2.915a5.955,5.955,0,0,1-.423,2.184,5.89,5.89,0,0,1-3.17,3.247c-3.677,1.574-7.446,3.071-11.2,4.449a5.924,5.924,0,0,1-7.606-3.522l-1.971-5.363a5.928,5.928,0,0,1,3.524-7.61c1.613-.591,3.239-1.211,4.853-1.848l-.523-1.221c-1.6.63-3.2,1.242-4.8,1.826a5.924,5.924,0,0,1-7.606-3.521l-1.971-5.365a5.929,5.929,0,0,1,3.523-7.61c3.156-1.157,6.323-2.415,9.413-3.738a5.931,5.931,0,0,1,6.3,1.041c1.349-.623,2.7-1.264,4.033-1.918l-3.523-6.677a5.976,5.976,0,0,1-.326,1.289,5.889,5.889,0,0,1-3.1,3.317,190.682,190.682,0,0,1-24.81,9.26l.559,2.125a5.91,5.91,0,0,1,4.129,4.123l6.616,23.705a5.933,5.933,0,0,1-1.824,6.072Zm52.6-22.723c4.028-2.381,8.016-4.907,11.9-7.533l-1.053-1.475a5.922,5.922,0,0,1-6.016-2.449l-3.246-4.7a5.936,5.936,0,0,1,1.5-8.243c3.131-2.167,6.244-4.451,9.254-6.786a5.928,5.928,0,0,1,4.379-1.2,5.89,5.89,0,0,1,3.943,2.252l7.886,10.188c2.847-2.33,5.662-4.749,8.4-7.217l-1.216-1.283a5.914,5.914,0,0,1-2.027.355q-.125,0-.25-.005a5.89,5.89,0,0,1-4.117-1.915l-2.913-3.175c-1.873.189-3.757.352-5.614.484-.142.01-.28.015-.417.015a5.928,5.928,0,0,1-5.8-7.182c.363-1.679.71-3.385,1.032-5.083l-7.049-7.681a5.9,5.9,0,0,1-1.1-1.722,5.892,5.892,0,0,1-1.769,2.535,191.183,191.183,0,0,1-24.72,17.606l1.042,1.876a5.93,5.93,0,0,1,5.136,2.97L373.2,243.928a5.9,5.9,0,0,1-.338,6.446Zm-27.412-4.451c3.413-1.576,6.8-3.252,10.1-4.993a5.952,5.952,0,0,1,1.915-.624l-3.167-5.5a5.9,5.9,0,0,1-1.421,1.05c-3.164,1.67-6.415,3.279-9.686,4.793ZM103.141,224.8a231.192,231.192,0,0,0,28.872,22.162c2.385-.1,4.79-.237,7.169-.42l3.672-6.379c-.707-1.7-1.4-3.43-2.053-5.138a5.928,5.928,0,0,1,4.929-8.024c1.674-.172,3.365-.37,5.04-.59l3.865-6.715c-.685-1.977-1.342-3.977-1.957-5.964A191.953,191.953,0,0,1,130.054,196.4l-1.422,1.5a5.933,5.933,0,0,1-6.774,7.729,5.963,5.963,0,0,1,.229,1.4,5.89,5.89,0,0,1-1.555,4.263l-9.781,10.659a5.891,5.891,0,0,1-4.116,1.915q-.126.005-.253.005a5.9,5.9,0,0,1-2.025-.355Z" transform="translate(-88.785 -182.158)" fill="#f0f"/><path d="M421.71,221.777l-9.066-9.568a4.162,4.162,0,0,0-5.367-.576l-2.136-2.328a4.168,4.168,0,0,0-3.552-1.32q-1.348.159-2.7.3.268-1.418.515-2.83a4.161,4.161,0,0,0-1.034-3.53l-9.042-9.853a4.162,4.162,0,0,0-6.134,5.629l7.647,8.332c-.371,2-.774,4.011-1.2,6A4.162,4.162,0,0,0,394,217.062c2.132-.152,4.291-.343,6.44-.571l3.513,3.829a4.162,4.162,0,0,0,5.467.586l3.364,3.55c-3.636,3.327-7.388,6.551-11.215,9.633l-8.992-11.617a4.163,4.163,0,0,0-5.844-.74c-3.038,2.358-6.177,4.66-9.332,6.844a4.162,4.162,0,0,0-1.056,5.788l3.247,4.7a4.162,4.162,0,0,0,5.25,1.376l2.85,3.993c-4.885,3.364-9.923,6.554-15.047,9.528l-2.386-4.294a4.164,4.164,0,0,0,.974-5.3l-12.283-21.329a4.163,4.163,0,0,0-4.581-1.969l-2.445-4.4a189.086,189.086,0,0,0,25.962-18.314,4.162,4.162,0,1,0-5.354-6.375,180.545,180.545,0,0,1-28.268,19.477,4.141,4.141,0,0,0-1.475,1.383,4.162,4.162,0,0,0-3.7,6.1l5.828,11.047q-3.418,1.712-6.908,3.295a4.164,4.164,0,0,0-5.138-1.573c-3.117,1.334-6.312,2.6-9.5,3.772a4.163,4.163,0,0,0-2.474,5.343l1.971,5.364a4.162,4.162,0,0,0,5.34,2.472c2.118-.776,4.241-1.6,6.348-2.447l1.914,4.468c-2.183.884-4.385,1.733-6.581,2.539a4.163,4.163,0,0,0-2.474,5.344l1.971,5.363a4.162,4.162,0,0,0,5.34,2.473c3.727-1.367,7.467-2.852,11.115-4.414a4.163,4.163,0,0,0,2.388-4.884c2.955-1.331,5.89-2.731,8.783-4.189l3.907,7.405a230.83,230.83,0,0,1-41.454,16.122L318.2,271.67a4.162,4.162,0,0,0,2.148-4.842l-6.616-23.705a4.164,4.164,0,0,0-3.844-3.041l-1.288-4.9a188.726,188.726,0,0,0,26.224-9.653,4.162,4.162,0,1,0-3.449-7.577,180.383,180.383,0,0,1-28.9,10.278,4.163,4.163,0,0,0-2.97,5.086l.324,1.233c-1.912-1.048-3.8-2.128-5.651-3.237a4.163,4.163,0,0,0-2.938-.516,182.123,182.123,0,0,1-22.463,2.939,4.161,4.161,0,0,0-2.706,1.255c-2.4,2.476-4.925,4.923-7.5,7.272a4.14,4.14,0,0,0-.669.793,4.156,4.156,0,0,0-3.4-1.829h-.045a4.163,4.163,0,0,0-4.161,4.119l-.12,11.39c-1.536,1.208-3.1,2.4-4.673,3.557a4.162,4.162,0,0,0-.243,6.509c1.556,1.337,3.154,2.666,4.767,3.967l-.056,5.278a4.162,4.162,0,0,0,3.348,4.126l.022,4.927c-4.476-.061-8.971-.251-13.436-.569l1.314-14.633a4.162,4.162,0,0,0-3.775-4.518c-3.659-.327-7.359-.754-11-1.27a4.162,4.162,0,0,0-4.705,3.534l-.806,5.656a4.163,4.163,0,0,0,2.786,4.53l-.622,4.888c-5.6-.812-11.193-1.832-16.711-3.047l1.151-4.788a4.156,4.156,0,0,0,4.222-3.248l5.391-24.012a4.162,4.162,0,0,0-1.976-4.514l1.182-4.915a190.307,190.307,0,0,0,30.125,4.022,4.163,4.163,0,0,0,.438-8.313,181.793,181.793,0,0,1-32.68-4.728,4.142,4.142,0,0,0-1.98.012,4.159,4.159,0,0,0-1.739-.944,180.829,180.829,0,0,1-18.875-6.071,4.139,4.139,0,0,0-2.123-.229,4.161,4.161,0,0,0-1.7-1.288,180.046,180.046,0,0,1-18.093-8.632,4.162,4.162,0,0,0-5.651,1.653l-.69,1.262c-.749-2.205-1.46-4.422-2.115-6.628a4.162,4.162,0,0,0-1.754-2.326,181.578,181.578,0,0,1-27.325-21.359,4.162,4.162,0,0,0-5.886.157l-9.066,9.568a4.162,4.162,0,0,0,.157,5.883c.771.731,1.567,1.474,2.366,2.209a4.163,4.163,0,0,0,6.318-5.318l3.436-3.626a189.911,189.911,0,0,0,24.222,18.668c.743,2.428,1.544,4.863,2.391,7.275l-4.7,8.168c-1.976.27-3.972.509-5.957.712a4.162,4.162,0,0,0-3.461,5.634c.754,1.962,1.548,3.938,2.37,5.9l-4.571,7.941c-2.89.236-5.813.409-8.725.519a232.672,232.672,0,0,1-30.905-23.854l3.364-3.55a4.162,4.162,0,0,0,5.467-.586l9.781-10.659a4.162,4.162,0,1,0-6.134-5.628l-6.975,7.6a4.163,4.163,0,0,0-5.367.576l-9.066,9.568a4.163,4.163,0,0,0,.157,5.883,241.162,241.162,0,0,0,36.288,28.365,4.163,4.163,0,0,0,2.236.652l.129,0c4.225-.131,8.484-.394,12.658-.781a4.162,4.162,0,0,0,3.223-2.068l1.431-2.486-1.341,2.541A4.163,4.163,0,0,0,146,257.7c1.875,3.711,3.889,7.435,5.987,11.067a4.163,4.163,0,0,0,1.824,1.681,239.479,239.479,0,0,0,28.283,11.233,4.162,4.162,0,0,0,2.573-7.917,231.242,231.242,0,0,1-26.119-10.288c-1.432-2.514-2.82-5.068-4.143-7.624L167.723,230.6a4.164,4.164,0,0,0-.743-4.892l2.423-4.428c3.74,1.941,7.561,3.764,11.423,5.45L178.91,231.4a4.164,4.164,0,0,0-4.28,2.5l-9.695,22.624a4.163,4.163,0,0,0,2.188,5.466c3.665,1.569,7.419,3.059,11.157,4.429a4.162,4.162,0,0,0,5.34-2.474l8.484-23.1a4.162,4.162,0,0,0-1.357-4.724l1.815-4.724c3.892,1.394,7.848,2.667,11.829,3.8l-1.285,4.885a4.165,4.165,0,0,0-3.883,3.043L190.967,272.7a4.16,4.16,0,0,0,7.926,2.516l-1.586,6.6a4.162,4.162,0,0,0,3.078,5.021,241.431,241.431,0,0,0,25.786,4.7,4.163,4.163,0,0,0,4.652-3.6l1.413-11.095-1,11.134a4.162,4.162,0,0,0,3.776,4.518c7.113.635,14.336.956,21.486.956l1.041,0a4.162,4.162,0,0,0,4.144-4.181l-.013-3.029a4.147,4.147,0,0,0,4.806-4.215l-.89-34.9c1.82-1.7,3.609-3.434,5.345-5.191a190.676,190.676,0,0,0,20.338-2.661c2.133,1.253,4.312,2.473,6.511,3.643l.821,3.413c-2.4.522-4.823,1-7.244,1.434a4.165,4.165,0,0,0-4.594-2.788c-3.3.52-6.67.96-10.007,1.309a4.162,4.162,0,0,0-3.707,4.575l2.573,24.473a4.161,4.161,0,0,0,4.572,3.7c3.895-.407,7.833-.922,11.7-1.531a4.163,4.163,0,0,0,3.465-4.762l-.892-5.643a4.162,4.162,0,0,0-4.758-3.462l-.617.1-.651-4.815c4.225-.655,8.445-1.441,12.618-2.353l4.384,18.222c-1.851,2.124-3.761,4.229-5.7,6.287a233.53,233.53,0,0,1-27.5,3.519,4.162,4.162,0,0,0,.277,8.315c.095,0,.19,0,.286-.01a241.844,241.844,0,0,0,29.83-3.9,4.162,4.162,0,0,0,2.212-1.209c2.382-2.491,4.718-5.06,6.974-7.652l.655,2.488a4.158,4.158,0,0,0,5.081,2.967,239.057,239.057,0,0,0,50.94-19.813,4.141,4.141,0,0,0,1.866-2.01,4.122,4.122,0,0,0,2.7-.467,239.488,239.488,0,0,0,22.869-14.479,4.162,4.162,0,0,0,.965-5.8l-7.659-10.73a4.162,4.162,0,0,0-1.181-1.111l.455-.338,9.04,11.678a4.162,4.162,0,0,0,5.844.741c6.265-4.862,12.373-10.108,18.153-15.591A4.166,4.166,0,0,0,421.71,221.777ZM153.176,240.335a4.159,4.159,0,0,0-.333-1.854q-.541-1.254-1.067-2.52,1.435-.19,2.856-.4a4.155,4.155,0,0,0,1.281-.413Zm24.076,16.8q-1.508-.586-3.009-1.194l6.472-15.1a4.158,4.158,0,0,0,1.321-.047,4.168,4.168,0,0,0,.885.906Zm23.793,10.428,5.129-18.378a4.131,4.131,0,0,0,1.1-.169,4.159,4.159,0,0,0,.881.661l-3.622,16.133A4.177,4.177,0,0,0,201.044,267.56ZM232.5,273.9a4.131,4.131,0,0,0-.123-.661l.18.02Zm24.289-8.388q-1.072-.847-2.138-1.713,1.146-.893,2.27-1.8a4.16,4.16,0,0,0,.7-.72l.136,5.318A4.159,4.159,0,0,0,256.787,265.517Zm103.2-22.17a4.161,4.161,0,0,0-3.173.3c-3.865,2.041-7.832,3.981-11.835,5.788l-3.65-8.519c3.777-1.709,7.518-3.541,11.164-5.466a4.154,4.154,0,0,0,2.18-3.139l6.871,11.93A4.154,4.154,0,0,0,359.991,243.347Z" transform="translate(-88.344 -181.715)" fill="#fb7dff"/><path d="M256.054,291.241c-7.1,0-14.274-.32-21.329-.95a2.4,2.4,0,0,1-2.174-2.6l1-11.134-3.511-.381-1.413,11.095a2.4,2.4,0,0,1-2.374,2.094,2.426,2.426,0,0,1-.305-.019,239.591,239.591,0,0,1-25.6-4.668,2.4,2.4,0,0,1-1.772-2.891l1.586-6.6-3.381-1a2.394,2.394,0,0,1-4.561-1.449l8.255-29.578a2.386,2.386,0,0,1,2.236-1.752l1.319-.04,2.06-7.833-1.662-.475c-3.929-1.123-7.872-2.391-11.718-3.769l-1.625-.582-2.905,7.561,1.038.8a2.4,2.4,0,0,1,.781,2.72l-8.484,23.1a2.392,2.392,0,0,1-3.074,1.424c-3.713-1.361-7.437-2.839-11.069-4.394a2.4,2.4,0,0,1-1.26-3.147l9.695-22.624a2.4,2.4,0,0,1,2.465-1.439l1.321.144,3.077-7.493-1.583-.691c-3.814-1.665-7.621-3.482-11.316-5.4l-1.533-.8-3.888,7.107.94.936a2.384,2.384,0,0,1,.427,2.817L151.966,255.4l.425.82c1.332,2.571,2.737,5.157,4.177,7.685l.279.489.51.238A233.146,233.146,0,0,0,183.676,275a2.4,2.4,0,1,1-1.482,4.558,237.784,237.784,0,0,1-28.074-11.15,2.388,2.388,0,0,1-1.051-.968c-2.082-3.606-4.081-7.3-5.94-10.98a2.4,2.4,0,0,1,.019-2.2l1.341-2.541-3.092-1.705-1.431,2.486a2.4,2.4,0,0,1-1.856,1.191c-4.14.384-8.362.644-12.55.774h-.075a2.394,2.394,0,0,1-1.288-.375,239.412,239.412,0,0,1-36.021-28.157,2.4,2.4,0,0,1-.09-3.388l9.066-9.568a2.382,2.382,0,0,1,1.676-.747h.067a2.383,2.383,0,0,1,1.347.417l1.263.861,8.008-8.727a2.4,2.4,0,1,1,3.531,3.24l-9.781,10.66a2.381,2.381,0,0,1-1.664.774l-.1,0a2.383,2.383,0,0,1-1.381-.439l-1.249-.882L97.217,224.1l1.325,1.213a234.723,234.723,0,0,0,31.14,24.035l.468.3.556-.021c2.927-.11,5.888-.286,8.8-.523l.925-.075,5.47-9.5-.338-.806c-.811-1.934-1.6-3.9-2.35-5.847a2.4,2.4,0,0,1,1.992-3.244c2-.205,4.023-.447,6.016-.72l.859-.118,5.539-9.621-.268-.764c-.838-2.384-1.634-4.809-2.369-7.207l-.188-.615-.539-.35a188.361,188.361,0,0,1-24-18.495l-1.28-1.161-5.578,5.887.752,1.165a2.4,2.4,0,0,1-3.638,3.061c-.8-.733-1.586-1.47-2.346-2.191a2.4,2.4,0,0,1-.09-3.387l9.066-9.568a2.381,2.381,0,0,1,1.676-.747h.06a2.391,2.391,0,0,1,1.653.658,183.354,183.354,0,0,0,27.591,21.567,2.394,2.394,0,0,1,1.01,1.339c.636,2.142,1.354,4.394,2.136,6.694l1.293,3.8,2.619-4.787a2.4,2.4,0,0,1,3.254-.952,181.867,181.867,0,0,0,18.271,8.717,2.4,2.4,0,0,1,.979.742l.638.816,1.024-.159a2.374,2.374,0,0,1,1.22.133,182.6,182.6,0,0,0,19.06,6.131,2.408,2.408,0,0,1,1,.544l.7.634.916-.23a2.377,2.377,0,0,1,1.139-.007,183.563,183.563,0,0,0,33,4.774,2.4,2.4,0,0,1-.126,4.79c-.042,0-.085,0-.128,0a188.783,188.783,0,0,1-29.843-3.985l-1.687-.365-1.893,7.874,1.14.66a2.408,2.408,0,0,1,.824.791,2.38,2.38,0,0,1,.314,1.808l-5.392,24.013a2.377,2.377,0,0,1-2.327,1.872l-.1,0-1.451-.06-1.911,7.95,1.758.387c5.546,1.222,11.211,2.255,16.838,3.071l1.778.258,1.032-8.1-1.368-.463a2.4,2.4,0,0,1-1.6-2.608l.807-5.656a2.391,2.391,0,0,1,2.709-2.035c3.667.52,7.4.951,11.09,1.281a2.4,2.4,0,0,1,2.174,2.6l-1.475,16.425,1.794.128c4.487.319,9.041.512,13.537.573l1.8.025-.036-8.167L253.218,278a2.4,2.4,0,0,1-1.928-2.376l.065-6.134-.667-.537c-1.6-1.288-3.186-2.61-4.725-3.932a2.4,2.4,0,0,1,.14-3.747c1.58-1.164,3.168-2.373,4.717-3.591l.665-.523.129-12.237a2.4,2.4,0,0,1,2.4-2.371h.026a2.4,2.4,0,0,1,1.958,1.055l1.486,2.19,1.452-2.213a2.4,2.4,0,0,1,.383-.457c2.6-2.373,5.15-4.845,7.577-7.347a2.391,2.391,0,0,1,1.558-.722,183.882,183.882,0,0,0,22.682-2.968,2.4,2.4,0,0,1,1.691.3c1.788,1.072,3.709,2.173,5.711,3.271l3.6,1.976-1.37-5.206a2.4,2.4,0,0,1,1.71-2.928,182.146,182.146,0,0,0,29.188-10.379,2.372,2.372,0,0,1,.99-.216,2.4,2.4,0,0,1,2.184,1.4,2.4,2.4,0,0,1-1.188,3.174,187.131,187.131,0,0,1-25.978,9.562l-1.662.476,2.061,7.832,1.306.051a2.389,2.389,0,0,1,2.213,1.751l6.616,23.705a2.4,2.4,0,0,1-1.237,2.788l-1.283.642,2.078,7.9,1.729-.487a232.886,232.886,0,0,0,41.771-16.246l1.6-.81-5.555-10.528-1.548.78c-2.858,1.441-5.79,2.84-8.714,4.157l-1.362.614.379,1.445a2.413,2.413,0,0,1-.093,1.5,2.381,2.381,0,0,1-1.282,1.312c-3.62,1.55-7.33,3.023-11.028,4.379a2.391,2.391,0,0,1-3.075-1.424l-1.971-5.363a2.414,2.414,0,0,1,.075-1.834,2.38,2.38,0,0,1,1.35-1.243c2.208-.81,4.441-1.671,6.636-2.56l1.67-.676-3.305-7.714-1.6.649c-2.084.843-4.2,1.659-6.293,2.426a2.391,2.391,0,0,1-3.075-1.423l-1.971-5.364a2.4,2.4,0,0,1,1.425-3.076c3.214-1.179,6.439-2.46,9.586-3.807a2.379,2.379,0,0,1,.941-.194,2.416,2.416,0,0,1,2.017,1.1l.825,1.284,1.39-.63c2.335-1.059,4.68-2.177,6.97-3.325l1.612-.808L340.2,217.675a2.4,2.4,0,0,1,1-3.238,2.361,2.361,0,0,1,1.114-.276h.963l.546-.81a2.367,2.367,0,0,1,.849-.8,182.3,182.3,0,0,0,28.546-19.668,2.368,2.368,0,0,1,1.539-.562,2.4,2.4,0,0,1,1.543,4.232A187.5,187.5,0,0,1,350.584,214.7l-1.489.873,3.936,7.083,1.3-.313a2.4,2.4,0,0,1,2.638,1.134L369.256,244.8a2.385,2.385,0,0,1-.559,3.052l-1.146.934,3.978,7.16,1.556-.9c5.149-2.989,10.251-6.219,15.162-9.6l1.479-1.018-4.761-6.67-1.343.655a2.405,2.405,0,0,1-1.483.2,2.378,2.378,0,0,1-1.54-1l-3.247-4.7a2.4,2.4,0,0,1,.608-3.332c3.183-2.2,6.349-4.525,9.409-6.9a2.4,2.4,0,0,1,1.771-.484,2.38,2.38,0,0,1,1.593.911l10.094,13.04,1.4-1.13c3.844-3.1,7.646-6.362,11.3-9.705l1.326-1.213L409.2,218.14l-1.249.881a2.419,2.419,0,0,1-1.383.438l-.1,0a2.38,2.38,0,0,1-1.663-.774l-4.115-4.485-.885.094c-2.123.225-4.269.415-6.38.565-.054,0-.11.006-.166.006a2.4,2.4,0,0,1-2.345-2.9c.433-2,.841-4.035,1.215-6.051l.161-.867-8.243-8.982a2.4,2.4,0,0,1,1.765-4.017,2.371,2.371,0,0,1,1.766.776l9.042,9.853a2.412,2.412,0,0,1,.6,2.033c-.163.934-.335,1.878-.51,2.806l-.439,2.325,2.353-.24c.908-.093,1.827-.193,2.731-.3a2.406,2.406,0,0,1,2.045.76l3.169,3.454,1.263-.862a2.385,2.385,0,0,1,1.349-.417h.065a2.381,2.381,0,0,1,1.677.748l9.066,9.568a2.4,2.4,0,0,1-.09,3.387c-5.738,5.443-11.8,10.65-18.021,15.477a2.407,2.407,0,0,1-1.468.5,2.4,2.4,0,0,1-1.9-.93l-10.1-13.05-1.84,1.371-2.084,1.541,2.2,1.375a2.387,2.387,0,0,1,.68.64l7.659,10.73a2.4,2.4,0,0,1-.556,3.341,237.785,237.785,0,0,1-22.7,14.372,2.356,2.356,0,0,1-1.557.268l-1.356-.225-.551,1.259a2.367,2.367,0,0,1-1.073,1.157,237.293,237.293,0,0,1-50.564,19.667,2.393,2.393,0,0,1-2.925-1.708l-1.5-5.714-2.191,2.517c-2.282,2.623-4.61,5.177-6.918,7.591a2.386,2.386,0,0,1-1.274.7,240.079,240.079,0,0,1-29.611,3.874c-.058,0-.112.006-.166.006a2.4,2.4,0,0,1-.158-4.788,235.4,235.4,0,0,0,27.707-3.546l.563-.106.393-.416c1.956-2.072,3.891-4.2,5.751-6.339l.6-.687-5-20.789-1.689.369c-4.126.9-8.335,1.686-12.512,2.333l-1.711.265,1.124,8.314,2.4-.371a2.391,2.391,0,0,1,2.739,1.994l.892,5.643a2.4,2.4,0,0,1-1.995,2.742c-3.84.6-7.748,1.115-11.614,1.519a2.444,2.444,0,0,1-.259.014,2.386,2.386,0,0,1-2.374-2.147l-2.573-24.473a2.4,2.4,0,0,1,2.134-2.634c3.366-.352,6.764-.8,10.1-1.321a2.422,2.422,0,0,1,.376-.029,2.389,2.389,0,0,1,2.268,1.633l.484,1.447,1.5-.268c2.436-.435,4.895-.922,7.309-1.446l1.764-.383-1.429-5.941-.7-.373c-2.173-1.157-4.342-2.37-6.446-3.607l-.569-.334-.649.121a189.127,189.127,0,0,1-20.149,2.636l-.658.05-.464.469c-1.713,1.734-3.494,3.464-5.292,5.14l-.582.542.91,35.695a2.4,2.4,0,0,1-2.334,2.457h-.049a2.482,2.482,0,0,1-.384-.032l-2.047-.32.022,5.1a2.4,2.4,0,0,1-2.386,2.407Q256.571,291.241,256.054,291.241Zm-25.825-17.977a2.385,2.385,0,0,1,.071.38l3.515-.022.213-2.372-1.9-.2-2.576-.285Zm25.542-13.488a2.393,2.393,0,0,1-.4.414c-.736.591-1.493,1.19-2.25,1.78l-1.75,1.364,1.721,1.4c.714.58,1.439,1.162,2.157,1.729a2.4,2.4,0,0,1,.556.628l3.437,5.6-.431-16.9Zm-49.435-12.9a2.392,2.392,0,0,1-.631.1l-1.319.02L198.9,266.643l3.139,1.5a2.4,2.4,0,0,1,1.951-1.013l1.505.036,4.229-18.832-1.15-.643a2.389,2.389,0,0,1-.507-.381l-.739-.724Zm-34.868,9.579,1.669.677c1.006.408,2.026.813,3.033,1.2l1.677.651,6.742-18.361-1.049-.788a2.393,2.393,0,0,1-.51-.522l-.662-.926-1.117.221a2.4,2.4,0,0,1-.464.046,2.438,2.438,0,0,1-.3-.018l-1.318-.164Zm181.017-24.82a2.4,2.4,0,0,1-1.254,1.809c-3.607,1.9-7.331,3.728-11.067,5.419l-1.577.713,5.041,11.764,1.641-.741c4.031-1.82,8.046-3.784,11.933-5.836a2.378,2.378,0,0,1,2.722.344l2.714-2.192-9.469-16.441Zm-197.817,1.5a2.382,2.382,0,0,1-.737.238c-.936.139-1.888.272-2.829.4l-2.282.3.883,2.126c.356.857.718,1.713,1.076,2.543a2.406,2.406,0,0,1,.191,1.067l3.326.911,5.342-10.125Z" transform="translate(-87.901 -181.274)" fill="#feeeff"/></g></g></g></g></g></svg>