<?xml version="1.0" encoding="utf-8"?>
<!-- Generator: Adobe Illustrator 17.0.0, SVG Export Plug-In . SVG Version: 6.00 Build 0)  -->
<!DOCTYPE svg PUBLIC "-//W3C//DTD SVG 1.1//EN" "http://www.w3.org/Graphics/SVG/1.1/DTD/svg11.dtd">
<svg version="1.1" id="Capa_1" xmlns="http://www.w3.org/2000/svg" xmlns:xlink="http://www.w3.org/1999/xlink" x="0px" y="0px"
	 width="2272px" height="1872px" viewBox="0 0 2272 1872" enable-background="new 0 0 2272 1872" xml:space="preserve">
<radialGradient id="SVGID_1_" cx="1136" cy="936" r="1040.8151" gradientUnits="userSpaceOnUse">
	<stop  offset="0" style="stop-color:#6598C2"/>
	<stop  offset="0.5025" style="stop-color:#292D71"/>
	<stop  offset="1" style="stop-color:#161424"/>
</radialGradient>
<rect fill="url(#SVGID_1_)" width="2272" height="1872"/>
<g>
	<g>
		<radialGradient id="SVGID_2_" cx="1136.4319" cy="684.9288" r="337.0565" gradientUnits="userSpaceOnUse">
			<stop  offset="0" style="stop-color:#DEFFDE"/>
			<stop  offset="0.9975" style="stop-color:#00FF00;stop-opacity:0"/>
		</radialGradient>
		<circle opacity="0.5" fill="url(#SVGID_2_)" cx="1136.432" cy="684.929" r="337.056"/>
		<radialGradient id="SVGID_3_" cx="1136.4319" cy="796.1539" r="337.0565" gradientUnits="userSpaceOnUse">
			<stop  offset="0" style="stop-color:#FEEEFF"/>
			<stop  offset="0.9975" style="stop-color:#FF00FF;stop-opacity:0"/>
		</radialGradient>
		<circle opacity="0.5" fill="url(#SVGID_3_)" cx="1136.432" cy="796.154" r="337.056"/>
		<radialGradient id="SVGID_4_" cx="641.0389" cy="1118.4388" r="337.0565" gradientUnits="userSpaceOnUse">
			<stop  offset="0" style="stop-color:#FEEEFF"/>
			<stop  offset="0.9975" style="stop-color:#FF00FF;stop-opacity:0"/>
		</radialGradient>
		<circle opacity="0.5" fill="url(#SVGID_4_)" cx="641.039" cy="1118.439" r="337.056"/>
		<radialGradient id="SVGID_5_" cx="998.4897" cy="1263.4417" r="337.0565" gradientUnits="userSpaceOnUse">
			<stop  offset="0" style="stop-color:#FEEEFF"/>
			<stop  offset="0.9975" style="stop-color:#FF00FF;stop-opacity:0"/>
		</radialGradient>
		<circle opacity="0.5" fill="url(#SVGID_5_)" cx="998.49" cy="1263.442" r="337.056"/>
		<radialGradient id="SVGID_6_" cx="1349.5491" cy="1245.7018" r="337.0565" gradientUnits="userSpaceOnUse">
			<stop  offset="0" style="stop-color:#FEEEFF"/>
			<stop  offset="0.9975" style="stop-color:#FF00FF;stop-opacity:0"/>
		</radialGradient>
		<circle opacity="0.5" fill="url(#SVGID_6_)" cx="1349.549" cy="1245.702" r="337.056"/>
		<radialGradient id="SVGID_7_" cx="1606.3011" cy="1118.4388" r="337.0565" gradientUnits="userSpaceOnUse">
			<stop  offset="0" style="stop-color:#FEEEFF"/>
			<stop  offset="0.9975" style="stop-color:#FF00FF;stop-opacity:0"/>
		</radialGradient>
		<circle opacity="0.5" fill="url(#SVGID_7_)" cx="1606.301" cy="1118.439" r="337.056"/>
		<radialGradient id="SVGID_8_" cx="1136.4319" cy="945.6149" r="337.0565" gradientUnits="userSpaceOnUse">
			<stop  offset="0" style="stop-color:#FFFFFF"/>
			<stop  offset="0.9975" style="stop-color:#FFFF00;stop-opacity:0"/>
		</radialGradient>
		<circle opacity="0.5" fill="url(#SVGID_8_)" cx="1136.432" cy="945.615" r="337.056"/>
		<radialGradient id="SVGID_9_" cx="1136.4319" cy="608.5584" r="337.0565" gradientUnits="userSpaceOnUse">
			<stop  offset="0" style="stop-color:#FFF0E1"/>
			<stop  offset="1" style="stop-color:#FF9406;stop-opacity:0"/>
		</radialGradient>
		<circle opacity="0.5" fill="url(#SVGID_9_)" cx="1136.432" cy="608.558" r="337.056"/>
		<radialGradient id="SVGID_10_" cx="1136.4319" cy="1066.2057" r="337.0565" gradientUnits="userSpaceOnUse">
			<stop  offset="0" style="stop-color:#FFF0E1"/>
			<stop  offset="1" style="stop-color:#FF9406;stop-opacity:0"/>
		</radialGradient>
		<circle opacity="0.5" fill="url(#SVGID_10_)" cx="1136.432" cy="1066.206" r="337.056"/>
	</g>
	<g opacity="0.5">
		<path fill="#1C1B29" d="M1084.482,749.301H981.674h-17.367c-11.046,0-20,8.954-20,20s8.954,20,20,20h344.25
			c12.877,0,23.354,10.477,23.354,23.354s-10.477,23.354-23.354,23.354h-344.25c-12.877,0-23.354-10.477-23.354-23.354
			c0-11.046-8.954-20-20-20s-20,8.954-20,20c0,34.934,28.42,63.354,63.354,63.354c-34.934,0-63.354,28.42-63.354,63.354
			c0,11.153,6.898,20.167,20.502,26.793c6.843,3.332,16.018,6.501,28.048,9.686c18.556,4.912,44.177,9.894,76.152,14.806
			c53.788,8.263,108.28,13.642,108.825,13.694c0.649,0.063,1.3,0.096,1.951,0.096c0.652,0,1.303-0.032,1.953-0.096
			c4.007-0.393,98.881-9.78,163.063-23.35c10.807-2.284,17.716-12.897,15.431-23.704c-2.285-10.809-12.901-17.715-23.704-15.431
			c-57.081,12.067-142.766,21.057-156.743,22.479c-9.212-0.937-49.616-5.157-92.285-11.369
			c-66.029-9.613-92.044-17.361-101.891-21.298c3.188-9.109,11.869-15.66,22.052-15.66h344.25c12.877,0,23.354,10.477,23.354,23.354
			c0,11.046,8.954,20,20,20s20-8.954,20-20c0-34.934-28.42-63.354-63.354-63.354c34.934,0,63.354-28.42,63.354-63.354
			s-28.42-63.354-63.354-63.354h-18.457h-102.809H1084.482z"/>
		<path fill="#1C1B29" d="M957.295,1035.375c10.73-2.622,17.302-13.447,14.679-24.177s-13.447-17.299-24.177-14.679
			c-28.578,6.985-48.537,32.426-48.537,61.865c0,35.12,28.573,63.693,63.694,63.693h346.955c35.121,0,63.694-28.573,63.694-63.693
			c0-29.44-19.96-54.88-48.538-61.865c-3.295-0.807-6.74-0.761-10.012,0.133c-53.523,14.598-162.681,26.059-178.624,27.683
			c-12.039-1.225-77.282-8.058-131.589-17.643c-10.879-1.925-21.252,5.342-23.172,16.219c-1.92,10.878,5.342,21.252,16.22,23.172
			c61.282,10.816,133.544,17.958,136.59,18.257c1.299,0.127,2.605,0.127,3.904,0c4.972-0.487,118.907-11.775,181.301-27.551
			c8.37,3.765,13.919,12.123,13.919,21.596c0,13.064-10.629,23.693-23.694,23.693H962.954c-13.065,0-23.694-10.629-23.694-23.693
			C939.26,1047.432,946.677,1037.971,957.295,1035.375z"/>
		<path fill="#1C1B29" d="M918.397,653.805h109.931c-22.976,2.384-40.952,21.859-40.952,45.455c0,0.734,0.045,1.456,0.122,2.169
			c-0.077,0.713-0.122,1.436-0.122,2.169c0,3.145-2.558,5.702-5.702,5.702s-5.702-2.558-5.702-5.702c0-11.046-8.954-20-20-20
			s-20,8.954-20,20c0,25.2,20.502,45.702,45.702,45.702s45.702-20.502,45.702-45.702c0-0.734-0.045-1.456-0.122-2.169
			c0.077-0.713,0.122-1.436,0.122-2.169c0-3.145,2.558-5.702,5.702-5.702s5.702,2.558,5.702,5.702c0,0.734,0.045,1.456,0.122,2.169
			c-0.077,0.713-0.122,1.436-0.122,2.169c0,25.2,20.502,45.702,45.702,45.702s45.702-20.502,45.702-45.702
			c0-0.734-0.045-1.456-0.122-2.169c0.077-0.713,0.122-1.436,0.122-2.169c0-3.145,2.558-5.702,5.702-5.702
			c3.145,0,5.702,2.558,5.702,5.702c0,0.734,0.045,1.456,0.122,2.169c-0.077,0.713-0.122,1.436-0.122,2.169
			c0,25.2,20.502,45.702,45.702,45.702s45.702-20.502,45.702-45.702c0-0.734-0.045-1.456-0.122-2.169
			c0.077-0.713,0.122-1.436,0.122-2.169c0-3.145,2.558-5.702,5.702-5.702s5.702,2.558,5.702,5.702c0,0.734,0.045,1.456,0.122,2.169
			c-0.077,0.713-0.122,1.436-0.122,2.169c0,25.2,20.502,45.702,45.702,45.702s45.702-20.502,45.702-45.702c0-11.046-8.954-20-20-20
			s-20,8.954-20,20c0,3.145-2.558,5.702-5.702,5.702s-5.702-2.558-5.702-5.702c0-0.734-0.045-1.456-0.122-2.169
			c0.077-0.713,0.122-1.436,0.122-2.169c0-23.596-17.976-43.071-40.952-45.455h109.931c11.046,0,20-8.954,20-20s-8.954-20-20-20
			H939.402c10.06-99.535,94.341-177.489,196.484-177.489c87.386,0,163.282,56.078,188.857,139.542
			c3.235,10.561,14.419,16.5,24.981,13.263c10.562-3.236,16.499-14.42,13.263-24.981c-14.578-47.576-44.626-90.314-84.608-120.342
			c-41.36-31.063-90.634-47.481-142.493-47.481c-63.436,0-123.075,24.703-167.93,69.559
			c-44.856,44.855-69.559,104.494-69.559,167.93C898.397,644.85,907.351,653.805,918.397,653.805z M1131.136,653.805
			c-22.976,2.384-40.952,21.859-40.952,45.455c0,0.734,0.045,1.456,0.122,2.169c-0.077,0.713-0.122,1.436-0.122,2.169
			c0,3.145-2.558,5.702-5.702,5.702s-5.702-2.558-5.702-5.702c0-0.734-0.045-1.456-0.122-2.169c0.077-0.713,0.122-1.436,0.122-2.169
			c0-23.596-17.976-43.071-40.952-45.455H1131.136z M1192.993,699.26c0,0.734,0.045,1.456,0.122,2.169
			c-0.077,0.713-0.122,1.436-0.122,2.169c0,3.145-2.558,5.702-5.702,5.702s-5.702-2.558-5.702-5.702
			c0-0.734-0.045-1.456-0.122-2.169c0.077-0.713,0.122-1.436,0.122-2.169c0-23.596-17.976-43.071-40.952-45.455h93.309
			C1210.969,656.188,1192.993,675.663,1192.993,699.26z"/>
		<path fill="#1C1B29" d="M627.142,1128.682c11.865,9.208,24.132,18.204,36.459,26.736c3.948,2.733,8.573,4.179,13.376,4.179
			c1.406,0,2.824-0.128,4.218-0.381c6.181-1.128,11.551-4.597,15.12-9.767l12.871-18.639c7.354-10.65,4.679-25.308-5.962-32.675
			c-11.295-7.819-22.533-16.061-33.401-24.495c-4.101-3.183-9.216-4.936-14.403-4.936c-0.987,0-1.985,0.063-2.959,0.188
			c-6.233,0.79-11.784,3.962-15.628,8.93l-13.862,17.908C615.047,1105.964,616.919,1120.746,627.142,1128.682z"/>
		<path fill="#1C1B29" d="M590.982,1137.054l-13.863,17.909c-7.924,10.233-6.052,25.016,4.174,32.951
			c12.944,10.045,26.316,19.852,39.745,29.146c3.948,2.732,8.573,4.177,13.374,4.177c1.407,0,2.824-0.128,4.221-0.382
			c6.18-1.129,11.549-4.598,15.117-9.766l12.87-18.639c7.354-10.65,4.68-25.309-5.962-32.675
			c-12.406-8.587-24.749-17.639-36.685-26.902c-4.1-3.183-9.217-4.936-14.407-4.936c-0.984,0-1.979,0.063-2.956,0.187
			C600.377,1128.916,594.826,1132.088,590.982,1137.054z"/>
		<path fill="#1C1B29" d="M1067.857,1229.859c-13.11-1.17-26.354-2.699-39.367-4.545c-1.099-0.156-2.216-0.234-3.32-0.234
			c-11.611,0-21.604,8.678-23.245,20.185l-3.196,22.422c-0.886,6.218,0.703,12.408,4.475,17.43
			c3.771,5.021,9.272,8.271,15.492,9.154c14.194,2.012,28.646,3.681,42.951,4.959c0.697,0.063,1.409,0.095,2.114,0.095
			c12.238,0,22.292-9.2,23.387-21.399l2.026-22.558c0.561-6.254-1.347-12.352-5.374-17.171
			C1079.772,1233.378,1074.11,1230.417,1067.857,1229.859z"/>
		<path fill="#1C1B29" d="M1616.582,1068.706c-5.188,0-10.304,1.753-14.404,4.936c-10.874,8.44-22.111,16.681-33.399,24.493
			c-10.643,7.367-13.317,22.025-5.962,32.676l12.869,18.638c3.569,5.17,8.938,8.639,15.119,9.767c1.39,0.253,2.81,0.382,4.219,0.382
			c4.802,0,9.426-1.444,13.374-4.177c12.333-8.536,24.601-17.532,36.461-26.739c10.223-7.935,12.095-22.715,4.174-32.947
			l-13.862-17.91c-3.847-4.969-9.397-8.14-15.626-8.93C1618.565,1068.769,1617.569,1068.706,1616.582,1068.706z"/>
		<path fill="#1C1B29" d="M1796.066,1133.768l-35.938-37.928c-4.319-4.557-10.155-7.159-16.428-7.327
			c-0.212-0.006-0.425-0.009-0.637-0.009c-2.636,0-5.221,0.437-7.67,1.284l-4.932-5.375c-4.439-4.836-10.753-7.609-17.323-7.609
			c-0.907,0-1.825,0.053-2.733,0.159c-0.441,0.052-0.883,0.104-1.326,0.154c0.121-0.681,0.24-1.361,0.359-2.04
			c1.248-7.142-0.935-14.594-5.836-19.933l-35.84-39.058c-4.438-4.838-10.751-7.612-17.318-7.612
			c-5.896,0-11.538,2.197-15.886,6.187c-2.903,2.664-4.982,5.894-6.225,9.369c-0.907-2.165-2.146-4.204-3.699-6.053
			c-4.477-5.331-11.039-8.389-18.005-8.389c-5.514,0-10.878,1.955-15.105,5.505c-34.47,28.947-71.802,54.669-110.957,76.45
			c-2.288,1.272-4.352,2.927-6.093,4.872c-2.578,0.396-5.09,1.222-7.402,2.441c-8.139,4.294-12.72,12.723-12.525,21.353
			c-4.115-3.337-9.324-5.267-14.816-5.267c-3.37,0-6.642,0.712-9.724,2.116c-36.456,16.592-74.628,30.165-113.455,40.343
			c-6.075,1.593-11.166,5.457-14.334,10.882c-1.487,2.546-2.466,5.293-2.922,8.119c-3.523-2.022-6.95-4.032-10.256-6.016
			c-3.65-2.191-7.833-3.35-12.094-3.35c-1.506,0-3.019,0.146-4.496,0.435c-28.998,5.655-58.666,9.537-88.179,11.538
			c-5.805,0.394-11.231,2.909-15.279,7.084c-8.848,9.12-18.113,18.137-27.568,26.829c-3.821-2.671-8.397-4.183-13.156-4.233
			l-0.295-0.002c-2.931,0-5.742,0.545-8.338,1.539c0.589-1.863,0.954-3.829,1.061-5.867c0.682-12.94-9.292-24.022-22.231-24.704
			c-43.168-2.272-86.329-8.518-128.285-18.562c-1.787-0.427-3.621-0.644-5.45-0.644c-0.726,0-1.453,0.034-2.177,0.102
			c-2.138-1.409-4.5-2.468-6.969-3.115c-25.042-6.56-49.969-14.578-74.09-23.832c-2.6-0.997-5.315-1.521-8.074-1.562
			c-2.029-1.853-4.377-3.345-6.931-4.392c-24.19-9.922-48.083-21.32-71.016-33.88c-3.449-1.889-7.353-2.888-11.289-2.888
			c-2.231,0-4.449,0.317-6.598,0.943c-3.075,0.9-5.876,2.383-8.284,4.352c-1.412-4.418-2.75-8.756-4.003-12.979
			c-1.611-5.429-5.127-10.093-9.903-13.134c-38.12-24.285-74.208-52.494-107.259-83.845c-4.385-4.158-10.133-6.449-16.187-6.449
			c-0.202,0-0.403,0.003-0.613,0.008c-6.278,0.169-12.113,2.771-16.431,7.329l-35.939,37.926
			c-8.165,8.616-8.512,21.853-1.278,30.864c-6.441,0.098-12.608,2.859-16.967,7.61l-24.114,26.277
			c-2.448-0.847-5.03-1.283-7.661-1.283c-0.216,0-0.432,0.003-0.642,0.009c-6.276,0.168-12.111,2.77-16.431,7.327l-35.939,37.927
			c-8.908,9.4-8.511,24.301,0.885,33.215c44.633,42.335,93.385,80.443,144.902,113.264c3.779,2.408,8.146,3.681,12.626,3.681
			c0.239,0,0.479-0.004,0.73-0.011c16.883-0.525,33.909-1.575,50.605-3.123c1.529-0.142,3.025-0.432,4.472-0.858
			c0.406,1.438,0.951,2.847,1.637,4.203c7.486,14.818,15.534,29.694,23.92,44.217c2.401,4.155,5.962,7.437,10.3,9.488
			c36.495,17.267,74.496,32.359,112.947,44.858c2.36,0.768,4.806,1.156,7.268,1.156c10.208,0,19.188-6.526,22.346-16.24
			c1.94-5.97,1.44-12.338-1.409-17.931c-2.849-5.594-7.706-9.742-13.675-11.683c-34.208-11.12-68.083-24.416-100.721-39.53
			c-4.629-8.178-9.159-16.495-13.503-24.794l51.095-96.845c3.98-7.542,3.559-16.367-0.787-23.341l4.121-7.531
			c10.961,5.562,22.132,10.891,33.349,15.91l-3.259,7.936c-8.214,1.029-15.354,6.321-18.671,14.064l-38.43,89.682
			c-2.473,5.771-2.55,12.159-0.217,17.988c2.333,5.828,6.796,10.399,12.567,12.87c14.627,6.264,29.623,12.217,44.571,17.694
			c2.607,0.956,5.328,1.44,8.087,1.44c9.812,0,18.677-6.19,22.059-15.404l33.632-91.587c2.166-5.896,1.904-12.28-0.737-17.979
			c-0.811-1.75-1.839-3.396-3.05-4.894l3.123-8.127c11.316,3.938,22.803,7.633,34.293,11.031l-2.192,8.334
			c-7.91,2.104-14.25,8.218-16.531,16.392l-32.724,117.247c-1.688,6.046-0.919,12.388,2.163,17.855
			c3.082,5.469,8.109,9.41,14.155,11.097c2.065,0.576,4.191,0.869,6.32,0.869c1.387,0,2.755-0.124,4.091-0.361l-1.662,6.914
			c-1.468,6.106-0.468,12.419,2.814,17.775c3.284,5.354,8.456,9.109,14.564,10.571c33.797,8.091,68.44,14.409,102.972,18.78
			c0.981,0.123,1.977,0.187,2.961,0.187c5.887,0,11.331-2.2,15.493-5.859c0.286,0.388,0.585,0.77,0.897,1.143
			c4.027,4.819,9.69,7.781,15.944,8.339c28.38,2.533,57.246,3.818,85.794,3.818c1.384,0,2.77-0.003,4.156-0.009
			c6.276-0.028,12.167-2.498,16.588-6.957c4.418-4.459,6.836-10.371,6.809-16.646l-0.022-5.191c4.778-0.916,9.143-3.29,12.561-6.888
			c4.324-4.551,6.617-10.513,6.457-16.787l-3.449-135.205c5.844-5.495,11.628-11.117,17.246-16.763
			c25.467-2.032,51.073-5.383,76.192-9.97c6.895,4.017,13.945,7.965,21.026,11.775l0.839,3.487
			c-5.425,1.127-10.887,2.201-16.334,3.212c-4.279-6.412-11.539-10.43-19.525-10.43c-1.221,0-2.454,0.097-3.668,0.287
			c-12.98,2.042-26.206,3.771-39.309,5.143c-6.245,0.652-11.862,3.699-15.815,8.579c-3.953,4.879-5.769,11.005-5.112,17.25
			l10.199,97.01c1.261,11.999,11.292,21.047,23.333,21.047c0.827,0,1.666-0.044,2.48-0.131c15.565-1.627,31.298-3.684,46.758-6.114
			c6.205-0.976,11.657-4.31,15.353-9.388s5.19-11.292,4.21-17.496l-3.537-22.371c-1.765-11.158-11.01-19.346-22.18-19.813
			l-0.769-5.684c12.345-2.018,24.724-4.325,36.958-6.891l14.935,62.074c-6.019,6.845-12.22,13.67-18.488,20.346
			c-34.905,6.508-70.535,11.022-105.945,13.423c-12.928,0.877-22.733,12.107-21.857,25.034c0.832,12.288,11.123,21.913,23.43,21.913
			c0.536,0,1.076-0.019,1.604-0.055c39.861-2.701,79.938-7.945,119.116-15.586c4.795-0.936,9.112-3.297,12.486-6.827
			c6.423-6.718,12.88-13.701,19.287-20.857c3.508,8.868,12.127,14.852,21.84,14.852c2.005,0,4.013-0.26,5.97-0.771
			c70.598-18.506,139.039-45.127,203.422-79.122c3.174-1.676,5.92-4.072,8.02-6.959c3.58-0.184,7.094-1.188,10.231-2.934
			c31.37-17.45,62.096-36.904,91.325-57.822c6.055-4.333,9.436-11.039,9.783-17.959c0.869,0.212,1.756,0.376,2.656,0.49
			c0.979,0.124,1.975,0.188,2.961,0.188c5.186,0,10.301-1.753,14.403-4.936c25.02-19.418,49.407-40.364,72.485-62.257
			C1804.575,1158.068,1804.973,1143.17,1796.066,1133.768z M1481.496,1217.961c12.97-6.002,25.856-12.379,38.397-19
			c2.098-1.108,3.99-2.518,5.631-4.161l12.554,21.798c-2.646,0.387-5.225,1.223-7.592,2.473
			c-13.066,6.899-26.504,13.542-40.034,19.791L1481.496,1217.961z M1104.477,1231.941l-0.441,41.786
			c-5.184,4.038-10.457,8.033-15.711,11.904c-5.796,4.271-9.275,10.848-9.543,18.044c-0.268,7.194,2.711,14.012,8.173,18.703
			c5.36,4.604,10.873,9.21,16.423,13.725l-0.185,17.539c-0.066,6.277,2.316,12.204,6.709,16.69c1.924,1.965,4.148,3.557,6.584,4.729
			l0.033,7.417c-12.85-0.276-25.786-0.824-38.616-1.636l4.569-50.876c0.563-6.255-1.346-12.354-5.373-17.172
			c-4.027-4.819-9.69-7.781-15.943-8.339c-14.392-1.284-28.939-2.964-43.238-4.992c-1.1-0.156-2.218-0.235-3.323-0.235
			c-11.61,0-21.602,8.679-23.242,20.187l-3.196,22.423c-0.886,6.218,0.703,12.407,4.474,17.427c1.655,2.205,3.659,4.078,5.928,5.561
			l-0.937,7.355c-17.288-2.646-34.627-5.807-51.722-9.432l1.72-7.156c8.819-1.876,15.876-8.688,17.93-17.837l21.372-95.185
			c1.376-6.129,0.282-12.426-3.08-17.729c-1.044-1.647-2.295-3.16-3.711-4.499l2.026-8.429
			c37.439,7.733,75.702,12.669,113.841,14.678c0.412,0.021,0.822,0.032,1.229,0.032c2.936,0,5.751-0.539,8.349-1.526
			C1104.885,1227.262,1104.502,1229.561,1104.477,1231.941z M601.516,1078.389c-0.082-1.908-0.389-3.771-0.906-5.562
			c1.502,0.299,3.042,0.452,4.6,0.452c6.56,0,12.867-2.768,17.307-7.595c5.924-6.443,7.678-15.497,4.947-23.496l5.638-5.95
			c28.18,25.119,58.312,48.208,89.684,68.718c2.439,7.873,5.041,15.802,7.757,23.64l-15.322,26.617
			c-6.639,0.874-13.344,1.66-19.979,2.34c-7.232,0.742-13.822,4.884-17.625,11.077c-3.805,6.194-4.521,13.943-1.913,20.729
			c2.603,6.773,5.334,13.61,8.137,20.368l-14.556,25.287c-9.429,0.723-18.961,1.281-28.417,1.663
			c-40.154-26.041-78.622-55.569-114.451-87.851l4.818-5.085c2.552,0.93,5.259,1.409,8.028,1.409c0.335,0,0.67-0.008,1.004-0.021
			c6.274-0.268,12.068-2.964,16.314-7.591l38.772-42.253C599.596,1090.662,601.785,1084.661,601.516,1078.389z M1628.763,1041.039
			c1.021,2.448,2.475,4.763,4.369,6.827l27.943,30.449c-1.277,6.73-2.65,13.493-4.091,20.149
			c-1.557,7.191,0.393,14.804,5.214,20.366c4.467,5.149,10.942,8.103,17.768,8.103c0.546,0,1.094-0.019,1.654-0.058
			c7.361-0.523,14.831-1.169,22.255-1.92l11.547,12.584c4.245,4.627,10.04,7.323,16.318,7.591c0.33,0.014,0.66,0.021,0.99,0.021
			c2.772,0,5.482-0.479,8.036-1.409l4.819,5.086c-10.862,9.786-22.023,19.374-33.308,28.61l-31.261-40.385
			c-3.846-4.968-9.396-8.138-15.631-8.929c-0.975-0.123-1.968-0.186-2.95-0.186c-5.19,0-10.307,1.753-14.409,4.935
			c-11.931,9.261-24.273,18.313-36.684,26.902c-10.643,7.367-13.317,22.025-5.962,32.676l12.869,18.638
			c3.569,5.171,8.938,8.64,15.125,9.769c1.386,0.251,2.802,0.379,4.209,0.379c1.513,0,3.027-0.149,4.514-0.44l4.173,5.847
			c-15.379,10.41-31.189,20.422-47.156,29.86l-3.511-6.319c5.373-7.347,6.085-17.311,1.339-25.553l-48.693-84.549
			c-3.134-5.441-8.2-9.336-14.258-10.964c-1.987-0.536-4.041-0.808-6.102-0.808l-4.132-7.436
			c34.36-20.558,67.297-44.014,97.991-69.789C1624.986,1048.37,1627.378,1044.915,1628.763,1041.039z M1461.748,1146.69
			c0.626-1.673,1.057-3.385,1.292-5.111l13.965,26.469c-5.294,2.591-10.641,5.133-15.988,7.602
			c-4.256-3.843-9.82-6.025-15.737-6.025c-3.186,0-6.294,0.64-9.239,1.9c-12.247,5.243-24.801,10.229-37.313,14.816
			c-5.895,2.163-10.594,6.492-13.231,12.189c-2.639,5.697-2.9,12.082-0.734,17.978l7.813,21.265
			c3.385,9.21,12.249,15.399,22.058,15.399c2.761,0,5.483-0.485,8.091-1.442c6.313-2.314,12.682-4.74,19.008-7.238l2.074,4.84
			c-6.399,2.528-12.845,4.983-19.237,7.327c-5.896,2.161-10.598,6.49-13.235,12.189c-2.64,5.698-2.899,12.084-0.733,17.979
			l7.812,21.261c3.385,9.213,12.25,15.402,22.059,15.402c2.761,0,5.484-0.485,8.091-1.442c14.89-5.461,29.83-11.394,44.406-17.635
			c5.771-2.471,10.234-7.041,12.568-12.87c1.101-2.749,1.662-5.702,1.675-8.657c8.137-3.722,16.268-7.591,24.287-11.556
			l8.956,16.974c-47.979,23.751-98.32,43.329-149.846,58.275l-1.901-7.227c2.018-1.75,3.729-3.84,5.063-6.204
			c3.088-5.471,3.858-11.816,2.169-17.866l-26.227-93.969c-2.259-8.095-8.535-14.191-16.366-16.344l-2.217-8.424
			c33.58-9.938,66.635-22.274,98.347-36.708C1455.188,1157.238,1459.547,1152.568,1461.748,1146.69z"/>
	</g>
	<g>
		<g>
			<path fill="#FF00FF" d="M1308.556,859.508h-344.25c-34.934,0-63.354-28.42-63.354-63.354c0-11.046,8.954-20,20-20s20,8.954,20,20
				c0,12.877,10.477,23.354,23.354,23.354h344.25c12.877,0,23.354-10.477,23.354-23.354s-10.477-23.354-23.354-23.354h-344.25
				c-11.046,0-20-8.954-20-20s8.954-20,20-20h344.25c34.934,0,63.354,28.42,63.354,63.354S1343.49,859.508,1308.556,859.508z"/>
			<path fill="#FB7DFF" d="M964.306,852.507c-31.074,0-56.354-25.28-56.354-56.354c0-7.168,5.832-13,13-13s13,5.832,13,13
				c0,16.737,13.617,30.354,30.354,30.354h344.25c16.737,0,30.354-13.616,30.354-30.354s-13.616-30.354-30.354-30.354h-344.25
				c-7.168,0-13-5.832-13-13c0-7.168,5.832-13,13-13h344.25c31.073,0,56.354,25.28,56.354,56.354s-25.28,56.354-56.354,56.354
				H964.306z"/>
			<path fill="#FEEEFF" d="M964.306,845.507c-27.214,0-49.354-22.14-49.354-49.354c0-3.309,2.691-6,6-6s6,2.691,6,6
				c0,20.597,16.757,37.354,37.354,37.354h344.25c20.597,0,37.354-16.757,37.354-37.354s-16.757-37.354-37.354-37.354h-344.25
				c-3.309,0-6-2.691-6-6s2.691-6,6-6h344.25c27.214,0,49.354,22.14,49.354,49.354s-22.14,49.354-49.354,49.354H964.306z"/>
		</g>
		<path fill="#00FF00" d="M1315.802,667.098c-11.046,0-20,8.954-20,20c0,3.145-2.558,5.702-5.702,5.702s-5.702-2.558-5.702-5.702
			c0-0.734-0.045-1.456-0.122-2.169c0.077-0.713,0.122-1.436,0.122-2.169c0-25.2-20.502-45.702-45.702-45.702
			s-45.702,20.502-45.702,45.702c0,0.734,0.045,1.456,0.122,2.169c-0.077,0.713-0.122,1.436-0.122,2.169
			c0,3.145-2.558,5.702-5.702,5.702s-5.702-2.558-5.702-5.702c0-0.734-0.045-1.456-0.122-2.169c0.077-0.713,0.122-1.436,0.122-2.169
			c0-25.2-20.502-45.702-45.702-45.702s-45.702,20.502-45.702,45.702c0,0.734,0.045,1.456,0.122,2.169
			c-0.077,0.713-0.122,1.436-0.122,2.169c0,3.145-2.558,5.702-5.702,5.702s-5.702-2.558-5.702-5.702
			c0-0.734-0.045-1.456-0.122-2.169c0.077-0.713,0.122-1.436,0.122-2.169c0-25.2-20.502-45.702-45.702-45.702
			s-45.702,20.502-45.702,45.702c0,0.734,0.045,1.456,0.122,2.169c-0.077,0.713-0.122,1.436-0.122,2.169
			c0,3.145-2.558,5.702-5.702,5.702s-5.702-2.558-5.702-5.702c0-11.046-8.954-20-20-20s-20,8.954-20,20
			c0,25.2,20.502,45.702,45.702,45.702s45.702-20.502,45.702-45.702c0-0.734-0.045-1.456-0.122-2.169
			c0.077-0.713,0.122-1.436,0.122-2.169c0-3.145,2.558-5.702,5.702-5.702s5.702,2.558,5.702,5.702c0,0.734,0.045,1.456,0.122,2.169
			c-0.077,0.713-0.122,1.436-0.122,2.169c0,25.2,20.502,45.702,45.702,45.702s45.702-20.502,45.702-45.702
			c0-0.734-0.045-1.456-0.122-2.169c0.077-0.713,0.122-1.436,0.122-2.169c0-3.145,2.558-5.702,5.702-5.702
			c3.145,0,5.702,2.558,5.702,5.702c0,0.734,0.045,1.456,0.122,2.169c-0.077,0.713-0.122,1.436-0.122,2.169
			c0,25.2,20.502,45.702,45.702,45.702s45.702-20.502,45.702-45.702c0-0.734-0.045-1.456-0.122-2.169
			c0.077-0.713,0.122-1.436,0.122-2.169c0-3.145,2.558-5.702,5.702-5.702s5.702,2.558,5.702,5.702c0,0.734,0.045,1.456,0.122,2.169
			c-0.077,0.713-0.122,1.436-0.122,2.169c0,25.2,20.502,45.702,45.702,45.702s45.702-20.502,45.702-45.702
			C1335.802,676.053,1326.847,667.098,1315.802,667.098z"/>
		<path fill="#94FF94" d="M1290.1,725.8c-21.341,0-38.703-17.362-38.703-38.702c0-0.44,0.027-0.903,0.082-1.417l0.082-0.753
			l-0.082-0.752c-0.055-0.513-0.082-0.976-0.082-1.417c0-7.004-5.697-12.702-12.701-12.702c-7.005,0-12.703,5.698-12.703,12.702
			c0,0.446-0.026,0.91-0.081,1.417l-0.082,0.752l0.082,0.753c0.055,0.507,0.081,0.971,0.081,1.417
			c0,21.34-17.361,38.702-38.701,38.702c-21.341,0-38.703-17.362-38.703-38.702c0-0.44,0.027-0.904,0.082-1.417l0.082-0.753
			l-0.082-0.753c-0.055-0.512-0.082-0.976-0.082-1.416c0-7.004-5.698-12.702-12.702-12.702c-7.004,0-12.702,5.698-12.702,12.702
			c0,0.444-0.027,0.907-0.082,1.416l-0.082,0.753l0.082,0.753c0.055,0.51,0.082,0.973,0.082,1.417
			c0,21.34-17.362,38.702-38.702,38.702s-38.702-17.362-38.702-38.702c0-0.443,0.027-0.907,0.082-1.417l0.082-0.753l-0.082-0.753
			c-0.055-0.509-0.082-0.972-0.082-1.416c0-7.004-5.698-12.702-12.702-12.702s-12.702,5.698-12.702,12.702
			c0,0.444-0.027,0.907-0.082,1.416l-0.082,0.753l0.082,0.753c0.055,0.51,0.082,0.973,0.082,1.417
			c0,21.34-17.362,38.702-38.702,38.702s-38.702-17.362-38.702-38.702c0-7.168,5.832-13,13-13s13,5.832,13,13
			c0,7.004,5.698,12.702,12.702,12.702s12.702-5.698,12.702-12.702c0-0.443,0.027-0.908,0.082-1.421l0.081-0.749l-0.081-0.748
			c-0.055-0.513-0.082-0.978-0.082-1.421c0-21.34,17.362-38.702,38.702-38.702s38.702,17.362,38.702,38.702
			c0,0.443-0.027,0.907-0.082,1.417l-0.081,0.752l0.081,0.753c0.055,0.51,0.082,0.974,0.082,1.417
			c0,7.004,5.698,12.702,12.702,12.702s12.702-5.698,12.702-12.702c0-0.443,0.027-0.907,0.082-1.417l0.081-0.753l-0.081-0.752
			c-0.055-0.51-0.082-0.973-0.082-1.417c0-21.34,17.362-38.702,38.702-38.702s38.702,17.362,38.702,38.702
			c0,0.447-0.026,0.91-0.081,1.416l-0.082,0.753l0.082,0.753c0.055,0.507,0.081,0.97,0.081,1.417
			c0,7.004,5.698,12.702,12.703,12.702c7.004,0,12.701-5.698,12.701-12.702c0-0.44,0.027-0.904,0.082-1.417l0.082-0.753
			l-0.082-0.753c-0.055-0.512-0.082-0.976-0.082-1.416c0-21.34,17.362-38.702,38.703-38.702c21.34,0,38.701,17.362,38.701,38.702
			c0,0.447-0.026,0.91-0.081,1.416l-0.082,0.753l0.082,0.753c0.055,0.507,0.081,0.97,0.081,1.417
			c0,7.004,5.698,12.702,12.703,12.702c7.004,0,12.701-5.698,12.701-12.702c0-7.168,5.832-13,13-13s13,5.832,13,13
			C1328.801,708.439,1311.44,725.8,1290.1,725.8z"/>
		<path fill="#DEFFDE" d="M1290.1,718.8c-17.481,0-31.703-14.222-31.703-31.702c0-0.185,0.014-0.406,0.043-0.676l0.162-1.494
			l-0.164-1.51c-0.027-0.253-0.041-0.473-0.041-0.658c0-10.864-8.838-19.702-19.701-19.702c-10.864,0-19.703,8.838-19.703,19.702
			c0,0.194-0.014,0.412-0.041,0.666l-0.164,1.502l0.165,1.512c0.026,0.246,0.04,0.464,0.04,0.659
			c0,17.48-14.221,31.702-31.701,31.702c-17.481,0-31.703-14.222-31.703-31.702c0-0.185,0.014-0.406,0.043-0.674l0.162-1.496
			l-0.164-1.511c-0.027-0.252-0.041-0.473-0.041-0.658c0-10.864-8.838-19.702-19.702-19.702s-19.702,8.838-19.702,19.702
			c0,0.189-0.014,0.406-0.041,0.662l-0.164,1.507l0.163,1.507c0.028,0.257,0.042,0.474,0.042,0.663
			c0,17.48-14.222,31.702-31.702,31.702s-31.702-14.222-31.702-31.702c0-0.189,0.014-0.406,0.042-0.664l0.163-1.507l-0.163-1.506
			c-0.028-0.256-0.042-0.473-0.042-0.662c0-10.864-8.838-19.702-19.702-19.702s-19.702,8.838-19.702,19.702
			c0,0.189-0.014,0.406-0.041,0.662l-0.164,1.507l0.163,1.507c0.028,0.257,0.042,0.474,0.042,0.663
			c0,17.48-14.222,31.702-31.702,31.702s-31.702-14.222-31.702-31.702c0-3.309,2.691-6,6-6s6,2.691,6,6
			c0,10.864,8.838,19.702,19.702,19.702s19.702-8.838,19.702-19.702c0-0.19,0.014-0.411,0.042-0.674l0.161-1.497l-0.161-1.497
			c-0.028-0.261-0.042-0.481-0.042-0.671c0-17.48,14.222-31.702,31.702-31.702s31.702,14.222,31.702,31.702
			c0,0.189-0.014,0.406-0.042,0.664l-0.162,1.505l0.162,1.502c0.028,0.262,0.042,0.479,0.042,0.668
			c0,10.864,8.838,19.702,19.702,19.702s19.702-8.838,19.702-19.702c0-0.189,0.014-0.406,0.042-0.665l0.162-1.505l-0.162-1.502
			c-0.028-0.261-0.042-0.478-0.042-0.667c0-17.48,14.222-31.702,31.702-31.702c17.48,0,31.702,14.222,31.702,31.702
			c0,0.194-0.014,0.412-0.041,0.665l-0.163,1.504l0.164,1.512c0.026,0.247,0.04,0.464,0.04,0.659
			c0,10.864,8.839,19.702,19.703,19.702c10.863,0,19.701-8.838,19.701-19.702c0-0.185,0.014-0.405,0.043-0.673l0.162-1.497
			l-0.164-1.51c-0.027-0.253-0.041-0.473-0.041-0.658c0-17.48,14.222-31.702,31.703-31.702c17.48,0,31.701,14.222,31.701,31.702
			c0,0.195-0.014,0.412-0.04,0.663l-0.164,1.505l0.164,1.511c0.026,0.247,0.04,0.465,0.04,0.659
			c0,10.864,8.839,19.702,19.703,19.702c10.863,0,19.701-8.838,19.701-19.702c0-3.309,2.691-6,6-6s6,2.691,6,6
			C1321.801,704.579,1307.58,718.8,1290.1,718.8z"/>
		<g>
			<path fill="#FFFF00" d="M1136.431,987.935c-0.651,0-1.302-0.032-1.951-0.096c-0.544-0.053-55.037-5.432-108.825-13.694
				c-31.976-4.912-57.597-9.894-76.152-14.806c-12.03-3.185-21.205-6.354-28.048-9.686c-13.604-6.626-20.502-15.64-20.502-26.793
				c0-34.934,28.42-63.354,63.354-63.354h344.25c34.934,0,63.354,28.42,63.354,63.354c0,11.046-8.954,20-20,20s-20-8.954-20-20
				c0-12.877-10.477-23.354-23.354-23.354h-344.25c-10.183,0-18.865,6.551-22.052,15.66c9.847,3.937,35.862,11.685,101.891,21.298
				c42.669,6.212,83.072,10.433,92.285,11.369c13.977-1.423,99.662-10.412,156.743-22.479c10.803-2.284,21.419,4.622,23.704,15.431
				c2.285,10.807-4.624,21.42-15.431,23.704c-64.182,13.569-159.056,22.957-163.063,23.35
				C1137.734,987.903,1137.083,987.935,1136.431,987.935z"/>
			<path fill="#FFFCBD" d="M1136.431,980.935c-0.419,0-0.846-0.021-1.269-0.063c-0.54-0.053-54.835-5.411-108.444-13.646
				c-31.729-4.874-57.106-9.805-75.424-14.653c-11.583-3.066-20.341-6.08-26.775-9.213c-11.147-5.429-16.567-12.135-16.567-20.499
				c0-31.073,25.28-56.354,56.354-56.354h344.25c31.073,0,56.354,25.28,56.354,56.354c0,7.168-5.832,13-13,13s-13-5.832-13-13
				c0-16.737-13.616-30.354-30.354-30.354h-344.25c-12.883,0-24.4,8.178-28.66,20.348l-2.213,6.325l6.222,2.487
				c11.951,4.777,39.605,12.425,103.481,21.725c42.124,6.133,81.515,10.281,92.585,11.406l0.708,0.072l0.708-0.072
				c16.299-1.659,100.494-10.547,157.481-22.595c0.895-0.189,1.806-0.285,2.708-0.285c6.096,0,11.437,4.338,12.7,10.315
				c0.719,3.396,0.07,6.87-1.824,9.78s-4.809,4.909-8.206,5.627c-63.911,13.512-158.311,22.841-162.298,23.231
				C1137.278,980.914,1136.851,980.935,1136.431,980.935z"/>
			<path fill="#FFFFFF" d="M1136.431,973.935c-0.196,0-0.396-0.011-0.593-0.03c-0.532-0.052-54.276-5.336-108.057-13.598
				c-31.48-4.836-56.612-9.715-74.696-14.501c-11.138-2.949-19.479-5.808-25.501-8.74c-11.322-5.514-12.631-10.748-12.631-14.205
				c0-27.214,22.14-49.354,49.354-49.354h344.25c27.214,0,49.354,22.14,49.354,49.354c0,3.309-2.691,6-6,6s-6-2.691-6-6
				c0-20.597-16.757-37.354-37.354-37.354h-344.25c-15.854,0-30.026,10.061-35.267,25.035l-4.426,12.65l12.443,4.975
				c12.304,4.918,40.52,12.754,105.072,22.151c42.289,6.157,81.787,10.315,92.885,11.443l1.417,0.145l1.419-0.145
				c16.358-1.665,100.876-10.587,158.219-22.71c0.42-0.089,0.843-0.134,1.26-0.134c2.808,0,5.269,2.003,5.852,4.764
				c0.337,1.59,0.045,3.15-0.842,4.513c-0.888,1.363-2.197,2.262-3.787,2.598c-63.517,13.429-157.561,22.725-161.533,23.113
				C1136.827,973.924,1136.627,973.935,1136.431,973.935z"/>
		</g>
		<g>
			<path fill="#FF9406" d="M1309.909,1105.578H962.954c-35.121,0-63.694-28.573-63.694-63.693c0-29.44,19.959-54.88,48.537-61.865
				c10.73-2.62,21.555,3.949,24.177,14.679s-3.949,21.555-14.679,24.177c-10.619,2.596-18.035,12.058-18.035,23.01
				c0,13.064,10.629,23.693,23.694,23.693h346.955c13.065,0,23.694-10.629,23.694-23.693c0-9.473-5.549-17.831-13.919-21.596
				c-62.394,15.775-176.329,27.064-181.301,27.551c-1.299,0.127-2.605,0.127-3.904,0c-3.046-0.299-75.308-7.44-136.59-18.257
				c-10.877-1.92-18.14-12.294-16.22-23.172c1.92-10.877,12.293-18.144,23.172-16.219c54.307,9.585,119.55,16.418,131.589,17.643
				c15.943-1.624,125.1-13.085,178.624-27.683c3.271-0.894,6.717-0.939,10.012-0.133c28.578,6.985,48.538,32.425,48.538,61.865
				C1373.603,1077.005,1345.03,1105.578,1309.909,1105.578z"/>
			<path fill="#FFC07B" d="M962.954,1098.578c-31.261,0-56.694-25.433-56.694-56.693c0-26.205,17.764-48.849,43.199-55.065
				c1.02-0.249,2.064-0.376,3.101-0.376c6,0,11.188,4.078,12.615,9.917c0.824,3.373,0.286,6.865-1.516,9.834
				c-1.802,2.968-4.652,5.057-8.025,5.881c-13.762,3.364-23.374,15.622-23.374,29.81c0,16.925,13.77,30.693,30.694,30.693h346.954
				c16.926,0,30.695-13.769,30.695-30.693c0-12.066-7.085-23.049-18.049-27.98l-2.224-1l-2.363,0.598
				c-61.968,15.668-175.467,26.899-180.268,27.37c-0.42,0.041-0.847,0.063-1.27,0.063c-0.422,0-0.85-0.021-1.271-0.063
				c-3.034-0.298-75.067-7.419-136.055-18.184c-7.06-1.246-11.789-8.003-10.543-15.062c1.099-6.226,6.471-10.744,12.772-10.744
				c0.76,0,1.529,0.067,2.286,0.201c54.434,9.607,119.591,16.441,132.1,17.714l0.709,0.072l0.708-0.072
				c20.652-2.104,126.376-13.335,179.756-27.894c1.116-0.305,2.267-0.459,3.421-0.459c1.038,0,2.076,0.126,3.084,0.372
				c25.439,6.219,43.204,28.862,43.204,55.066c0,31.261-25.434,56.693-56.695,56.693H962.954z"/>
			<path fill="#FFF0E1" d="M962.954,1091.578c-27.401,0-49.694-22.292-49.694-49.693c0-22.97,15.569-42.817,37.861-48.266
				c0.477-0.116,0.962-0.176,1.438-0.176c2.765,0,5.156,1.883,5.815,4.579c0.386,1.579,0.144,3.149-0.7,4.539
				c-0.843,1.39-2.124,2.328-3.703,2.714c-16.905,4.133-28.712,19.187-28.712,36.609c0,20.784,16.91,37.693,37.694,37.693h346.954
				c20.785,0,37.695-16.909,37.695-37.693c0-14.816-8.705-28.305-22.178-34.363l-4.447-2l-4.727,1.195
				c-61.42,15.529-174.453,26.721-179.234,27.19c-0.192,0.019-0.391,0.029-0.587,0.029c-0.197,0-0.396-0.011-0.592-0.029
				c-3.023-0.297-74.862-7.404-135.517-18.11c-1.573-0.277-2.947-1.155-3.868-2.472s-1.276-2.907-0.998-4.479
				c0.507-2.875,2.979-4.961,5.879-4.961c0.354,0,0.713,0.032,1.068,0.095c54.672,9.649,120.057,16.508,132.609,17.784l1.418,0.145
				l1.419-0.145c20.745-2.113,126.97-13.399,180.887-28.104c0.517-0.141,1.048-0.212,1.579-0.212c0.477,0,0.955,0.058,1.423,0.172
				c22.294,5.45,37.865,25.298,37.865,48.267c0,27.401-22.293,49.693-49.695,49.693H962.954z"/>
		</g>
		<g>
			<path fill="#FF9406" d="M1353.376,637.305H918.397c-11.046,0-20-8.954-20-20c0-63.436,24.703-123.074,69.559-167.93
				c44.855-44.856,104.495-69.559,167.93-69.559c51.859,0,101.133,16.419,142.493,47.481c39.982,30.028,70.03,72.767,84.608,120.342
				c3.236,10.561-2.701,21.746-13.263,24.981c-10.563,3.237-21.746-2.702-24.981-13.263
				c-25.575-83.465-101.472-139.542-188.857-139.542c-102.143,0-186.424,77.954-196.484,177.489h413.974c11.046,0,20,8.954,20,20
				S1364.422,637.305,1353.376,637.305z"/>
			<path fill="#FFC07B" d="M918.397,630.304c-7.168,0-13-5.832-13-13c0-61.566,23.975-119.447,67.509-162.98
				c43.533-43.534,101.414-67.509,162.98-67.509c50.332,0,98.151,15.934,138.289,46.079c38.809,29.147,67.973,70.625,82.12,116.796
				c1.018,3.32,0.682,6.838-0.946,9.904c-1.629,3.067-4.354,5.316-7.675,6.333c-1.248,0.382-2.532,0.576-3.817,0.576
				c-5.743,0-10.734-3.695-12.419-9.196c-26.483-86.426-105.069-144.493-195.551-144.493c-105.395,0-192.859,79.01-203.449,183.785
				l-0.779,7.704h421.716c7.168,0,13,5.832,13,13s-5.832,13-13,13H918.397z"/>
			<path fill="#FFF0E1" d="M918.397,623.304c-3.309,0-6-2.691-6-6c0-59.696,23.247-115.819,65.458-158.03
				c42.211-42.211,98.334-65.458,158.031-65.458c48.803,0,95.169,15.449,134.084,44.676c37.635,28.265,65.914,68.484,79.632,113.249
				c0.477,1.555,0.325,3.136-0.437,4.571c-0.763,1.435-1.987,2.446-3.543,2.923c-0.583,0.179-1.177,0.269-1.767,0.269
				c-2.647,0-4.948-1.706-5.726-4.246c-27.391-89.387-108.667-149.443-202.245-149.443c-109.003,0-199.461,81.717-210.413,190.081
				l-1.558,15.408h429.459c3.309,0,6,2.691,6,6s-2.691,6-6,6H918.397z"/>
		</g>
		<g>
			<path fill="#FF00FF" d="M676.977,1143.097c-4.803,0-9.428-1.445-13.376-4.179c-12.327-8.532-24.594-17.528-36.459-26.736
				c-10.224-7.937-12.096-22.718-4.173-32.951l13.862-17.908c3.845-4.968,9.396-8.14,15.628-8.93
				c0.975-0.124,1.972-0.188,2.959-0.188c5.187,0,10.302,1.753,14.403,4.936c10.868,8.435,22.106,16.676,33.401,24.495
				c10.641,7.367,13.315,22.024,5.962,32.675l-12.871,18.639c-3.569,5.17-8.938,8.639-15.12,9.767
				C679.801,1142.969,678.384,1143.097,676.977,1143.097z"/>
			<path fill="#FB7DFF" d="M667.586,1133.164c2.778,1.924,6.059,2.934,9.391,2.934c0.986,0,1.978-0.089,2.962-0.268
				c4.308-0.786,8.127-3.253,10.616-6.857l12.871-18.639c5.173-7.492,3.3-17.759-4.186-22.941
				c-11.4-7.892-22.741-16.209-33.708-24.721c-3.46-2.686-7.849-3.888-12.191-3.334c-4.345,0.551-8.293,2.807-10.974,6.271
				l-13.862,17.908c-5.574,7.199-4.262,17.553,2.93,23.136C643.197,1115.781,655.36,1124.701,667.586,1133.164z"/>
			<path fill="#FEEEFF" d="M676.977,1129.097c-1.941,0-3.811-0.584-5.406-1.688c-12.12-8.39-24.18-17.233-35.845-26.287
				c-4.133-3.208-4.89-9.184-1.687-13.32l13.862-17.908c1.555-2.01,3.799-3.292,6.319-3.611c0.399-0.051,0.801-0.076,1.199-0.076
				c2.095,0,4.162,0.709,5.82,1.996c11.067,8.59,22.512,16.982,34.016,24.946c4.302,2.978,5.383,8.903,2.41,13.208l-12.871,18.639
				c-1.443,2.091-3.614,3.493-6.112,3.948C678.122,1129.046,677.547,1129.097,676.977,1129.097z"/>
			<path fill="#FF00FF" d="M634.412,1204.738c-4.801,0-9.426-1.444-13.374-4.177c-13.428-9.295-26.8-19.102-39.745-29.146
				c-10.226-7.936-12.099-22.718-4.174-32.951l13.863-17.909c3.844-4.967,9.395-8.139,15.628-8.929
				c0.977-0.124,1.971-0.187,2.956-0.187c5.19,0,10.307,1.753,14.407,4.936c11.937,9.264,24.279,18.315,36.685,26.902
				c10.642,7.366,13.317,22.024,5.962,32.675l-12.87,18.639c-3.568,5.168-8.937,8.637-15.117,9.766
				C637.237,1204.61,635.819,1204.738,634.412,1204.738z"/>
			<path fill="#FB7DFF" d="M607.49,1118.57c-4.345,0.551-8.292,2.806-10.973,6.27l-13.863,17.909
				c-5.574,7.199-4.262,17.554,2.931,23.136c12.846,9.969,26.114,19.699,39.437,28.921c2.778,1.923,6.058,2.933,9.391,2.933
				c0.987,0,1.979-0.089,2.962-0.268c4.308-0.787,8.127-3.253,10.615-6.857l12.87-18.639c5.174-7.492,3.3-17.76-4.187-22.941
				c-12.502-8.654-24.948-17.781-36.993-27.129C616.221,1119.218,611.835,1118.019,607.49,1118.57z"/>
			<path fill="#FEEEFF" d="M634.412,1190.738c-1.941,0-3.811-0.584-5.407-1.688c-13.219-9.15-26.384-18.805-39.128-28.695
				c-4.134-3.208-4.891-9.183-1.688-13.32l13.864-17.909c1.555-2.009,3.798-3.291,6.318-3.61c0.395-0.05,0.797-0.075,1.195-0.075
				c2.098,0,4.166,0.708,5.823,1.994c12.137,9.42,24.687,18.623,37.3,27.355c4.303,2.978,5.384,8.902,2.411,13.208l-12.87,18.639
				c-1.443,2.09-3.614,3.492-6.113,3.949C635.558,1190.686,634.982,1190.738,634.412,1190.738z"/>
			<path fill="#FF00FF" d="M1063.761,1282.824c-0.706,0-1.417-0.032-2.114-0.095c-14.305-1.278-28.757-2.947-42.951-4.959
				c-6.22-0.883-11.721-4.134-15.492-9.154c-3.771-5.021-5.36-11.212-4.475-17.43l3.196-22.422
				c1.641-11.507,11.633-20.185,23.245-20.185c1.104,0,2.221,0.078,3.32,0.234c13.013,1.846,26.257,3.375,39.367,4.545
				c6.253,0.558,11.915,3.519,15.943,8.337c4.027,4.819,5.935,10.917,5.374,17.171l-2.026,22.558
				C1086.052,1273.624,1075.999,1282.824,1063.761,1282.824z"/>
			<path fill="#FB7DFF" d="M1067.235,1220.332c-13.224-1.181-26.59-2.724-39.727-4.587c-9.02-1.278-17.367,4.991-18.652,14.008
				l-3.196,22.421c-0.618,4.335,0.512,8.737,3.142,12.238s6.542,5.813,10.877,6.428c14.082,1.996,28.413,3.65,42.595,4.918
				c0.5,0.045,0.995,0.066,1.487,0.066c8.446,0,15.645-6.451,16.415-15.025l2.026-22.558c0.391-4.359-0.966-8.696-3.773-12.056
				C1075.622,1222.827,1071.595,1220.72,1067.235,1220.332z"/>
			<path fill="#FEEEFF" d="M1063.761,1268.824c-0.289,0-0.578-0.013-0.86-0.038c-14.073-1.258-28.284-2.898-42.24-4.877
				c-2.514-0.356-4.738-1.671-6.263-3.701c-1.524-2.029-2.167-4.532-1.809-7.047l3.196-22.42c0.664-4.653,4.698-8.161,9.385-8.161
				c0.449,0,0.905,0.032,1.355,0.096c13.25,1.88,26.737,3.437,40.087,4.629c2.529,0.225,4.818,1.422,6.446,3.37
				c1.627,1.947,2.399,4.412,2.172,6.94l-2.026,22.558C1072.768,1265.024,1068.62,1268.824,1063.761,1268.824z"/>
			<path fill="#FF00FF" d="M1595.024,1143.096c-1.409,0-2.829-0.129-4.219-0.382c-6.181-1.128-11.55-4.597-15.119-9.767
				l-12.869-18.638c-7.355-10.65-4.681-25.309,5.962-32.676c11.288-7.813,22.525-16.053,33.399-24.493
				c4.101-3.183,9.217-4.936,14.404-4.936c0.986,0,1.982,0.063,2.962,0.188c6.229,0.79,11.779,3.961,15.626,8.93l13.862,17.91
				c7.921,10.232,6.049,25.013-4.174,32.947c-11.86,9.207-24.128,18.203-36.461,26.739
				C1604.449,1141.652,1599.825,1143.096,1595.024,1143.096z"/>
			<path fill="#FB7DFF" d="M1606.47,1062.672c-10.97,8.514-22.31,16.83-33.707,24.719c-7.487,5.183-9.36,15.45-4.187,22.942
				l12.87,18.639c2.488,3.604,6.307,6.07,10.615,6.856c0.984,0.18,1.975,0.269,2.962,0.269c3.332,0,6.612-1.01,9.391-2.933
				c12.229-8.464,24.392-17.384,36.152-26.513c7.191-5.582,8.503-15.935,2.931-23.134l-13.862-17.909
				c-2.682-3.464-6.629-5.72-10.975-6.271C1614.317,1058.785,1609.93,1059.986,1606.47,1062.672z"/>
			<path fill="#FEEEFF" d="M1595.024,1129.096c-0.568,0-1.143-0.052-1.705-0.154c-2.499-0.456-4.669-1.858-6.111-3.947
				l-12.871-18.64c-2.973-4.306-1.892-10.231,2.411-13.209c11.495-7.957,22.939-16.35,34.015-24.944
				c1.658-1.287,3.725-1.996,5.82-1.996c0.397,0,0.8,0.025,1.194,0.076c2.523,0.319,4.768,1.602,6.323,3.611l13.862,17.908
				c3.201,4.138,2.444,10.112-1.688,13.32c-11.66,9.051-23.72,17.895-35.844,26.286
				C1598.834,1128.512,1596.965,1129.096,1595.024,1129.096z"/>
			<path fill="#FF00FF" d="M1136.072,1413.188c-28.549,0-57.414-1.285-85.794-3.818c-6.254-0.558-11.917-3.52-15.944-8.339
				c-0.312-0.373-0.611-0.755-0.897-1.143c-4.162,3.659-9.606,5.859-15.493,5.859c-0.984,0-1.98-0.063-2.961-0.187
				c-34.531-4.371-69.175-10.689-102.972-18.78c-6.108-1.462-11.28-5.217-14.564-10.571c-3.283-5.356-4.282-11.669-2.814-17.775
				l1.662-6.914c-1.335,0.237-2.704,0.361-4.091,0.361c-2.129,0-4.255-0.293-6.32-0.869c-6.046-1.687-11.073-5.628-14.155-11.097
				c-3.082-5.468-3.85-11.81-2.163-17.855l32.724-117.247c2.281-8.174,8.621-14.287,16.531-16.392l2.192-8.334
				c-11.49-3.398-22.977-7.094-34.293-11.031l-3.123,8.127c1.211,1.498,2.24,3.144,3.05,4.894
				c2.641,5.699,2.902,12.084,0.737,17.979l-33.632,91.587c-3.382,9.214-12.247,15.404-22.059,15.404
				c-2.759,0-5.48-0.484-8.087-1.44c-14.948-5.478-29.944-11.431-44.571-17.694c-5.771-2.471-10.234-7.042-12.567-12.87
				c-2.333-5.829-2.256-12.218,0.217-17.988l38.43-89.682c3.317-7.743,10.457-13.035,18.671-14.064l3.259-7.936
				c-11.216-5.02-22.388-10.349-33.349-15.91l-4.121,7.531c4.345,6.974,4.767,15.799,0.787,23.341l-51.095,96.845
				c4.344,8.299,8.874,16.616,13.503,24.794c32.639,15.114,66.513,28.41,100.721,39.53c5.969,1.94,10.826,6.089,13.675,11.683
				c2.849,5.593,3.35,11.961,1.409,17.931c-3.158,9.714-12.138,16.24-22.346,16.24c-2.462,0-4.908-0.389-7.268-1.156
				c-38.451-12.499-76.452-27.592-112.947-44.858c-4.338-2.052-7.899-5.333-10.3-9.488c-8.386-14.522-16.434-29.398-23.92-44.217
				c-0.686-1.356-1.231-2.765-1.637-4.203c-1.447,0.427-2.943,0.717-4.472,0.858c-16.696,1.548-33.722,2.598-50.605,3.123
				c-0.252,0.007-0.491,0.011-0.73,0.011c-4.481,0-8.848-1.272-12.626-3.681c-51.517-32.82-100.27-70.929-144.902-113.264
				c-9.396-8.914-9.793-23.814-0.885-33.215l35.939-37.927c4.32-4.558,10.155-7.159,16.431-7.327
				c0.21-0.006,0.426-0.009,0.642-0.009c2.631,0,5.213,0.437,7.661,1.283l24.114-26.277c4.359-4.751,10.526-7.513,16.967-7.61
				c-7.233-9.012-6.886-22.248,1.278-30.864l35.939-37.926c4.317-4.558,10.153-7.16,16.431-7.329
				c0.21-0.005,0.412-0.008,0.613-0.008c6.053,0,11.802,2.291,16.187,6.449c33.052,31.351,69.139,59.56,107.259,83.845
				c4.775,3.041,8.292,7.705,9.903,13.134c1.253,4.224,2.591,8.562,4.003,12.979c2.407-1.969,5.209-3.451,8.284-4.352
				c2.149-0.626,4.366-0.943,6.598-0.943c3.936,0,7.839,0.999,11.289,2.888c22.933,12.56,46.826,23.958,71.016,33.88
				c2.554,1.047,4.901,2.539,6.931,4.392c2.759,0.04,5.474,0.564,8.074,1.562c24.121,9.254,49.048,17.272,74.09,23.832
				c2.469,0.647,4.831,1.706,6.969,3.115c0.724-0.067,1.451-0.102,2.177-0.102c1.83,0,3.664,0.217,5.45,0.644
				c41.957,10.044,85.117,16.289,128.285,18.562c12.94,0.682,22.913,11.764,22.231,24.704c-0.107,2.038-0.472,4.004-1.061,5.867
				c2.596-0.994,5.407-1.539,8.338-1.539l0.295,0.002c4.758,0.051,9.334,1.563,13.156,4.233
				c9.455-8.692,18.721-17.709,27.568-26.829c4.048-4.175,9.475-6.69,15.279-7.084c29.513-2.001,59.181-5.883,88.179-11.538
				c1.478-0.288,2.99-0.435,4.496-0.435c4.261,0,8.443,1.158,12.094,3.35c3.306,1.983,6.732,3.993,10.256,6.016
				c0.456-2.826,1.435-5.573,2.922-8.119c3.168-5.425,8.259-9.289,14.334-10.882c38.827-10.178,76.999-23.751,113.455-40.343
				c3.082-1.404,6.354-2.116,9.724-2.116c5.492,0,10.701,1.93,14.816,5.267c-0.194-8.63,4.387-17.059,12.525-21.353
				c2.313-1.22,4.824-2.045,7.402-2.441c1.741-1.945,3.805-3.6,6.093-4.872c39.155-21.781,76.487-47.503,110.957-76.45
				c4.228-3.55,9.592-5.505,15.105-5.505c6.966,0,13.528,3.058,18.005,8.389c1.553,1.849,2.792,3.888,3.699,6.053
				c1.242-3.476,3.321-6.705,6.225-9.369c4.348-3.989,9.989-6.187,15.886-6.187c6.567,0,12.88,2.774,17.318,7.612l35.84,39.058
				c4.901,5.339,7.084,12.791,5.836,19.933c-0.119,0.679-0.238,1.359-0.359,2.04c0.443-0.051,0.885-0.103,1.326-0.154
				c0.908-0.106,1.826-0.159,2.733-0.159c6.57,0,12.884,2.773,17.323,7.609l4.932,5.375c2.449-0.848,5.034-1.284,7.67-1.284
				c0.212,0,0.425,0.003,0.637,0.009c6.272,0.168,12.108,2.771,16.428,7.327l35.938,37.928c8.907,9.401,8.51,24.3-0.886,33.212
				c-23.078,21.893-47.466,42.839-72.485,62.257c-4.103,3.183-9.218,4.936-14.403,4.936c-0.986,0-1.982-0.063-2.961-0.188
				c-0.9-0.114-1.787-0.278-2.656-0.49c-0.348,6.92-3.729,13.626-9.783,17.959c-29.229,20.918-59.955,40.372-91.325,57.822
				c-3.138,1.745-6.651,2.75-10.231,2.934c-2.1,2.887-4.846,5.283-8.02,6.959c-64.383,33.995-132.824,60.616-203.422,79.122
				c-1.957,0.512-3.965,0.771-5.97,0.771c-9.713,0-18.332-5.983-21.84-14.852c-6.407,7.156-12.864,14.14-19.287,20.857
				c-3.374,3.53-7.691,5.892-12.486,6.827c-39.179,7.641-79.255,12.885-119.116,15.586c-0.528,0.036-1.068,0.055-1.604,0.055
				c-12.307,0-22.598-9.625-23.43-21.913c-0.876-12.927,8.93-24.157,21.857-25.034c35.41-2.4,71.04-6.915,105.945-13.423
				c6.269-6.676,12.47-13.501,18.488-20.346l-14.935-62.074c-12.234,2.565-24.613,4.873-36.958,6.891l0.769,5.684
				c11.17,0.467,20.415,8.654,22.18,19.813l3.537,22.371c0.98,6.204-0.515,12.418-4.21,17.496s-9.147,8.412-15.353,9.388
				c-15.46,2.431-31.192,4.487-46.758,6.114c-0.814,0.087-1.653,0.131-2.48,0.131c-12.041,0-22.072-9.048-23.333-21.047
				l-10.199-97.01c-0.656-6.245,1.159-12.371,5.112-17.25c3.953-4.88,9.57-7.927,15.815-8.579
				c13.103-1.371,26.328-3.101,39.309-5.143c1.214-0.19,2.447-0.287,3.668-0.287c7.986,0,15.246,4.018,19.525,10.43
				c5.447-1.011,10.909-2.085,16.334-3.212l-0.839-3.487c-7.081-3.811-14.132-7.759-21.026-11.775
				c-25.119,4.587-50.726,7.938-76.192,9.97c-5.618,5.646-11.402,11.268-17.246,16.763l3.449,135.205
				c0.16,6.274-2.133,12.236-6.457,16.787c-3.418,3.598-7.782,5.972-12.561,6.888l0.022,5.191
				c0.027,6.275-2.391,12.188-6.809,16.646c-4.421,4.459-10.312,6.929-16.588,6.957
				C1138.842,1413.185,1137.456,1413.188,1136.072,1413.188z M1077.904,1364.343c12.83,0.812,25.767,1.359,38.616,1.636
				l-0.033-7.417c-2.436-1.173-4.66-2.765-6.584-4.729c-4.393-4.486-6.775-10.413-6.709-16.69l0.185-17.539
				c-5.551-4.515-11.063-9.121-16.423-13.725c-5.462-4.691-8.441-11.509-8.173-18.703c0.269-7.196,3.747-13.772,9.543-18.044
				c5.254-3.871,10.527-7.866,15.711-11.904l0.441-41.786c0.025-2.38,0.409-4.679,1.1-6.843c-2.598,0.987-5.413,1.526-8.349,1.526
				c-0.408,0-0.818-0.011-1.229-0.032c-38.139-2.009-76.402-6.944-113.841-14.678l-2.026,8.429c1.417,1.339,2.667,2.852,3.711,4.499
				c3.362,5.304,4.457,11.601,3.08,17.729l-21.372,95.185c-2.054,9.148-9.111,15.961-17.93,17.837l-1.72,7.156
				c17.095,3.625,34.434,6.786,51.722,9.432l0.937-7.355c-2.269-1.482-4.272-3.355-5.928-5.561
				c-3.771-5.02-5.36-11.209-4.474-17.427l3.196-22.423c1.64-11.508,11.632-20.187,23.242-20.187c1.105,0,2.223,0.079,3.323,0.235
				c14.298,2.028,28.846,3.708,43.238,4.992c6.253,0.558,11.916,3.52,15.943,8.339c4.027,4.818,5.935,10.917,5.373,17.172
				L1077.904,1364.343z M1390.608,1330.079c51.525-14.946,101.867-34.524,149.846-58.275l-8.956-16.974
				c-8.02,3.965-16.15,7.834-24.287,11.556c-0.013,2.955-0.574,5.908-1.675,8.657c-2.334,5.829-6.797,10.399-12.568,12.87
				c-14.576,6.241-29.517,12.174-44.406,17.635c-2.606,0.957-5.33,1.442-8.091,1.442c-9.809,0-18.674-6.189-22.059-15.402
				l-7.812-21.261c-2.166-5.896-1.906-12.281,0.733-17.979c2.638-5.699,7.339-10.028,13.235-12.189
				c6.393-2.344,12.838-4.799,19.237-7.327l-2.074-4.84c-6.326,2.498-12.695,4.924-19.008,7.238
				c-2.607,0.957-5.33,1.442-8.091,1.442c-9.809,0-18.673-6.189-22.058-15.399l-7.813-21.265c-2.166-5.896-1.904-12.28,0.734-17.978
				c2.638-5.697,7.337-10.026,13.231-12.189c12.512-4.588,25.065-9.573,37.313-14.816c2.945-1.261,6.054-1.9,9.239-1.9
				c5.917,0,11.481,2.183,15.737,6.025c5.348-2.469,10.694-5.011,15.988-7.602l-13.965-26.469c-0.235,1.727-0.666,3.438-1.292,5.111
				c-2.201,5.878-6.561,10.548-12.273,13.147c-31.712,14.434-64.767,26.77-98.347,36.708l2.217,8.424
				c7.831,2.152,14.107,8.249,16.366,16.344l26.227,93.969c1.689,6.05,0.919,12.396-2.169,17.866
				c-1.333,2.364-3.045,4.454-5.063,6.204L1390.608,1330.079z M1599.115,1240.004c15.967-9.438,31.777-19.45,47.156-29.86
				l-4.173-5.847c-1.486,0.291-3.001,0.44-4.514,0.44c-1.407,0-2.823-0.128-4.209-0.379c-6.187-1.129-11.556-4.598-15.125-9.769
				l-12.869-18.638c-7.355-10.65-4.681-25.309,5.962-32.676c12.41-8.59,24.753-17.642,36.684-26.902
				c4.103-3.182,9.219-4.935,14.409-4.935c0.982,0,1.976,0.063,2.95,0.186c6.235,0.791,11.785,3.961,15.631,8.929l31.261,40.385
				c11.284-9.236,22.445-18.824,33.308-28.61l-4.819-5.086c-2.554,0.93-5.264,1.409-8.036,1.409c-0.33,0-0.66-0.007-0.99-0.021
				c-6.278-0.268-12.073-2.964-16.318-7.591l-11.547-12.584c-7.424,0.751-14.894,1.396-22.255,1.92
				c-0.561,0.039-1.108,0.058-1.654,0.058c-6.825,0-13.301-2.953-17.768-8.103c-4.821-5.563-6.771-13.175-5.214-20.366
				c1.44-6.656,2.813-13.419,4.091-20.149l-27.943-30.449c-1.895-2.064-3.349-4.379-4.369-6.827
				c-1.385,3.876-3.777,7.331-7.013,10.048c-30.694,25.775-63.631,49.231-97.991,69.789l4.132,7.436
				c2.061,0,4.114,0.271,6.102,0.808c6.058,1.628,11.124,5.522,14.258,10.964l48.693,84.549c4.746,8.242,4.034,18.206-1.339,25.553
				L1599.115,1240.004z M1490.452,1222.361c13.53-6.249,26.968-12.892,40.034-19.791c2.367-1.25,4.945-2.086,7.592-2.473
				l-12.554-21.798c-1.641,1.644-3.533,3.053-5.631,4.161c-12.541,6.621-25.428,12.998-38.397,19L1490.452,1222.361z
				 M526.415,1132.328c35.829,32.281,74.297,61.81,114.451,87.851c9.456-0.382,18.988-0.94,28.417-1.663l14.556-25.287
				c-2.802-6.758-5.534-13.595-8.137-20.368c-2.607-6.786-1.892-14.535,1.913-20.729c3.804-6.193,10.393-10.335,17.625-11.077
				c6.636-0.68,13.34-1.466,19.979-2.34l15.322-26.617c-2.716-7.838-5.318-15.767-7.757-23.64
				c-31.372-20.51-61.504-43.599-89.684-68.718l-5.638,5.95c2.731,7.999,0.977,17.053-4.947,23.496
				c-4.439,4.827-10.747,7.595-17.307,7.595c-1.558,0-3.098-0.153-4.6-0.452c0.518,1.79,0.824,3.653,0.906,5.562
				c0.269,6.271-1.92,12.272-6.164,16.897l-38.772,42.253c-4.247,4.627-10.041,7.323-16.314,7.591
				c-0.334,0.014-0.669,0.021-1.004,0.021c-2.769,0-5.476-0.479-8.028-1.409L526.415,1132.328z"/>
			<path fill="#FB7DFF" d="M1790.985,1122.083l-35.938-37.927c-3.012-3.178-7.161-5.028-11.537-5.146
				c-3.479-0.095-6.892,0.921-9.738,2.863l-8.467-9.227c-3.583-3.903-8.827-5.845-14.082-5.231c-3.563,0.419-7.14,0.812-10.72,1.177
				c0.708-3.748,1.389-7.493,2.04-11.22c0.882-5.048-0.632-10.22-4.098-13.995l-35.841-39.058
				c-6.16-6.714-16.597-7.163-23.313-1.001c-6.714,6.161-7.162,16.599-1.001,23.314l30.312,33.03
				c-1.469,7.93-3.068,15.899-4.774,23.782c-1.099,5.076,0.258,10.374,3.66,14.299c3.403,3.924,8.442,6.011,13.637,5.649
				c8.453-0.602,17.008-1.359,25.53-2.263l13.926,15.177c2.96,3.226,7.081,5.143,11.456,5.329c3.654,0.154,7.253-0.913,10.216-3.005
				l13.334,14.071c-14.412,13.189-29.287,25.967-44.456,38.186l-35.646-46.05c-2.682-3.463-6.629-5.718-10.974-6.269
				c-4.351-0.55-8.731,0.65-12.19,3.334c-12.041,9.346-24.487,18.473-36.991,27.128c-7.487,5.183-9.36,15.45-4.187,22.942
				l12.87,18.639c2.488,3.604,6.308,6.071,10.615,6.857c3.484,0.633,7.055,0.129,10.198-1.403l11.297,15.827
				c-19.365,13.333-39.335,25.979-59.648,37.77l-9.457-17.022c6.161-5.021,7.954-13.907,3.86-21.017l-48.692-84.548
				c-2.185-3.793-5.787-6.563-10.015-7.699c-2.687-0.725-5.486-0.747-8.144-0.108l-9.694-17.447
				c36.167-21.19,70.725-45.563,102.916-72.596c6.979-5.86,7.885-16.269,2.024-23.247c-5.859-6.979-16.269-7.885-23.247-2.024
				c-34.811,29.233-72.513,55.21-112.057,77.207c-2.458,1.367-4.427,3.272-5.849,5.484c-2.627-0.016-5.296,0.593-7.782,1.904
				c-8.06,4.252-11.146,14.232-6.895,22.293l23.104,43.791c-9.032,4.525-18.179,8.888-27.384,13.061
				c-4.275-6.657-12.855-9.451-20.368-6.234c-12.354,5.289-25.023,10.32-37.656,14.953c-4.11,1.508-7.452,4.587-9.291,8.559
				c-1.84,3.973-2.024,8.514-0.516,12.622l7.813,21.264c3.142,8.549,12.615,12.938,21.168,9.8c8.396-3.078,16.813-6.323,25.162-9.7
				l7.589,17.71c-8.652,3.504-17.381,6.871-26.087,10.063c-4.111,1.507-7.454,4.586-9.293,8.559
				c-1.84,3.973-2.024,8.515-0.515,12.624l7.812,21.261c3.142,8.55,12.616,12.941,21.169,9.802
				c14.773-5.418,29.598-11.305,44.062-17.497c4.023-1.723,7.197-4.973,8.824-9.036c1.322-3.304,1.533-6.924,0.641-10.324
				c11.713-5.276,23.349-10.826,34.817-16.607l15.488,29.354c-52.478,26.5-107.616,47.943-164.325,63.909l-4.978-18.916
				c2.921-1.46,5.365-3.766,6.993-6.65c2.152-3.813,2.7-8.326,1.522-12.544l-26.227-93.969c-1.975-7.076-8.272-11.781-15.239-12.056
				l-5.106-19.409c35.533-10.164,70.429-23.006,103.952-38.264c8.294-3.774,11.958-13.559,8.183-21.853
				c-3.775-8.295-13.562-11.959-21.853-8.183c-36.813,16.755-75.364,30.464-114.579,40.743c-4.236,1.11-7.856,3.859-10.064,7.64
				c-2.208,3.781-2.823,8.285-1.709,12.52l1.286,4.886c-7.579-4.156-15.081-8.437-22.402-12.83
				c-3.496-2.099-7.649-2.826-11.647-2.047c-29.287,5.712-59.246,9.632-89.046,11.652c-4.068,0.275-7.89,2.047-10.728,4.974
				c-9.521,9.814-19.524,19.514-29.731,28.827c-1.028,0.938-1.904,2.002-2.653,3.144c-2.934-4.323-7.861-7.191-13.481-7.25
				c-0.06-0.001-0.119-0.001-0.178-0.001c-9.031,0-16.4,7.273-16.496,16.326l-0.476,45.151c-6.089,4.787-12.295,9.512-18.523,14.101
				c-4.046,2.981-6.513,7.646-6.701,12.669c-0.187,5.022,1.925,9.856,5.739,13.132c6.169,5.298,12.501,10.567,18.898,15.726
				l-0.221,20.922c-0.046,4.376,1.648,8.592,4.71,11.719c2.339,2.388,5.33,3.992,8.562,4.637l0.086,19.532
				c-17.742-0.242-35.563-0.997-53.26-2.256l5.21-58.007c0.392-4.36-0.965-8.697-3.772-12.057s-6.834-5.466-11.194-5.854
				c-14.505-1.295-29.173-2.988-43.599-5.034c-9.021-1.28-17.367,4.991-18.652,14.009l-3.196,22.422
				c-0.618,4.334,0.512,8.736,3.142,12.236c2.011,2.679,4.773,4.661,7.901,5.72l-2.467,19.377
				c-22.192-3.218-44.368-7.262-66.244-12.08l4.563-18.98c7.827,0.326,14.966-4.981,16.738-12.875l21.372-95.186
				c0.959-4.272,0.181-8.751-2.163-12.448c-1.437-2.268-3.39-4.127-5.671-5.447l4.684-19.484
				c39.224,8.476,79.319,13.832,119.417,15.944c9.096,0.471,16.866-6.51,17.345-15.609c0.479-9.101-6.509-16.866-15.609-17.346
				c-43.595-2.295-87.18-8.602-129.544-18.743c-2.676-0.64-5.352-0.579-7.847,0.048c-1.948-1.766-4.304-3.063-6.895-3.742
				c-25.292-6.625-50.466-14.723-74.822-24.067c-2.781-1.066-5.668-1.332-8.414-0.906c-1.75-2.239-4.065-4.01-6.74-5.106
				c-24.433-10.021-48.564-21.534-71.722-34.217c-3.839-2.103-8.356-2.591-12.558-1.365c-4.202,1.229-7.742,4.077-9.843,7.917
				l-2.736,5.002c-2.971-8.741-5.789-17.53-8.384-26.274c-1.131-3.812-3.6-7.086-6.953-9.222
				c-38.498-24.525-74.941-53.013-108.316-84.669c-3.176-3.013-7.416-4.635-11.795-4.522c-4.376,0.117-8.526,1.968-11.537,5.146
				l-35.939,37.927c-6.265,6.611-5.987,17.05,0.621,23.319c3.056,2.898,6.211,5.845,9.379,8.758
				c6.708,6.167,17.146,5.726,23.314-0.98c5.193-5.648,5.703-13.94,1.729-20.102l13.619-14.373
				c30.019,27.249,62.238,52.082,96.018,74.001c2.946,9.625,6.119,19.279,9.478,28.84l-18.639,32.379
				c-7.834,1.071-15.746,2.018-23.612,2.824c-5.111,0.524-9.687,3.399-12.375,7.777c-2.689,4.378-3.186,9.759-1.343,14.555
				c2.989,7.778,6.137,15.611,9.394,23.375l-18.121,31.479c-11.458,0.934-23.042,1.623-34.585,2.057
				c-43.197-27.863-84.321-59.607-122.509-94.557l13.334-14.071c2.964,2.093,6.559,3.162,10.217,3.005
				c4.374-0.187,8.495-2.104,11.455-5.329l38.772-42.254c6.161-6.714,5.713-17.151-1.001-23.313s-17.151-5.714-23.313,1.002
				l-27.649,30.131c-2.846-1.94-6.247-2.96-9.738-2.863c-4.376,0.117-8.526,1.968-11.537,5.145l-35.939,37.927
				c-6.266,6.612-5.987,17.052,0.622,23.321c44.309,42.028,92.706,79.858,143.846,112.439c2.652,1.689,5.728,2.584,8.865,2.584
				c0.171,0,0.342-0.003,0.513-0.008c16.748-0.521,33.63-1.563,50.176-3.096c5.338-0.495,10.103-3.552,12.777-8.198l5.674-9.856
				l-5.314,10.073c-2.494,4.727-2.544,10.369-0.134,15.14c7.433,14.712,15.418,29.472,23.733,43.871
				c1.678,2.904,4.2,5.229,7.232,6.663c36.227,17.14,73.949,32.121,112.117,44.528c1.695,0.551,3.414,0.813,5.104,0.813
				c6.954,0,13.422-4.433,15.688-11.404c2.817-8.666-1.925-17.976-10.591-20.792c-35.201-11.443-70.009-25.154-103.538-40.783
				c-5.676-9.967-11.177-20.088-16.425-30.22l52.808-100.09c3.466-6.568,2.057-14.414-2.947-19.394l9.603-17.552
				c14.827,7.694,29.971,14.92,45.282,21.604l-7.595,18.496c-7.036-0.77-14.036,3.069-16.965,9.907l-38.43,89.682
				c-1.724,4.023-1.779,8.566-0.152,12.63s4.801,7.314,8.824,9.037c14.528,6.221,29.408,12.127,44.225,17.557
				c8.553,3.136,18.027-1.253,21.166-9.805l33.632-91.587c1.509-4.109,1.323-8.651-0.518-12.624
				c-1.12-2.417-2.796-4.503-4.863-6.104l7.196-18.727c15.429,5.527,31.111,10.572,46.889,15.082l-5.092,19.363
				c-7.027,0.212-13.404,4.935-15.393,12.062l-32.724,117.247c-2.45,8.777,2.68,17.879,11.457,20.328
				c8.401,2.345,17.081-2.263,19.96-10.355l-6.287,26.155c-1.023,4.258-0.313,8.747,1.976,12.48
				c2.289,3.732,5.967,6.403,10.226,7.423c33.549,8.031,67.94,14.304,102.217,18.643c9.036,1.139,17.29-5.25,18.44-14.285l5.6-43.98
				l-3.964,44.136c-0.392,4.36,0.965,8.697,3.772,12.057c2.807,3.359,6.834,5.466,11.195,5.854
				c28.198,2.518,56.829,3.791,85.172,3.791c1.375,0,2.75-0.003,4.125-0.009c4.376-0.02,8.565-1.776,11.646-4.884
				c3.08-3.108,4.801-7.313,4.781-11.689l-0.053-12.009c0.969,0.151,1.961,0.232,2.977,0.206
				c9.109-0.232,16.307-7.806,16.073-16.915l-3.529-138.346c7.214-6.725,14.305-13.611,21.186-20.577
				c26.98-2.059,54.04-5.6,80.62-10.549c8.454,4.968,17.093,9.801,25.809,14.44l3.255,13.531
				c-9.524,2.069-19.117,3.968-28.717,5.684c-2.508-7.505-10.138-12.32-18.21-11.053c-13.095,2.06-26.44,3.806-39.669,5.189
				c-4.354,0.455-8.349,2.622-11.104,6.023s-4.047,7.758-3.589,12.111l10.199,97.011c0.952,9.061,9.076,15.646,18.124,14.686
				c15.438-1.613,31.049-3.654,46.398-6.067c4.325-0.68,8.203-3.051,10.779-6.592c2.576-3.54,3.64-7.959,2.956-12.284l-3.537-22.37
				c-1.423-8.996-9.861-15.142-18.86-13.724c-0.813,0.128-1.63,0.255-2.446,0.381l-2.58-19.085
				c16.747-2.595,33.477-5.714,50.02-9.326l17.379,72.232c-7.336,8.418-14.908,16.764-22.608,24.92
				c-35.899,6.787-72.543,11.477-109.005,13.948c-9.092,0.616-15.963,8.485-15.347,17.577c0.59,8.713,7.841,15.386,16.445,15.386
				c0.375,0,0.753-0.013,1.132-0.039c39.576-2.682,79.36-7.888,118.248-15.472c3.348-0.653,6.411-2.328,8.768-4.794
				c9.442-9.876,18.702-20.058,27.646-30.334l2.595,9.861c1.948,7.404,8.631,12.305,15.946,12.305c1.385,0,2.792-0.176,4.194-0.543
				c70.081-18.37,138.02-44.795,201.93-78.541c3.433-1.813,5.953-4.669,7.397-7.969c0.895,0.148,1.797,0.231,2.697,0.231
				c2.782,0,5.546-0.704,8.021-2.081c31.137-17.32,61.637-36.631,90.654-57.397c7.404-5.299,9.117-15.594,3.827-23.004
				l-30.361-42.534c-1.269-1.777-2.863-3.267-4.68-4.403c0.602-0.445,1.202-0.894,1.802-1.341l35.834,46.292
				c2.681,3.464,6.629,5.719,10.974,6.27c4.351,0.553,8.73-0.649,12.19-3.334c24.836-19.275,49.047-40.069,71.96-61.805
				C1796.971,1139.133,1797.249,1128.695,1790.985,1122.083z M726.505,1195.646c0.123-2.486-0.309-5.002-1.322-7.35
				c-1.429-3.313-2.84-6.647-4.229-9.991c3.792-0.502,7.571-1.032,11.323-1.589c1.793-0.266,3.502-0.831,5.079-1.637
				L726.505,1195.646z M821.942,1262.227c-3.985-1.548-7.965-3.128-11.928-4.735l25.657-59.874c1.768,0.22,3.534,0.15,5.237-0.187
				c0.981,1.371,2.165,2.583,3.509,3.593L821.942,1262.227z M916.257,1303.565l20.333-72.851c1.495-0.022,2.958-0.259,4.362-0.67
				c1.045,1.024,2.218,1.908,3.494,2.621l-14.359,63.952C924.585,1296.483,919.401,1299.154,916.257,1303.565z M1040.942,1328.718
				c-0.091-0.887-0.254-1.763-0.487-2.621c0.238,0.026,0.477,0.053,0.715,0.078L1040.942,1328.718z M1137.224,1295.469
				c-2.834-2.238-5.662-4.504-8.474-6.79c3.028-2.359,6.031-4.735,9-7.12c1.047-0.841,1.964-1.806,2.764-2.852l0.538,21.082
				C1140.05,1298.156,1138.765,1296.687,1137.224,1295.469z M1546.331,1207.587c-4.182-1.292-8.705-0.871-12.576,1.174
				c-15.323,8.091-31.045,15.779-46.914,22.945l-14.47-33.768c14.971-6.775,29.8-14.036,44.254-21.668
				c4.915-2.595,7.965-7.324,8.642-12.445l27.236,47.293C1550.739,1209.525,1548.646,1208.302,1546.331,1207.587z"/>
			<path fill="#FEEEFF" d="M1136.072,1399.188c-28.135,0-56.581-1.267-84.549-3.764c-2.529-0.225-4.818-1.422-6.446-3.37
				c-1.627-1.948-2.399-4.414-2.172-6.941l3.965-44.137l-13.916-1.51l-5.6,43.98c-0.603,4.732-4.647,8.301-9.41,8.301
				c-0.401,0-0.808-0.026-1.21-0.077c-34.021-4.306-68.159-10.532-101.463-18.505c-2.469-0.591-4.561-2.109-5.888-4.274
				c-1.327-2.164-1.73-4.717-1.137-7.186l6.287-26.155l-13.401-3.982c-1.344,3.776-4.931,6.313-8.927,6.313
				c-0.856,0-1.717-0.119-2.556-0.354c-2.444-0.682-4.477-2.275-5.722-4.485c-1.246-2.211-1.557-4.774-0.875-7.219l32.724-117.247
				c1.125-4.029,4.686-6.82,8.862-6.946l5.228-0.158l8.165-31.049l-6.589-1.884c-15.574-4.451-31.203-9.479-46.452-14.941
				l-6.441-2.308l-11.517,29.971l4.114,3.188c1.195,0.926,2.163,2.141,2.798,3.513c1.052,2.271,1.161,4.92,0.298,7.269
				l-33.632,91.587c-1.368,3.728-4.952,6.23-8.917,6.23c-1.11,0-2.209-0.196-3.268-0.585c-14.717-5.394-29.48-11.254-43.879-17.419
				c-2.333-0.999-4.138-2.848-5.081-5.204c-0.943-2.355-0.912-4.938,0.088-7.271l38.43-89.683c1.5-3.5,4.933-5.762,8.746-5.762
				c0.341,0,0.686,0.02,1.024,0.057l5.236,0.572l12.197-29.703l-6.276-2.739c-15.119-6.6-30.211-13.801-44.859-21.401l-6.078-3.154
				l-15.414,28.172l3.727,3.709c2.975,2.96,3.655,7.447,1.694,11.165l-54.516,103.326l1.683,3.25
				c5.279,10.192,10.85,20.441,16.559,30.464l1.104,1.938l2.021,0.942c33.774,15.743,68.876,29.569,104.332,41.096
				c2.413,0.784,4.376,2.461,5.528,4.723c1.152,2.261,1.354,4.835,0.57,7.248c-1.277,3.929-4.906,6.568-9.031,6.568
				c-0.99,0-1.98-0.158-2.941-0.471c-37.886-12.315-75.328-27.187-111.287-44.198c-1.753-0.83-3.194-2.157-4.165-3.838
				c-8.255-14.295-16.177-28.939-23.546-43.525c-1.385-2.742-1.356-6,0.077-8.717l5.314-10.072l-12.257-6.759l-5.674,9.855
				c-1.538,2.671-4.288,4.436-7.357,4.721c-16.411,1.521-33.148,2.553-49.747,3.068l-0.296,0.005c-1.812,0-3.577-0.515-5.104-1.487
				c-50.764-32.342-98.806-69.895-142.79-111.614c-3.798-3.604-3.959-9.628-0.358-13.429l35.939-37.927
				c1.746-1.842,4.105-2.894,6.644-2.962l0.267-0.003c1.907,0,3.753,0.571,5.34,1.653l5.005,3.412l31.745-34.595
				c1.822-1.984,4.309-3.077,7.004-3.077c2.381,0,4.661,0.888,6.418,2.5c1.87,1.716,2.959,4.058,3.068,6.593
				c0.109,2.534-0.776,4.96-2.492,6.829l-38.772,42.255c-1.716,1.87-4.059,2.96-6.596,3.068c-0.138,0.006-0.272,0.009-0.408,0.009
				c-1.97,0-3.863-0.602-5.474-1.739l-4.95-3.495l-22.402,23.641l5.254,4.809c38.445,35.185,79.977,67.239,123.441,95.275
				l1.854,1.195l2.204-0.083c11.603-0.436,23.342-1.134,34.891-2.075l3.665-0.298l21.684-37.669l-1.341-3.196
				c-3.216-7.666-6.35-15.464-9.314-23.178c-1.054-2.743-0.765-5.876,0.773-8.38s4.202-4.178,7.125-4.478
				c7.925-0.813,15.948-1.772,23.846-2.853l3.404-0.466l21.955-38.14l-1.064-3.029c-3.32-9.45-6.479-19.063-9.389-28.568
				l-0.746-2.437l-2.137-1.387c-33.412-21.68-65.416-46.346-95.123-73.313l-5.074-4.604l-22.112,23.336l2.979,4.619
				c2.339,3.627,1.928,8.385-1,11.57c-1.82,1.979-4.307,3.069-7,3.069c-2.385,0-4.666-0.89-6.423-2.505
				c-3.159-2.905-6.288-5.827-9.299-8.684c-3.798-3.603-3.958-9.626-0.357-13.425l35.939-37.928
				c1.746-1.843,4.105-2.895,6.644-2.963l0.238-0.003c2.453,0,4.78,0.926,6.552,2.607c33.7,31.965,70.499,60.729,109.372,85.494
				c1.931,1.229,3.352,3.114,4.003,5.309c2.52,8.489,5.368,17.417,8.468,26.535l5.125,15.08l10.38-18.975
				c1.218-2.226,3.231-3.845,5.668-4.558c0.863-0.252,1.762-0.381,2.666-0.381c1.592,0,3.17,0.403,4.564,1.167
				c23.389,12.809,47.757,24.435,72.428,34.554c1.524,0.625,2.866,1.642,3.881,2.94l2.529,3.236l4.059-0.63
				c0.475-0.073,0.958-0.11,1.437-0.11c1.155,0,2.298,0.214,3.398,0.636c24.597,9.437,50.018,17.613,75.555,24.303
				c1.46,0.383,2.833,1.129,3.968,2.158l2.774,2.514l3.631-0.912c0.763-0.191,1.543-0.289,2.319-0.289
				c0.735,0,1.474,0.088,2.195,0.26c42.778,10.241,86.788,16.608,130.804,18.926c5.231,0.275,9.263,4.756,8.987,9.987
				c-0.266,5.047-4.433,9-9.487,9c-0.167,0-0.337-0.004-0.506-0.013c-39.659-2.09-79.463-7.404-118.301-15.796l-6.686-1.445
				l-7.503,31.213l4.52,2.616c1.32,0.765,2.45,1.85,3.265,3.137c1.36,2.145,1.802,4.69,1.246,7.167l-21.373,95.187
				c-0.981,4.37-4.774,7.422-9.225,7.422c-0.13,0-0.261-0.002-0.392-0.008l-5.752-0.239l-7.576,31.516l6.968,1.534
				c21.986,4.843,44.442,8.938,66.745,12.172l7.049,1.022l4.09-32.122l-5.423-1.836c-1.821-0.616-3.394-1.754-4.548-3.292
				c-1.525-2.03-2.167-4.532-1.81-7.046l3.197-22.422c0.663-4.653,4.696-8.162,9.382-8.162c0.449,0,0.905,0.032,1.356,0.097
				c14.538,2.062,29.328,3.77,43.96,5.076c2.529,0.225,4.817,1.422,6.445,3.37s2.399,4.414,2.172,6.941l-5.848,65.11l7.113,0.506
				c17.785,1.265,35.838,2.029,53.661,2.272l7.126,0.098l-0.143-32.376l-5.606-1.118c-1.882-0.375-3.586-1.298-4.93-2.67
				c-1.774-1.813-2.738-4.209-2.711-6.747l0.257-24.314l-2.642-2.13c-6.329-5.104-12.631-10.348-18.731-15.587
				c-2.208-1.896-3.413-4.652-3.304-7.561c0.108-2.909,1.515-5.567,3.858-7.294c6.265-4.616,12.556-9.405,18.697-14.233l2.638-2.073
				l0.511-48.507c0.055-5.184,4.315-9.4,9.496-9.4l0.104,0.001c3.107,0.032,6.009,1.596,7.763,4.181l5.89,8.68l5.755-8.771
				c0.463-0.705,0.974-1.315,1.52-1.813c10.308-9.405,20.413-19.204,30.037-29.124c1.637-1.688,3.83-2.705,6.176-2.863
				c30.095-2.041,60.346-5.999,89.913-11.767c0.597-0.116,1.207-0.175,1.816-0.175c1.723,0,3.414,0.468,4.889,1.354
				c7.086,4.251,14.702,8.613,22.639,12.966l14.281,7.832l-5.432-20.638c-0.646-2.455-0.297-5.016,0.984-7.209
				c1.28-2.191,3.338-3.754,5.795-4.397c39.596-10.379,78.524-24.222,115.703-41.144c1.251-0.57,2.571-0.858,3.925-0.858
				c3.72,0,7.117,2.187,8.657,5.569c1.052,2.311,1.14,4.891,0.25,7.267c-0.89,2.377-2.651,4.264-4.961,5.315
				c-33.154,15.09-67.801,27.843-102.978,37.904l-6.589,1.885l8.169,31.046l5.176,0.203c4.134,0.163,7.659,2.953,8.772,6.943
				l26.227,93.969c0.683,2.446,0.371,5.011-0.876,7.222c-0.935,1.655-2.327,2.979-4.027,3.829l-5.087,2.543l8.236,31.303l6.854-1.93
				c57.07-16.067,112.781-37.734,165.584-64.399l6.361-3.212l-22.021-41.734l-6.136,3.093
				c-11.331,5.712-22.952,11.256-34.541,16.477l-5.398,2.432l1.503,5.728c0.514,1.957,0.383,4.068-0.369,5.946
				c-0.943,2.355-2.747,4.203-5.08,5.202c-14.35,6.143-29.058,11.983-43.717,17.359c-1.062,0.39-2.161,0.587-3.271,0.587
				c-3.965,0-7.549-2.504-8.918-6.23l-7.812-21.261c-0.863-2.35-0.755-4.998,0.296-7.269c1.067-2.305,2.967-4.054,5.351-4.928
				c8.754-3.21,17.604-6.624,26.306-10.147l6.619-2.681l-13.103-30.578l-6.358,2.571c-8.259,3.341-16.652,6.576-24.946,9.617
				c-1.062,0.39-2.161,0.587-3.271,0.587c-3.965,0-7.548-2.504-8.917-6.229l-7.813-21.263c-0.875-2.383-0.77-4.963,0.297-7.267
				c1.067-2.304,2.967-4.054,5.351-4.928c12.741-4.673,25.526-9.75,38-15.091c1.194-0.511,2.449-0.771,3.729-0.771
				c3.207,0,6.27,1.668,7.994,4.354l3.27,5.091l5.511-2.498c9.255-4.196,18.551-8.63,27.629-13.179l6.391-3.202l-26.438-50.113
				c-2.444-4.633-0.664-10.391,3.97-12.835c1.378-0.728,2.864-1.096,4.416-1.096h3.819l2.166-3.212
				c0.853-1.325,1.984-2.386,3.365-3.154c39.934-22.214,78.005-48.444,113.156-77.964c2.19-1.839,4.526-2.226,6.102-2.226
				c2.819,0,5.474,1.236,7.282,3.391c1.633,1.944,2.41,4.406,2.19,6.935c-0.221,2.528-1.412,4.819-3.355,6.451
				c-31.841,26.739-66.144,50.936-101.953,71.916l-5.903,3.459l15.601,28.077l5.172-1.242c0.729-0.176,1.479-0.265,2.229-0.265
				c0.83,0,1.657,0.109,2.457,0.325c2.456,0.66,4.504,2.234,5.771,4.434l48.691,84.548c2.337,4.059,1.405,9.146-2.216,12.097
				l-4.544,3.703l15.768,28.381l6.169-3.581c20.412-11.848,40.634-24.652,60.104-38.058l5.864-4.037l-18.874-26.442l-5.324,2.595
				c-1.291,0.629-2.734,0.962-4.173,0.962c-0.57,0-1.145-0.052-1.707-0.154c-2.492-0.454-4.663-1.856-6.105-3.946l-12.871-18.64
				c-2.973-4.306-1.892-10.231,2.411-13.209c12.618-8.735,25.168-17.938,37.299-27.354c1.657-1.285,3.727-1.994,5.825-1.994
				c0.397,0,0.8,0.025,1.196,0.075c2.517,0.319,4.761,1.602,6.315,3.61l40.014,51.692l5.558-4.478
				c15.237-12.273,30.308-25.218,44.791-38.473l5.255-4.809l-22.401-23.64l-4.95,3.494c-1.588,1.121-3.535,1.738-5.483,1.738
				c-0.134,0-0.267-0.003-0.4-0.009c-2.534-0.107-4.877-1.197-6.593-3.067l-16.313-17.777l-3.51,0.372
				c-8.415,0.892-16.924,1.646-25.289,2.241c-0.213,0.015-0.438,0.022-0.66,0.022c-2.765,0-5.386-1.194-7.191-3.276
				c-1.948-2.247-2.735-5.324-2.106-8.231c1.715-7.924,3.335-15.994,4.815-23.987l0.637-3.435l-32.674-35.605
				c-3.541-3.859-3.283-9.881,0.576-13.423c1.758-1.612,4.038-2.501,6.421-2.501c2.695,0,5.182,1.093,7.002,3.077l35.842,39.058
				c1.981,2.159,2.863,5.172,2.359,8.058c-0.646,3.701-1.327,7.444-2.022,11.125l-1.741,9.215l9.329-0.951
				c3.601-0.367,7.243-0.767,10.827-1.188c0.359-0.042,0.731-0.063,1.099-0.063c2.66,0,5.215,1.121,7.009,3.076l12.563,13.691
				l5.006-3.416c1.584-1.08,3.433-1.651,5.347-1.651l0.256,0.003c2.541,0.068,4.9,1.121,6.646,2.964l35.938,37.926
				c3.601,3.801,3.439,9.823-0.358,13.427c-22.745,21.575-46.778,42.218-71.435,61.353c-1.658,1.287-3.726,1.996-5.819,1.996
				c-0.398,0-0.801-0.025-1.197-0.076c-2.521-0.319-4.766-1.602-6.319-3.609l-40.043-51.729l-7.292,5.436l-8.26,6.11l8.709,5.45
				c1.063,0.665,1.969,1.518,2.696,2.536l30.361,42.534c3.04,4.259,2.051,10.2-2.204,13.245
				c-28.799,20.61-59.074,39.779-89.982,56.973c-1.409,0.784-3.006,1.198-4.618,1.198c-0.48,0-1.003-0.046-1.552-0.137l-5.374-0.892
				l-2.185,4.99c-0.871,1.992-2.342,3.577-4.252,4.586c-63.438,33.496-130.874,59.726-200.438,77.96
				c-0.795,0.209-1.61,0.314-2.419,0.314c-4.306,0-8.079-2.914-9.177-7.086l-5.961-22.652l-8.684,9.978
				c-9.047,10.396-18.273,20.52-27.425,30.093c-1.365,1.428-3.11,2.382-5.049,2.761c-38.606,7.528-78.1,12.696-117.381,15.357
				c-0.229,0.017-0.444,0.023-0.658,0.023c-4.969,0-9.125-3.892-9.461-8.858c-0.354-5.227,3.609-9.767,8.836-10.12
				c36.718-2.489,73.67-7.218,109.832-14.055l2.23-0.422l1.559-1.65c7.755-8.214,15.424-16.668,22.796-25.127l2.374-2.724
				l-19.827-82.408l-6.696,1.462c-16.354,3.571-33.041,6.683-49.599,9.248l-6.784,1.051l4.455,32.957l9.516-1.472
				c0.499-0.079,1.003-0.118,1.5-0.118c4.612,0,8.636,3.448,9.358,8.021l3.537,22.369c0.396,2.508-0.208,5.02-1.702,7.072
				c-1.494,2.054-3.698,3.401-6.206,3.796c-15.223,2.394-30.713,4.419-46.039,6.021c-0.349,0.037-0.689,0.055-1.025,0.055
				c-4.854,0-8.899-3.658-9.409-8.51l-10.199-97.012c-0.266-2.524,0.468-5,2.065-6.973c1.599-1.972,3.869-3.204,6.394-3.468
				c13.343-1.396,26.811-3.157,40.029-5.236c0.494-0.078,0.997-0.117,1.492-0.117c4.084,0,7.697,2.602,8.991,6.474l1.917,5.736
				l5.953-1.064c9.655-1.726,19.402-3.654,28.972-5.733l6.993-1.52l-5.665-23.552l-2.78-1.479
				c-8.615-4.587-17.213-9.396-25.552-14.297l-2.255-1.325l-2.572,0.479c-26.305,4.898-53.177,8.414-79.871,10.451l-2.609,0.199
				l-1.839,1.861c-6.791,6.875-13.849,13.73-20.979,20.376l-2.305,2.148l3.609,141.496c0.065,2.537-0.861,4.946-2.609,6.786
				c-1.748,1.839-4.107,2.888-6.645,2.952l-0.194,0.003c-0.479,0-0.978-0.042-1.523-0.127l-8.116-1.269l0.089,20.224
				c0.012,2.538-0.967,4.929-2.754,6.732c-1.785,1.801-4.167,2.8-6.705,2.811
				C1138.803,1399.185,1137.437,1399.188,1136.072,1399.188z M1033.699,1327.927c0.134,0.494,0.228,1.001,0.28,1.507l13.935-0.089
				l0.845-9.402l-7.535-0.804l-10.211-1.128L1033.699,1327.927z M1134.949,1274.461c-0.484,0.635-1.017,1.187-1.582,1.642
				c-2.917,2.343-5.917,4.717-8.919,7.056l-6.937,5.405l6.823,5.548c2.829,2.3,5.706,4.605,8.552,6.853
				c0.866,0.685,1.608,1.522,2.202,2.489l13.626,22.184l-1.71-66.975L1134.949,1274.461z M938.988,1223.325
				c-0.842,0.246-1.685,0.377-2.503,0.39l-5.23,0.078l-21.739,77.891l12.442,5.944c1.792-2.515,4.684-4.016,7.734-4.016l5.967,0.143
				l16.762-74.652l-4.559-2.548c-0.725-0.405-1.4-0.913-2.008-1.509l-2.928-2.871L938.988,1223.325z M800.768,1261.297l6.615,2.683
				c3.988,1.617,8.033,3.223,12.024,4.773l6.647,2.582l26.727-72.782l-4.16-3.125c-0.775-0.582-1.455-1.278-2.021-2.069l-2.625-3.67
				l-4.426,0.876c-0.604,0.119-1.222,0.181-1.838,0.181c-0.392,0-0.788-0.025-1.177-0.073l-5.224-0.649L800.768,1261.297z
				 M1518.328,1162.908c-0.405,3.062-2.264,5.743-4.972,7.172c-14.3,7.551-29.061,14.777-43.871,21.481l-6.25,2.828l19.982,46.633
				l6.504-2.937c15.979-7.216,31.894-15,47.302-23.135c1.362-0.72,2.896-1.1,4.436-1.1c0.951,0,1.896,0.143,2.806,0.423
				c1.3,0.402,2.494,1.089,3.548,2.04l10.757-8.689l-37.534-65.174L1518.328,1162.908z M734.171,1168.845
				c-0.938,0.479-1.921,0.798-2.92,0.945c-3.712,0.551-7.486,1.08-11.216,1.574l-9.047,1.197l3.501,8.428
				c1.412,3.398,2.847,6.789,4.267,10.079c0.567,1.315,0.83,2.779,0.757,4.231l13.183,3.612l21.174-40.134L734.171,1168.845z"/>
		</g>
	</g>
</g>
</svg>
